<svg width="26" height="26" viewBox="0 0 26 26" fill="none" xmlns="http://www.w3.org/2000/svg">
<path d="M7.56893 19.7602L7.53458 19.8321L7.59697 19.8816C9.08733 21.0651 10.9616 21.7666 13 21.7666C15.0384 21.7666 16.9127 21.0651 18.403 19.8816L18.4648 19.8325L18.4314 19.761C18.3052 19.4905 18.0215 19.2354 17.6537 19.0058C17.2828 18.7743 16.8132 18.5609 16.2967 18.3792C15.2644 18.0159 14.0316 17.775 13 17.775C11.9684 17.775 10.7383 18.0159 9.70728 18.3792C9.19149 18.5609 8.72227 18.7744 8.35089 19.0058C7.98252 19.2354 7.69788 19.4903 7.56893 19.7602ZM19.8127 18.296L19.893 18.3936L19.9696 18.293C21.087 16.825 21.7667 14.9948 21.7667 13C21.7667 8.16723 17.8327 4.23329 13 4.23329C8.16726 4.23329 4.23332 8.16723 4.23332 13C4.23332 14.9948 4.91297 16.825 6.03042 18.293L6.10698 18.3936L6.18725 18.296C6.94264 17.3768 8.24618 16.753 9.57128 16.3594C10.8937 15.9665 12.2193 15.8083 13 15.8083C13.7807 15.8083 15.1063 15.9665 16.4287 16.3594C17.7538 16.753 19.0573 17.3768 19.8127 18.296ZM2.26666 13C2.26666 7.07519 7.07522 2.26663 13 2.26663C18.9248 2.26663 23.7333 7.07519 23.7333 13C23.7333 18.9247 18.9248 23.7333 13 23.7333C7.07522 23.7333 2.26666 18.9247 2.26666 13ZM9.30832 10.2916C9.30832 8.24519 10.9536 6.59996 13 6.59996C15.0464 6.59996 16.6917 8.24519 16.6917 10.2916C16.6917 12.3381 15.0464 13.9833 13 13.9833C10.9536 13.9833 9.30832 12.3381 9.30832 10.2916ZM11.275 10.2916C11.275 11.246 12.0456 12.0166 13 12.0166C13.9544 12.0166 14.725 11.246 14.725 10.2916C14.725 9.33723 13.9544 8.56663 13 8.56663C12.0456 8.56663 11.275 9.33723 11.275 10.2916Z" fill="#DDE0E7" stroke="#1B325E" stroke-width="0.2"/>
</svg>
