<svg width="24" height="24" viewBox="0 0 24 24" fill="none" xmlns="http://www.w3.org/2000/svg">
<path d="M6.97977 18.2369L6.94543 18.3088L7.00781 18.3583C8.38484 19.4518 10.1166 20.1 12 20.1C13.8834 20.1 15.6152 19.4518 16.9922 18.3583L17.054 18.3092L17.0206 18.2377C16.9031 17.986 16.6397 17.7495 16.2998 17.5374C15.9568 17.3233 15.5228 17.126 15.0457 16.9582C14.0921 16.6226 12.9533 16.4 12 16.4C11.0467 16.4 9.9104 16.6226 8.95802 16.9582C8.48155 17.1261 8.04787 17.3233 7.70445 17.5373C7.36405 17.7495 7.09976 17.9857 6.97977 18.2369ZM18.2827 16.8935L18.363 16.9912L18.4396 16.8906C19.472 15.5342 20.1 13.8432 20.1 12C20.1 7.53477 16.4652 3.9 12 3.9C7.53477 3.9 3.9 7.53477 3.9 12C3.9 13.8432 4.52798 15.5342 5.56043 16.8906L5.63699 16.9912L5.71726 16.8935C6.41306 16.0468 7.61453 15.4716 8.83722 15.1084C10.0572 14.746 11.2801 14.6 12 14.6C12.7199 14.6 13.9428 14.746 15.1628 15.1084C16.3855 15.4716 17.5869 16.0468 18.2827 16.8935ZM2.1 12C2.1 6.53523 6.53523 2.1 12 2.1C17.4648 2.1 21.9 6.53523 21.9 12C21.9 17.4648 17.4648 21.9 12 21.9C6.53523 21.9 2.1 17.4648 2.1 12ZM8.6 9.5C8.6 7.61523 10.1152 6.1 12 6.1C13.8848 6.1 15.4 7.61523 15.4 9.5C15.4 11.3848 13.8848 12.9 12 12.9C10.1152 12.9 8.6 11.3848 8.6 9.5ZM10.4 9.5C10.4 10.3852 11.1148 11.1 12 11.1C12.8852 11.1 13.6 10.3852 13.6 9.5C13.6 8.61477 12.8852 7.9 12 7.9C11.1148 7.9 10.4 8.61477 10.4 9.5Z" fill="#1B325E" stroke="white" stroke-width="0.2"/>
</svg>
