<svg width="32" height="32" viewBox="0 0 32 32" fill="none" xmlns="http://www.w3.org/2000/svg">
<path d="M9.33627 24.3302L9.30193 24.4021L9.36432 24.4516C11.1947 25.9051 13.4964 26.7666 15.9998 26.7666C18.5033 26.7666 20.805 25.9051 22.6354 24.4516L22.6972 24.4025L22.6638 24.331C22.5113 24.0043 22.1668 23.6932 21.7153 23.4114C21.2606 23.1276 20.6843 22.8656 20.0497 22.6423C18.7811 22.1959 17.2665 21.9 15.9998 21.9C14.7332 21.9 13.2219 22.1959 11.9549 22.6423C11.3212 22.8656 10.7453 23.1276 10.2901 23.4113C9.83784 23.6932 9.4921 24.004 9.33627 24.3302ZM7.44027 22.5005L7.51683 22.6011L7.59709 22.5035C8.53123 21.3668 10.141 20.5974 11.7733 20.1125C13.4029 19.6284 15.0366 19.4333 15.9998 19.4333C16.963 19.4333 18.5968 19.6284 20.2264 20.1125C21.8586 20.5974 23.4684 21.3668 24.4026 22.5035L24.4798 22.44L24.5594 22.5005C25.9319 20.6975 26.7665 18.4498 26.7665 16C26.7665 10.0647 21.9351 5.23329 15.9998 5.23329C10.0646 5.23329 5.23317 10.0647 5.23317 16C5.23317 18.4498 6.06782 20.6975 7.44027 22.5005ZM2.7665 16C2.7665 8.69519 8.69507 2.76663 15.9998 2.76663C23.3046 2.76663 29.2332 8.69519 29.2332 16C29.2332 23.3047 23.3046 29.2333 15.9998 29.2333C8.69507 29.2333 2.7665 23.3047 2.7665 16ZM11.4332 12.6666C11.4332 10.1352 13.4684 8.09996 15.9998 8.09996C18.5313 8.09996 20.5665 10.1352 20.5665 12.6666C20.5665 15.1981 18.5313 17.2333 15.9998 17.2333C13.4684 17.2333 11.4332 15.1981 11.4332 12.6666ZM13.8998 12.6666C13.8998 13.8285 14.8379 14.7666 15.9998 14.7666C17.1617 14.7666 18.0998 13.8285 18.0998 12.6666C18.0998 11.5047 17.1617 10.5666 15.9998 10.5666C14.8379 10.5666 13.8998 11.5047 13.8998 12.6666Z" fill="#1B325E" stroke="white" stroke-width="0.2"/>
</svg>
