<svg width="24" height="24" viewBox="0 0 24 24" fill="none" xmlns="http://www.w3.org/2000/svg">
<path d="M10.532 15.6254L6.1 19.1719V3.1H17.9V19.1705L13.468 15.6254C13.0513 15.2921 12.5336 15.1105 12 15.1105C11.4664 15.1105 10.9487 15.2921 10.532 15.6254L10.532 15.6254ZM19.6 20.9401V20.94V2.25C19.6 2.02457 19.5104 1.80837 19.351 1.64896C19.1916 1.48955 18.9754 1.4 18.75 1.4H5.25C5.02457 1.4 4.80837 1.48955 4.64896 1.64896C4.48955 1.80837 4.4 2.02457 4.4 2.25L4.4 20.94L4.4 20.9401C4.40023 21.1001 4.44558 21.2567 4.53084 21.392C4.6161 21.5274 4.73782 21.6359 4.88199 21.7051C5.02617 21.7744 5.18696 21.8015 5.34588 21.7835C5.50481 21.7655 5.65542 21.7029 5.7804 21.6031L5.78046 21.6031L11.5944 16.9531C11.7096 16.8612 11.8526 16.8111 12 16.8111C12.1474 16.8111 12.2904 16.8612 12.4056 16.9531L18.2195 21.6031L18.2196 21.6031C18.3446 21.7029 18.4952 21.7655 18.6541 21.7835C18.813 21.8015 18.9738 21.7744 19.118 21.7051C19.2622 21.6359 19.3839 21.5274 19.4692 21.392C19.5544 21.2567 19.5998 21.1001 19.6 20.9401Z" fill="#3D5176" stroke="#1B325E" stroke-width="0.2"/>
</svg>
