<svg width="32" height="32" viewBox="0 0 32 32" fill="none" xmlns="http://www.w3.org/2000/svg">
<path d="M26.1 27.92V27.9201C26.0997 28.1271 26.041 28.3298 25.9307 28.505C25.8203 28.6801 25.6628 28.8205 25.4762 28.9101C25.2897 28.9998 25.0816 29.0349 24.8759 29.0116C24.6702 28.9882 24.4753 28.9073 24.3136 28.7781L24.3135 28.7781L16.5616 22.5781L26.1 27.92ZM26.1 27.92V3C26.1 2.70826 25.9841 2.42847 25.7778 2.22218C25.5715 2.01589 25.2917 1.9 25 1.9H7C6.70826 1.9 6.42847 2.01589 6.22218 2.22218C6.01589 2.42847 5.9 2.70826 5.9 3L5.9 27.92L5.9 27.9201C5.90029 28.1271 5.95898 28.3298 6.06932 28.505C6.17966 28.6801 6.33717 28.8205 6.52376 28.9101C6.71034 28.9998 6.91842 29.0349 7.12408 29.0116C7.32975 28.9882 7.52466 28.9073 7.6864 28.7781L7.68646 28.7781M26.1 27.92L7.68646 28.7781M7.68646 28.7781L15.4384 22.5781L7.68646 28.7781ZM14.0635 20.8599L8.1 25.6319V4.1H23.9V25.63L17.9365 20.8599C17.3868 20.4202 16.7039 20.1807 16 20.1807C15.2961 20.1807 14.6132 20.4202 14.0635 20.8599L14.0635 20.8599ZM16 22.3814C16.2041 22.3814 16.4021 22.4508 16.5615 22.5781H15.4385C15.5979 22.4508 15.7959 22.3814 16 22.3814Z" fill="#1B325E" stroke="#1B325E" stroke-width="0.2"/>
</svg>
