<svg width="32" height="32" viewBox="0 0 32 32" fill="none" xmlns="http://www.w3.org/2000/svg">
<path d="M26.1333 27.92V27.9202C26.133 28.1334 26.0726 28.3423 25.9589 28.5227C25.8452 28.7032 25.6829 28.8479 25.4907 28.9402C25.2984 29.0325 25.0841 29.0687 24.8722 29.0447C24.6603 29.0206 24.4594 28.9373 24.2928 28.8042L24.2927 28.8041L16.5408 22.6042L26.1333 27.92ZM26.1333 27.92V3C26.1333 2.69942 26.0139 2.41115 25.8014 2.19861C25.5888 1.98607 25.3006 1.86667 25 1.86667H7C6.69942 1.86667 6.41115 1.98607 6.19861 2.19861C5.98607 2.41115 5.86667 2.69942 5.86667 3L5.86667 27.92L5.86667 27.9202C5.86697 28.1334 5.92744 28.3423 6.04112 28.5227C6.1548 28.7032 6.31709 28.8479 6.50932 28.9402C6.70156 29.0325 6.91595 29.0687 7.12785 29.0447C7.33974 29.0206 7.54055 28.9373 7.7072 28.8042L7.70728 28.8041M26.1333 27.92L7.70728 28.8041M7.70728 28.8041L15.4592 22.6042L7.70728 28.8041ZM14.0427 20.8339L8.13333 25.5625V4.13333H23.8667V25.5606L17.9573 20.8339C17.4017 20.3895 16.7115 20.1473 16 20.1473C15.2885 20.1473 14.5983 20.3895 14.0427 20.8339L14.0427 20.8339ZM16 22.4148C16.1965 22.4148 16.3872 22.4815 16.5407 22.6041H15.4593C15.6128 22.4815 15.8035 22.4148 16 22.4148Z" fill="#1B325E" stroke="#546586" stroke-width="0.266667"/>
</svg>
