<svg width="32" height="32" viewBox="0 0 32 32" fill="none" xmlns="http://www.w3.org/2000/svg">
<path d="M9.39071 10.1907L9.43247 10.149L9.41606 10.0922C9.09815 8.99276 8.89932 7.83984 8.81977 6.65994L8.72 6.66667V6.56667H6.70667H6.59962L6.6069 6.67347C6.72749 8.4422 7.0759 10.1441 7.62537 11.7523L7.67725 11.9042L7.79071 11.7907L9.39071 10.1907ZM25.4333 23.2933V23.1999L25.3401 23.1936C24.1736 23.114 23.0205 22.9152 21.8938 22.5971L21.8667 22.6933L21.7963 22.6223L20.1963 24.209L20.0805 24.3238L20.2353 24.3749C21.8562 24.9108 23.5578 25.2592 25.3265 25.3798L25.4333 25.3871V25.28V23.2933ZM21.8695 20.0128L21.8695 20.013L21.8753 20.015C23.3787 20.5116 25.0027 20.78 26.6667 20.78C27.3448 20.78 27.9 21.3352 27.9 22.0133V26.6667C27.9 27.3448 27.3448 27.9 26.6667 27.9C14.2019 27.9 4.1 17.7981 4.1 5.33333C4.1 4.65523 4.65523 4.1 5.33333 4.1H10C10.6781 4.1 11.2333 4.65523 11.2333 5.33333C11.2333 7.01047 11.5016 8.62082 11.9982 10.124C12.1338 10.5565 12.0349 11.037 11.6893 11.3826L8.75596 14.316L8.70461 14.3673L8.73754 14.432C10.6672 18.2244 13.7759 21.3195 17.5677 23.2623L17.6325 23.2955L17.684 23.244L20.6165 20.3116C20.865 20.0759 21.1736 19.9533 21.4933 19.9533C21.6213 19.9533 21.7533 19.9664 21.8695 20.0128Z" fill="#1B325E" stroke="white" stroke-width="0.2"/>
</svg>
