<svg width="24" height="24" viewBox="0 0 24 24" fill="none" xmlns="http://www.w3.org/2000/svg">
<path d="M6.63977 4.99327L6.63349 4.9H6.54H5.03H4.92295L4.93023 5.0068C5.02083 6.33554 5.28256 7.61412 5.69537 8.82233L5.74725 8.97417L5.86071 8.86071L7.06071 7.66071L7.10247 7.61895L7.08606 7.56222C6.84815 6.73943 6.69932 5.87651 6.63977 4.99327ZM16.4272 16.9238L16.371 16.9079L16.3296 16.949L15.1296 18.139L15.0138 18.2538L15.1686 18.3049C16.3862 18.7074 17.6644 18.9692 18.9932 19.0598L19.1 19.067V18.96V17.47V17.3766L19.0068 17.3702C18.1336 17.3107 17.2705 17.1619 16.4272 16.9238ZM16.3929 15.0328L16.3928 15.033L16.3986 15.035C17.5287 15.4083 18.7493 15.61 20 15.61C20.4948 15.61 20.9 16.0152 20.9 16.51V20C20.9 20.4948 20.4948 20.9 20 20.9C10.6652 20.9 3.1 13.3348 3.1 4C3.1 3.50523 3.50523 3.1 4 3.1H7.5C7.99477 3.1 8.4 3.50523 8.4 4C8.4 5.26046 8.60164 6.4708 8.97481 7.60065C9.07383 7.91651 9.00162 8.26696 8.74929 8.51929L6.54929 10.7193L6.49794 10.7706L6.53087 10.8354C7.98055 13.6844 10.3159 16.0095 13.1644 17.469L13.2292 17.5022L13.2807 17.4507L15.4798 15.2516C15.6617 15.0793 15.8869 14.99 16.12 14.99C16.2147 14.99 16.31 14.9997 16.3929 15.0328Z" fill="#1B325E" stroke="white" stroke-width="0.2"/>
</svg>
