<svg width="32" height="32" viewBox="0 0 32 32" fill="none" xmlns="http://www.w3.org/2000/svg">
<circle cx="16" cy="16" r="16" fill="#1B325E"/>
<g clip-path="url(#clip0_614_2476)">
<rect width="21.3333" height="21.3333" transform="translate(5.3335 5.33301)" fill="#1B325E"/>
<path d="M23.1113 8.88813H20.2935L18.6668 7.11035H13.3335L11.7068 8.88813H8.88905C7.91127 8.88813 7.11127 9.68813 7.11127 10.6659V21.3326C7.11127 22.3104 7.91127 23.1104 8.88905 23.1104H23.1113C24.089 23.1104 24.889 22.3104 24.889 21.3326V10.6659C24.889 9.68813 24.089 8.88813 23.1113 8.88813ZM23.1113 21.3326H8.88905V10.6659H12.489L14.1157 8.88813H17.8846L19.5113 10.6659H23.1113V21.3326ZM16.0002 11.5548C13.5468 11.5548 11.5557 13.5459 11.5557 15.9992C11.5557 18.4526 13.5468 20.4437 16.0002 20.4437C18.4535 20.4437 20.4446 18.4526 20.4446 15.9992C20.4446 13.5459 18.4535 11.5548 16.0002 11.5548ZM16.0002 18.6659C14.5335 18.6659 13.3335 17.4659 13.3335 15.9992C13.3335 14.5326 14.5335 13.3326 16.0002 13.3326C17.4668 13.3326 18.6668 14.5326 18.6668 15.9992C18.6668 17.4659 17.4668 18.6659 16.0002 18.6659Z" fill="#F8F9FA"/>
</g>
<defs>
<clipPath id="clip0_614_2476">
<rect width="21.3333" height="21.3333" fill="white" transform="translate(5.3335 5.33301)"/>
</clipPath>
</defs>
</svg>
