<svg width="32" height="32" viewBox="0 0 32 32" fill="none" xmlns="http://www.w3.org/2000/svg">
<path d="M22.3661 5.40092L22.3958 5.43341H22.4398H26.6665C28.0779 5.43341 29.2332 6.58864 29.2332 8.00008V24.0001C29.2332 25.4115 28.0779 26.5667 26.6665 26.5667H5.33317C3.92173 26.5667 2.7665 25.4115 2.7665 24.0001V8.00008C2.7665 6.58864 3.92173 5.43341 5.33317 5.43341H9.55984H9.60388L9.63361 5.40092L12.0439 2.76675H19.9558L22.3661 5.40092ZM26.6665 24.1001H26.7665V24.0001V8.00008V7.90008H26.6665H21.3105L18.9003 5.26591L18.8705 5.23341H18.8265H13.1732H13.1291L13.0994 5.26591L10.6891 7.90008H5.33317H5.23317V8.00008V24.0001V24.1001H5.33317H26.6665ZM9.43317 16.0001C9.43317 12.3753 12.3751 9.43341 15.9998 9.43341C19.6246 9.43341 22.5665 12.3753 22.5665 16.0001C22.5665 19.6249 19.6246 22.5667 15.9998 22.5667C12.3751 22.5667 9.43317 19.6249 9.43317 16.0001ZM11.8998 16.0001C11.8998 18.2553 13.7446 20.1001 15.9998 20.1001C18.2551 20.1001 20.0998 18.2553 20.0998 16.0001C20.0998 13.7449 18.2551 11.9001 15.9998 11.9001C13.7446 11.9001 11.8998 13.7449 11.8998 16.0001Z" fill="#1B325E" stroke="white" stroke-width="0.2"/>
</svg>
