<svg width="24" height="24" viewBox="0 0 24 24" fill="none" xmlns="http://www.w3.org/2000/svg">
<path d="M16.7562 4.06751L16.786 4.1H16.83H20C21.0448 4.1 21.9 4.95523 21.9 6V18C21.9 19.0448 21.0448 19.9 20 19.9H4C2.95523 19.9 2.1 19.0448 2.1 18V6C2.1 4.95523 2.95523 4.1 4 4.1H7.17H7.21404L7.24378 4.06751L9.04404 2.1H14.956L16.7562 4.06751ZM20 18.1H20.1V18V6V5.9H20H15.994L14.1938 3.93249L14.164 3.9H14.12H9.88H9.83596L9.80622 3.93249L8.00596 5.9H4H3.9V6V18V18.1H4H20ZM7.1 12C7.1 9.29523 9.29523 7.1 12 7.1C14.7048 7.1 16.9 9.29523 16.9 12C16.9 14.7048 14.7048 16.9 12 16.9C9.29523 16.9 7.1 14.7048 7.1 12ZM8.9 12C8.9 13.7052 10.2948 15.1 12 15.1C13.7052 15.1 15.1 13.7052 15.1 12C15.1 10.2948 13.7052 8.9 12 8.9C10.2948 8.9 8.9 10.2948 8.9 12Z" fill="#1B325E" stroke="white" stroke-width="0.2"/>
</svg>
