<svg width="24" height="24" viewBox="0 0 24 24" fill="none" xmlns="http://www.w3.org/2000/svg">
<path d="M17.2124 11.9217L17.2123 11.9219C16.8896 12.5104 16.2629 12.9 15.55 12.9H8.1H8.04087L8.01238 12.9518L6.91238 14.9518L6.83087 15.1H7H18.9V16.9H7C5.55693 16.9 4.6438 15.3523 5.33766 14.0781C5.33771 14.078 5.33776 14.0779 5.33781 14.0778L6.6875 11.6384L6.71234 11.5935L6.69035 11.5471L3.09035 3.95715L3.06325 3.9H3H1.1V2.1H4.20651L5.1195 4.04254L5.14651 4.1H5.21H20.01C20.6938 4.1 21.1253 4.83795 20.7928 5.4311L20.7924 5.4317L17.2124 11.9217ZM6.16 5.9H6.00194L6.06964 6.04283L8.43964 11.0428L8.46673 11.1H8.53H15.55H15.609L15.6375 11.0483L18.3975 6.04833L18.4794 5.9H18.31H6.16ZM5.11 20C5.11 18.9546 5.95588 18.1 7 18.1C8.04477 18.1 8.9 18.9552 8.9 20C8.9 21.0448 8.04477 21.9 7 21.9C5.95588 21.9 5.11 21.0454 5.11 20ZM15.11 20C15.11 18.9546 15.9559 18.1 17 18.1C18.0448 18.1 18.9 18.9552 18.9 20C18.9 21.0448 18.0448 21.9 17 21.9C15.9559 21.9 15.11 21.0454 15.11 20Z" fill="#1B325E" stroke="white" stroke-width="0.2"/>
</svg>
