<svg width="32" height="32" viewBox="0 0 32 32" fill="none" xmlns="http://www.w3.org/2000/svg">
<path d="M22.9793 15.9117L22.9791 15.9119C22.5431 16.7071 21.6964 17.2333 20.7335 17.2333H10.8002H10.741L10.7125 17.2851L9.24587 19.9518L9.16437 20.1H9.3335H25.2335V22.5666H9.3335C7.38375 22.5666 6.15063 20.4755 7.08783 18.7547C7.08788 18.7546 7.08793 18.7546 7.08798 18.7545L8.88766 15.5017L8.91251 15.4568L8.89051 15.4104L4.09051 5.29044L4.06341 5.23329H4.00016H1.4335V2.76663H5.63L6.85633 5.37583L6.88333 5.43329H6.94683H26.6802C27.6173 5.43329 28.2088 6.44458 27.7529 7.25772L27.7526 7.25833L22.9793 15.9117ZM8.2135 7.89996H8.05543L8.12313 8.04279L11.2831 14.7095L11.3102 14.7666H11.3735H20.7335H20.7925L20.821 14.715L24.501 8.04829L24.5829 7.89996H24.4135H8.2135ZM6.78016 26.6666C6.78016 25.2545 7.92271 24.1 9.3335 24.1C10.7449 24.1 11.9002 25.2552 11.9002 26.6666C11.9002 28.0781 10.7449 29.2333 9.3335 29.2333C7.92271 29.2333 6.78016 28.0787 6.78016 26.6666ZM20.1135 26.6666C20.1135 25.2545 21.256 24.1 22.6668 24.1C24.0783 24.1 25.2335 25.2552 25.2335 26.6666C25.2335 28.0781 24.0783 29.2333 22.6668 29.2333C21.256 29.2333 20.1135 28.0787 20.1135 26.6666Z" fill="#1B325E" stroke="white" stroke-width="0.2"/>
</svg>
