<svg width="30" height="32" viewBox="0 0 30 32" fill="none" xmlns="http://www.w3.org/2000/svg">
<g filter="url(#filter0_d_192_2262)">
<path d="M21.6541 12.9192L21.654 12.9194C21.3029 13.5596 20.6212 13.9833 19.8458 13.9833H11.775H11.7159L11.6874 14.0351L10.4957 16.2018L10.4142 16.35H10.5833H23.4833V18.3166H10.5833C9.0136 18.3166 8.02048 16.633 8.77517 15.2472C8.77522 15.2472 8.77527 15.2471 8.77532 15.247L10.2375 12.6042L10.2624 12.5593L10.2404 12.5129L6.34036 4.29044L6.31326 4.23329H6.25001H4.18334V2.26663H7.56235L8.55367 4.37583L8.58068 4.43329H8.64418H24.6775C25.4246 4.43329 25.8961 5.23958 25.5328 5.88772L25.5324 5.88833L21.6541 12.9192ZM9.67334 6.39996H9.51528L9.58298 6.54279L12.1505 11.9595L12.1776 12.0166H12.2408H19.8458H19.9049L19.9334 11.965L22.9234 6.54829L23.0053 6.39996H22.8358H9.67334ZM8.52751 21.6666C8.52751 20.5295 9.44756 19.6 10.5833 19.6C11.7198 19.6 12.65 20.5302 12.65 21.6666C12.65 22.8031 11.7198 23.7333 10.5833 23.7333C9.44756 23.7333 8.52751 22.8037 8.52751 21.6666ZM19.3608 21.6666C19.3608 20.5295 20.2809 19.6 21.4167 19.6C22.5531 19.6 23.4833 20.5302 23.4833 21.6666C23.4833 22.8031 22.5531 23.7333 21.4167 23.7333C20.2809 23.7333 19.3608 22.8037 19.3608 21.6666Z" fill="#DDE0E7" stroke="#1B325E" stroke-width="0.2"/>
</g>
<defs>
<filter id="filter0_d_192_2262" x="-1" y="0" width="34" height="34" filterUnits="userSpaceOnUse" color-interpolation-filters="sRGB">
<feFlood flood-opacity="0" result="BackgroundImageFix"/>
<feColorMatrix in="SourceAlpha" type="matrix" values="0 0 0 0 0 0 0 0 0 0 0 0 0 0 0 0 0 0 127 0" result="hardAlpha"/>
<feOffset dy="4"/>
<feGaussianBlur stdDeviation="2"/>
<feComposite in2="hardAlpha" operator="out"/>
<feColorMatrix type="matrix" values="0 0 0 0 0 0 0 0 0 0 0 0 0 0 0 0 0 0 0.25 0"/>
<feBlend mode="normal" in2="BackgroundImageFix" result="effect1_dropShadow_192_2262"/>
<feBlend mode="normal" in="SourceGraphic" in2="effect1_dropShadow_192_2262" result="shape"/>
</filter>
</defs>
</svg>
