<svg width="18" height="18" viewBox="0 0 18 18" fill="none" xmlns="http://www.w3.org/2000/svg">
<path d="M13.7241 4.28156C13.4316 3.98906 12.9591 3.98906 12.6666 4.28156L8.99906 7.94156L5.33156 4.27406C5.03906 3.98156 4.56656 3.98156 4.27406 4.27406C3.98156 4.56656 3.98156 5.03906 4.27406 5.33156L7.94156 8.99906L4.27406 12.6666C3.98156 12.9591 3.98156 13.4316 4.27406 13.7241C4.56656 14.0166 5.03906 14.0166 5.33156 13.7241L8.99906 10.0566L12.6666 13.7241C12.9591 14.0166 13.4316 14.0166 13.7241 13.7241C14.0166 13.4316 14.0166 12.9591 13.7241 12.6666L10.0566 8.99906L13.7241 5.33156C14.0091 5.04656 14.0091 4.56656 13.7241 4.28156V4.28156Z" fill="#1B325E"/>
</svg>
