<svg width="16" height="16" viewBox="0 0 16 16" fill="none" xmlns="http://www.w3.org/2000/svg">
<path d="M6.71998 7.24016C6.75331 7.02016 6.82665 6.82683 6.91998 6.66016C7.01331 6.4935 7.14665 6.3535 7.31331 6.24683C7.47331 6.14683 7.67331 6.10016 7.91998 6.0935C8.07331 6.10016 8.21331 6.12683 8.33998 6.18016C8.47331 6.24016 8.59331 6.32016 8.68665 6.42016C8.77998 6.52016 8.85331 6.64016 8.91331 6.7735C8.97331 6.90683 8.99998 7.0535 9.00665 7.20016H10.2C10.1866 6.88683 10.1266 6.60016 10.0133 6.34016C9.89998 6.08016 9.74665 5.8535 9.54665 5.66683C9.34665 5.48016 9.10665 5.3335 8.82665 5.22683C8.54665 5.12016 8.23998 5.0735 7.89998 5.0735C7.46665 5.0735 7.08665 5.14683 6.76665 5.30016C6.44665 5.4535 6.17998 5.6535 5.96665 5.9135C5.75331 6.1735 5.59331 6.4735 5.49331 6.82016C5.39331 7.16683 5.33331 7.52683 5.33331 7.9135V8.0935C5.33331 8.48016 5.38665 8.84016 5.48665 9.18683C5.58665 9.5335 5.74665 9.8335 5.95998 10.0868C6.17331 10.3402 6.43998 10.5468 6.75998 10.6935C7.07998 10.8402 7.45998 10.9202 7.89331 10.9202C8.20665 10.9202 8.49998 10.8668 8.77331 10.7668C9.04665 10.6668 9.28665 10.5268 9.49331 10.3468C9.69998 10.1668 9.86665 9.96016 9.98665 9.72016C10.1066 9.48016 10.18 9.22683 10.1866 8.9535H8.99331C8.98665 9.0935 8.95331 9.22016 8.89331 9.34016C8.83331 9.46016 8.75331 9.56016 8.65331 9.64683C8.55331 9.7335 8.43998 9.80016 8.30665 9.84683C8.17998 9.8935 8.04665 9.90683 7.90665 9.9135C7.66665 9.90683 7.46665 9.86016 7.31331 9.76016C7.14665 9.6535 7.01331 9.5135 6.91998 9.34683C6.82665 9.18016 6.75331 8.98016 6.71998 8.76016C6.68665 8.54016 6.66665 8.3135 6.66665 8.0935V7.9135C6.66665 7.68016 6.68665 7.46016 6.71998 7.24016ZM7.99998 1.3335C4.31998 1.3335 1.33331 4.32016 1.33331 8.00016C1.33331 11.6802 4.31998 14.6668 7.99998 14.6668C11.68 14.6668 14.6666 11.6802 14.6666 8.00016C14.6666 4.32016 11.68 1.3335 7.99998 1.3335ZM7.99998 13.3335C5.05998 13.3335 2.66665 10.9402 2.66665 8.00016C2.66665 5.06016 5.05998 2.66683 7.99998 2.66683C10.94 2.66683 13.3333 5.06016 13.3333 8.00016C13.3333 10.9402 10.94 13.3335 7.99998 13.3335Z" fill="#EBEDF0"/>
</svg>
