<svg width="18" height="18" viewBox="0 0 18 18" fill="none" xmlns="http://www.w3.org/2000/svg">
<path d="M10.5804 6.72964L10.545 6.69429L10.5096 6.72964L3.71464 13.5246L3.7 13.5393V13.56V14.25V14.3H3.75H4.44H4.46071L4.47536 14.2854L11.2704 7.49036L11.3057 7.455L11.2704 7.41964L10.5804 6.72964ZM12.7554 2.50286C12.8881 2.37008 13.0703 2.3 13.245 2.3C13.4279 2.3 13.6023 2.36302 13.7421 2.50286L15.4971 4.25786C15.7701 4.53083 15.7701 4.97167 15.4971 5.24464L14.16 6.58179L11.4182 3.84L12.7554 2.50286ZM2.3 12.9582L10.545 4.71321L13.2868 7.455L5.04179 15.7H2.3V12.9582Z" fill="#3D5176" stroke="white" stroke-width="0.1"/>
</svg>
