<svg width="154" height="60" viewBox="0 0 154 60" fill="none" xmlns="http://www.w3.org/2000/svg">
<g clip-path="url(#clip0_192_2094)">
<path fill-rule="evenodd" clip-rule="evenodd" d="M0 -46.3628H154.119V107.704H0V-46.3628Z" fill="#1B325E"/>
<path fill-rule="evenodd" clip-rule="evenodd" d="M3.45227 -41.833V103.174H150.667V-41.833H3.45227ZM4.12155 -40.9549V102.296H149.997V-40.9549H4.12155Z" fill="#1B325E"/>
<path fill-rule="evenodd" clip-rule="evenodd" d="M49.8892 42.4927L50.4301 39.4346C50.4526 39.3224 50.5104 39.2612 50.6239 39.2426C50.7062 39.2293 50.7935 39.2225 50.8766 39.2159C50.9982 39.2063 51.1202 39.1991 51.2421 39.1941C51.3412 39.1899 51.4405 39.1872 51.5397 39.1872C52.2774 39.1872 52.8142 39.5588 52.8142 40.3341C52.8142 40.441 52.8039 40.5487 52.786 40.6541L52.6723 41.3227C52.506 42.3002 51.9206 42.7679 50.9345 42.7679C50.8417 42.7679 50.7487 42.7656 50.6559 42.7617C50.533 42.757 50.4099 42.7496 50.2874 42.7398C50.2052 42.7331 50.1176 42.7264 50.0382 42.7127C49.9447 42.6993 49.8829 42.6422 49.8829 42.5444C49.8829 42.5254 49.8839 42.5105 49.8892 42.4927ZM54.4871 39.2236H54.9375C55.0403 39.2236 55.0933 39.2803 55.0786 39.3835L55.0783 39.3859L54.5141 42.5877C54.4969 42.6856 54.4452 42.7319 54.3415 42.7319H53.8912C53.791 42.7319 53.7361 42.6592 53.7549 42.5654L54.3191 39.3635C54.3348 39.2744 54.3956 39.2239 54.4871 39.2239V39.2236ZM57.5256 42.0875L57.7215 40.9778C57.7379 40.8846 57.7907 40.8337 57.8895 40.8337H58.34C58.4422 40.8337 58.4951 40.8991 58.4761 41.0001L58.208 42.5268C58.1944 42.615 58.1404 42.6705 58.0531 42.6892L58.0518 42.6895C57.7186 42.7535 57.3727 42.7679 57.0342 42.7679C56.7923 42.7679 56.5375 42.6781 56.3494 42.5263C56.0743 42.3041 55.9644 41.9808 55.9644 41.6348C55.9644 41.5207 55.9759 41.4071 55.9972 41.2963L56.1109 40.6414C56.2641 39.7597 56.7217 39.1872 57.653 39.1872C57.8524 39.1872 58.0525 39.1982 58.2509 39.2183C58.3766 39.231 58.5051 39.2469 58.6294 39.2702C58.7274 39.2886 58.7703 39.3405 58.7536 39.4403L58.6988 39.7463C58.6768 39.8562 58.6238 39.9041 58.5069 39.8933C58.2259 39.8674 57.9443 39.8572 57.6621 39.8572C57.4948 39.8572 57.3167 39.8816 57.1806 39.987C56.9855 40.1379 56.9147 40.4332 56.8747 40.6634L56.7611 41.3175C56.7461 41.4115 56.7346 41.5076 56.7346 41.6029C56.7346 41.8729 56.8296 42.098 57.1297 42.098C57.262 42.098 57.3937 42.095 57.5256 42.0875ZM60.282 39.2236H60.7324C60.8352 39.2236 60.8882 39.2803 60.8734 39.3835L60.8731 39.3859L60.309 42.5877C60.2917 42.6856 60.24 42.7319 60.1364 42.7319H59.686C59.5858 42.7319 59.531 42.6592 59.5498 42.5654L60.1139 39.3635C60.1296 39.2744 60.1904 39.2239 60.282 39.2239V39.2236ZM63.602 39.8799L63.1245 42.5874C63.1076 42.6832 63.0523 42.7316 62.9519 42.7316H62.5015C62.4058 42.7316 62.3497 42.6582 62.3653 42.5651L62.8388 39.8799H62.1193C62.0244 39.8799 61.9641 39.8231 61.9782 39.7246L61.9786 39.7222L62.0424 39.3622C62.0599 39.2687 62.1177 39.2233 62.2103 39.2233H64.435C64.5401 39.2233 64.594 39.2825 64.5758 39.3854L64.5119 39.746C64.4936 39.8374 64.4339 39.8796 64.3441 39.8796L63.602 39.8799ZM66.9809 41.7901H66.0377L65.6898 42.616C65.6585 42.6861 65.6132 42.7316 65.5308 42.7316H65.0304C64.9576 42.7316 64.8978 42.6836 64.8978 42.608C64.8978 42.5862 64.9031 42.5672 64.9102 42.5468L64.9114 42.5438L66.1591 39.6895C66.2358 39.5142 66.3474 39.3556 66.5217 39.2671C66.6516 39.2012 66.789 39.187 66.9324 39.187C67.273 39.187 67.5162 39.3512 67.547 39.7097L67.793 42.5641V42.5671C67.793 42.5701 67.793 42.5731 67.793 42.5762C67.793 42.6754 67.7332 42.7315 67.6331 42.7315H67.169C67.0769 42.7315 67.0415 42.6805 67.0322 42.5969L67.0321 42.5951L66.9809 41.7901ZM70.7809 42.7027C70.7168 42.7172 70.6471 42.7251 70.5817 42.7324C70.4922 42.7423 70.4023 42.7497 70.3125 42.7555C70.2036 42.7626 70.0934 42.7679 69.9842 42.7679C69.4799 42.7679 69.019 42.565 69.019 41.985C69.019 41.9089 69.0202 41.8354 69.0336 41.7601L69.4522 39.3679C69.4686 39.2743 69.5275 39.2236 69.6248 39.2236H70.0752C70.1749 39.2236 70.2256 39.2914 70.2118 39.388L70.2114 39.3898L69.7931 41.7808C69.7857 41.8285 69.7802 41.8772 69.7802 41.9256C69.7802 41.9651 69.7844 42.0169 69.8124 42.0478C69.8547 42.0947 69.9585 42.0978 70.0161 42.0978H70.8532C70.9322 42.0978 70.9904 42.1563 70.9904 42.2349C70.9904 42.2409 70.9904 42.247 70.9904 42.2531V42.2584L70.9397 42.5531C70.9259 42.6495 70.869 42.6847 70.7809 42.7023V42.7027ZM74.8516 39.2236H75.302C75.4048 39.2236 75.4578 39.2803 75.4431 39.3835L75.4428 39.3859L74.8786 42.5877C74.8614 42.6856 74.8096 42.7319 74.706 42.7319H74.2556C74.1555 42.7319 74.1007 42.6592 74.1194 42.5654L74.6835 39.3635C74.6993 39.2744 74.76 39.2239 74.8516 39.2239V39.2236ZM77.2974 40.4353L76.9208 42.5873C76.9041 42.6828 76.8548 42.7316 76.7527 42.7316H76.3659C76.268 42.7316 76.2106 42.661 76.2298 42.5651L76.7757 39.4588C76.7985 39.329 76.9205 39.2236 77.0529 39.2236H77.5124C77.6515 39.2236 77.7071 39.2854 77.7471 39.4155L78.3887 41.6131L78.7867 39.3632C78.8019 39.2766 78.8602 39.2236 78.9501 39.2236H79.3414C79.4409 39.2236 79.4975 39.2862 79.4776 39.3856L78.927 42.4965C78.9041 42.6262 78.7823 42.7316 78.6498 42.7316H78.2222C78.1666 42.7316 78.1107 42.7314 78.0582 42.7104C77.9749 42.677 77.933 42.6036 77.9102 42.5216L77.2974 40.4353ZM80.2744 42.4927L80.8153 39.4346C80.8378 39.3224 80.8956 39.2612 81.0091 39.2426C81.0914 39.2293 81.1788 39.2225 81.2618 39.2159C81.3834 39.2063 81.5054 39.1991 81.6273 39.1941C81.7264 39.1899 81.8257 39.1872 81.9249 39.1872C82.6626 39.1872 83.1994 39.5588 83.1994 40.3341C83.1994 40.441 83.1891 40.5487 83.1712 40.6541L83.0575 41.3227C82.8912 42.3002 82.3058 42.7679 81.3198 42.7679C81.2269 42.7679 81.1339 42.7656 81.0411 42.7617C80.9182 42.757 80.7952 42.7496 80.6726 42.7398C80.5904 42.7331 80.5028 42.7264 80.4235 42.7127C80.3299 42.6993 80.2681 42.6422 80.2681 42.5444C80.2681 42.5254 80.2693 42.5105 80.2744 42.4927ZM84.8268 39.2236H85.2772C85.3801 39.2236 85.433 39.2803 85.4183 39.3835L85.418 39.3859L84.8538 42.5877C84.8366 42.6856 84.7849 42.7319 84.6812 42.7319H84.2309C84.1307 42.7319 84.0759 42.6592 84.0947 42.5654L84.6588 39.3635C84.6745 39.2744 84.7353 39.2239 84.8268 39.2239V39.2236ZM88.0733 41.7901H87.1301L86.7822 42.616C86.751 42.6861 86.7056 42.7316 86.6233 42.7316H86.1228C86.05 42.7316 85.9902 42.6836 85.9902 42.608C85.9902 42.5862 85.9956 42.5672 86.0026 42.5468L86.0038 42.5438L87.2515 39.6895C87.3281 39.5142 87.4398 39.3556 87.6141 39.2671C87.744 39.2012 87.8814 39.187 88.0248 39.187C88.3653 39.187 88.6085 39.3512 88.6394 39.7097L88.8854 42.5641V42.5671C88.8854 42.5701 88.8854 42.5731 88.8854 42.5762C88.8854 42.6754 88.8255 42.7315 88.7254 42.7315H88.2613C88.1693 42.7315 88.1339 42.6805 88.1246 42.5969L88.1244 42.5951L88.0733 41.7901ZM93.6806 40.9363L94.5414 42.5421L94.5419 42.5427C94.5537 42.5664 94.5623 42.59 94.5623 42.6169C94.5623 42.6969 94.492 42.7313 94.4206 42.7313H93.8474C93.7766 42.7313 93.7264 42.7106 93.6941 42.6455L93.0125 41.2707L92.7825 42.5871C92.7656 42.6838 92.705 42.7313 92.6098 42.7313H92.1594C92.0637 42.7313 92.007 42.6577 92.0233 42.5649L92.5828 39.3631C92.5994 39.2685 92.6603 39.2234 92.7555 39.2234H93.2059C93.3103 39.2234 93.3616 39.281 93.3421 39.3853L93.1344 40.5695L94.3171 39.2822C94.3606 39.2316 94.4165 39.2234 94.4797 39.2234H95.0348C95.1045 39.2234 95.1765 39.2533 95.1765 39.3332C95.1765 39.3808 95.1447 39.4281 95.1129 39.4599L93.6806 40.9363ZM96.5219 39.2236H96.9723C97.0751 39.2236 97.128 39.2803 97.1133 39.3835L97.113 39.3859L96.5489 42.5877C96.5316 42.6856 96.4799 42.7319 96.3762 42.7319H95.9258C95.8257 42.7319 95.7708 42.6592 95.7897 42.5654L96.3538 39.3635C96.3695 39.2744 96.4302 39.2239 96.5219 39.2239V39.2236ZM101.806 41.7901H100.863L100.515 42.616C100.484 42.6861 100.439 42.7316 100.356 42.7316H99.8561C99.7832 42.7316 99.7234 42.6836 99.7234 42.608C99.7234 42.5862 99.7287 42.5672 99.7358 42.5468L99.737 42.5438L100.985 39.6895C101.061 39.5142 101.173 39.3556 101.347 39.2671C101.477 39.2012 101.615 39.187 101.758 39.187C102.099 39.187 102.342 39.3512 102.373 39.7097L102.619 42.5641V42.5671C102.619 42.5701 102.619 42.5731 102.619 42.5762C102.619 42.6754 102.559 42.7315 102.459 42.7315H101.995C101.903 42.7315 101.867 42.6805 101.858 42.5969L101.858 42.5951L101.806 41.7901ZM104.677 41.4608L104.477 42.5874C104.461 42.6784 104.405 42.7316 104.309 42.7316H103.854C103.751 42.7316 103.699 42.6611 103.718 42.5651L104.269 39.4346C104.294 39.3118 104.374 39.2645 104.491 39.2471C104.788 39.203 105.102 39.1872 105.401 39.1872C106.079 39.1872 106.608 39.4212 106.608 40.1764C106.608 40.4037 106.56 40.6285 106.447 40.8271C106.159 41.3319 105.566 41.4763 105.024 41.4763C104.908 41.4763 104.792 41.4671 104.677 41.4608ZM108.429 40.4353L108.053 42.5873C108.036 42.6828 107.987 42.7316 107.885 42.7316H107.498C107.4 42.7316 107.343 42.661 107.362 42.5651L107.908 39.4588C107.931 39.329 108.052 39.2236 108.185 39.2236H108.644C108.784 39.2236 108.839 39.2854 108.879 39.4155L109.521 41.6131L109.919 39.3632C109.934 39.2766 109.992 39.2236 110.082 39.2236H110.473C110.573 39.2236 110.63 39.2862 110.61 39.3856L110.059 42.4965C110.036 42.6262 109.914 42.7316 109.782 42.7316H109.354C109.299 42.7316 109.243 42.7314 109.19 42.7104C109.107 42.677 109.065 42.6036 109.042 42.5216L108.429 40.4353ZM112.129 39.2236H112.579C112.682 39.2236 112.735 39.2803 112.72 39.3835L112.72 39.3859L112.156 42.5877C112.139 42.6856 112.087 42.7319 111.983 42.7319H111.533C111.433 42.7319 111.378 42.6592 111.397 42.5654L111.961 39.3635C111.976 39.2744 112.037 39.2239 112.129 39.2239V39.2236ZM115.6 42.4927L116.141 39.4346C116.164 39.3224 116.222 39.2612 116.335 39.2426C116.417 39.2293 116.505 39.2225 116.588 39.2159C116.71 39.2063 116.832 39.1991 116.953 39.1941C117.052 39.1899 117.152 39.1872 117.251 39.1872C117.989 39.1872 118.526 39.5588 118.526 40.3341C118.526 40.441 118.515 40.5487 118.497 40.6541L118.384 41.3227C118.217 42.3002 117.632 42.7679 116.646 42.7679C116.553 42.7679 116.46 42.7656 116.367 42.7617C116.244 42.757 116.121 42.7496 115.999 42.7398C115.917 42.7331 115.829 42.7264 115.75 42.7127C115.656 42.6993 115.594 42.6422 115.594 42.5444C115.594 42.5254 115.595 42.5105 115.6 42.4927ZM122 39.2236H122.455C122.554 39.2236 122.606 39.2865 122.591 39.3842L122.227 41.4278C122.147 41.8791 121.975 42.3362 121.559 42.5777C121.299 42.728 120.994 42.7679 120.699 42.7679C120.033 42.7679 119.57 42.4528 119.57 41.7485C119.57 41.6328 119.576 41.5182 119.598 41.4052L119.962 39.3631C119.976 39.2826 120.049 39.2236 120.13 39.2236H120.581C120.681 39.2236 120.736 39.2825 120.722 39.3835L120.721 39.3859L120.357 41.4279C120.338 41.5351 120.322 41.6487 120.322 41.7578C120.322 41.8416 120.332 41.9411 120.389 42.0073C120.475 42.1071 120.66 42.1164 120.781 42.1164C120.93 42.1164 121.094 42.096 121.213 41.9978C121.375 41.8649 121.433 41.601 121.468 41.4053L121.832 39.3633C121.848 39.2742 121.908 39.2238 122 39.2238V39.2236ZM125.013 40.9363L125.874 42.5421L125.874 42.5427C125.886 42.5664 125.895 42.59 125.895 42.6169C125.895 42.6969 125.824 42.7313 125.753 42.7313H125.18C125.109 42.7313 125.059 42.7106 125.026 42.6455L124.345 41.2707L124.115 42.5871C124.098 42.6838 124.037 42.7313 123.942 42.7313H123.492C123.396 42.7313 123.339 42.6577 123.355 42.5649L123.915 39.3631C123.932 39.2685 123.992 39.2234 124.088 39.2234H124.538C124.642 39.2234 124.694 39.281 124.674 39.3853L124.467 40.5695L125.649 39.2822C125.693 39.2316 125.749 39.2234 125.812 39.2234H126.367C126.437 39.2234 126.509 39.2533 126.509 39.3332C126.509 39.3808 126.477 39.4281 126.445 39.4599L125.013 40.9363ZM128.854 41.7901H127.91L127.563 42.616C127.531 42.6861 127.486 42.7316 127.404 42.7316H126.903C126.83 42.7316 126.771 42.6836 126.771 42.608C126.771 42.5862 126.776 42.5672 126.783 42.5468L126.784 42.5438L128.031 39.6895C128.108 39.5142 128.22 39.3556 128.394 39.2671C128.524 39.2012 128.661 39.187 128.805 39.187C129.145 39.187 129.388 39.3512 129.419 39.7097L129.665 42.5641V42.5671C129.665 42.5701 129.665 42.5731 129.665 42.5762C129.665 42.6754 129.605 42.7315 129.505 42.7315H129.041C128.949 42.7315 128.914 42.6805 128.904 42.5969L128.904 42.5951L128.854 41.7901ZM132.588 41.7901H131.645L131.297 42.616C131.266 42.6861 131.221 42.7316 131.138 42.7316H130.638C130.565 42.7316 130.505 42.6836 130.505 42.608C130.505 42.5862 130.51 42.5672 130.518 42.5468L130.518 42.5438L131.766 39.6895C131.842 39.5142 131.954 39.3556 132.128 39.2671C132.258 39.2012 132.396 39.187 132.539 39.187C132.88 39.187 133.123 39.3512 133.154 39.7097L133.4 42.5641V42.5671C133.4 42.5701 133.4 42.5731 133.4 42.5762C133.4 42.6754 133.34 42.7315 133.24 42.7315H132.776C132.684 42.7315 132.648 42.6805 132.639 42.5969L132.639 42.5951L132.588 41.7901ZM135.568 40.4353L135.191 42.5873C135.174 42.6828 135.125 42.7316 135.023 42.7316H134.636C134.538 42.7316 134.481 42.661 134.5 42.5651L135.046 39.4588C135.069 39.329 135.191 39.2236 135.323 39.2236H135.783C135.922 39.2236 135.977 39.2854 136.017 39.4155L136.659 41.6131L137.057 39.3632C137.072 39.2766 137.13 39.2236 137.22 39.2236H137.612C137.711 39.2236 137.768 39.2862 137.748 39.3856L137.197 42.4965C137.174 42.6262 137.053 42.7316 136.92 42.7316H136.492C136.437 42.7316 136.381 42.7314 136.328 42.7104C136.245 42.677 136.203 42.6036 136.18 42.5216L135.568 40.4353ZM51.1165 39.8591L50.7239 42.0971C50.8245 42.1019 50.9238 42.1071 51.0256 42.1071C51.5541 42.1071 51.8295 41.8184 51.9175 41.3011L52.0312 40.6325C52.0466 40.5421 52.0576 40.4486 52.0576 40.3568C52.0576 39.9383 51.8271 39.8481 51.4487 39.8481C51.3368 39.8481 51.2274 39.8534 51.1165 39.8591ZM66.9406 41.1429L66.8543 39.8618C66.854 39.8589 66.8537 39.8534 66.8531 39.8483C66.8519 39.8484 66.8502 39.8486 66.849 39.8488C66.8436 39.8548 66.8348 39.8748 66.832 39.8813L66.3052 41.1429H66.9406ZM81.5017 39.8591L81.1091 42.0971C81.2097 42.1019 81.309 42.1071 81.4108 42.1071C81.9393 42.1071 82.2147 41.8184 82.3027 41.3011L82.4165 40.6325C82.4318 40.5421 82.4428 40.4486 82.4428 40.3568C82.4428 39.9383 82.2124 39.8481 81.8339 39.8481C81.7221 39.8481 81.6126 39.8534 81.5017 39.8591ZM88.033 41.1429L87.9467 39.8618C87.9465 39.8589 87.9461 39.8534 87.9455 39.8483C87.9444 39.8484 87.9426 39.8486 87.942 39.8488C87.9366 39.8548 87.9278 39.8748 87.9251 39.8813L87.3982 41.1429H88.033ZM101.766 41.1429L101.68 39.8618C101.68 39.8589 101.679 39.8534 101.679 39.8483C101.678 39.8484 101.676 39.8486 101.675 39.8488C101.67 39.8548 101.661 39.8748 101.658 39.8813L101.131 41.1429H101.766ZM104.956 39.8523L104.786 40.8193C104.829 40.8211 104.873 40.8229 104.916 40.8241C104.982 40.8265 105.049 40.8288 105.115 40.8288C105.546 40.8288 105.856 40.6297 105.856 40.1761C105.856 40.1024 105.844 40.0219 105.796 39.9633C105.697 39.8444 105.45 39.8388 105.31 39.8388C105.245 39.8388 105.179 39.8411 105.114 39.8441C105.062 39.8465 105.008 39.8483 104.956 39.8523V39.8523ZM116.828 39.8591L116.435 42.0971C116.536 42.1019 116.635 42.1071 116.737 42.1071C117.265 42.1071 117.541 41.8184 117.629 41.3011L117.743 40.6325C117.758 40.5421 117.769 40.4486 117.769 40.3568C117.769 39.9383 117.538 39.8481 117.16 39.8481C117.048 39.8481 116.939 39.8534 116.828 39.8591ZM128.813 41.1429L128.727 39.8618C128.727 39.8589 128.727 39.8534 128.726 39.8483C128.725 39.8484 128.723 39.8486 128.722 39.8488C128.717 39.8548 128.708 39.8748 128.705 39.8813L128.179 41.1429H128.813ZM132.548 41.1429L132.462 39.8618C132.461 39.8589 132.461 39.8534 132.46 39.8483C132.459 39.8484 132.457 39.8486 132.456 39.8488C132.451 39.8548 132.442 39.8748 132.439 39.8813L131.912 41.1429H132.548Z" fill="white"/>
<path fill-rule="evenodd" clip-rule="evenodd" d="M94.1436 25.046C94.2848 25.2638 94.8494 27.4553 94.9906 27.918C95.5552 29.8101 96.1199 31.8518 96.6846 33.7166C96.9198 34.4652 97.2492 36.0442 97.6728 36.4797C98.0962 36.8745 98.4727 36.8745 99.1785 36.8745C99.7902 36.8745 100.402 36.8745 101.061 36.8745C102.519 36.8745 102.661 35.8264 102.802 34.9008C103.225 32.7638 103.555 30.654 103.931 28.517C104.072 27.7411 105.625 19.3155 105.578 18.9344C105.484 18.3355 104.966 18.3219 104.308 18.3219C101.72 18.3219 102.096 18.0088 101.531 21.1395C101.343 22.1603 99.9314 30.477 99.8373 30.6948C99.5079 29.742 99.2726 28.762 98.9903 27.8092C98.2374 25.4135 97.5786 22.977 96.8728 20.5814C96.5434 19.5197 96.4964 18.4172 95.4141 18.3355C94.8494 18.2947 94.1436 18.3219 93.5319 18.3219C92.4496 18.3219 91.5555 18.3763 91.3203 19.8328L89.0616 32.546C88.8734 33.5941 88.7322 34.6422 88.544 35.7039C88.2616 37.2284 89.6263 36.8745 90.9909 36.8745C91.6026 36.8745 91.9791 36.7111 92.1672 36.2075C92.2614 35.9353 93.3907 29.0886 93.5789 28.2311C93.626 27.7275 94.0025 25.3046 94.1436 25.046Z" fill="white"/>
<path fill-rule="evenodd" clip-rule="evenodd" d="M131.835 21.8065C133.435 21.6976 134.423 22.1196 134.611 23.6713C134.705 24.9644 134.329 26.5842 134.141 27.8364C133.67 30.586 133.341 33.1994 130.376 33.39C128.729 33.4989 127.741 33.0905 127.6 31.5252C127.506 30.2457 127.882 28.6123 128.071 27.3736C128.541 24.5697 128.823 22.0107 131.835 21.8065ZM131.553 18.1858C128.87 18.4308 127.082 19.6014 126 21.1395C124.683 23.0588 124.353 24.9644 123.93 27.605C123.459 30.2321 123.036 32.5597 124.447 34.7103C125.577 36.439 127.741 37.2693 130.659 37.0106C133.105 36.7929 134.799 35.8945 136.211 34.0569C137.482 32.3419 137.858 30.0551 138.282 27.5914C138.752 24.9916 139.128 22.6096 137.717 20.5134C136.54 18.7847 134.564 17.9136 131.553 18.1858Z" fill="white"/>
<path fill-rule="evenodd" clip-rule="evenodd" d="M58.0992 21.8204C59.6991 21.6843 60.7343 22.0518 60.9225 23.5763C61.0636 24.8285 60.6872 26.53 60.499 27.755C60.0285 30.4909 59.6991 33.1316 56.8287 33.3902C55.1817 33.5263 54.1465 33.1452 53.9583 31.6071C53.8171 30.3276 54.1936 28.7078 54.3818 27.4556C54.8524 24.6924 55.1347 22.0654 58.0992 21.8204ZM57.958 18.1861C55.1817 18.4311 53.5348 19.5336 52.3584 21.1126C51.0409 22.8957 50.7115 24.9919 50.288 27.5645C49.8174 30.1915 49.394 32.5191 50.8056 34.6969C51.8879 36.412 54.0995 37.2695 56.9699 37.0109C59.6991 36.7659 61.4401 35.6089 62.5224 34.0708C63.887 32.2196 64.1693 30.2187 64.6399 27.6189C65.0634 25.0463 65.4869 22.6235 64.0752 20.5545C62.6636 18.5128 60.4519 17.9547 57.958 18.1861Z" fill="white"/>
<path fill-rule="evenodd" clip-rule="evenodd" d="M109.625 29.0752C111.084 29.0752 112.542 29.0752 114.048 29.0752C114.472 29.0752 115.789 29.1433 116.165 28.9799C116.73 28.7077 116.73 28.2177 116.871 27.4963C116.965 26.8429 117.201 26.1624 116.683 25.7812C116.354 25.5226 115.177 25.6315 114.66 25.6315C113.766 25.6315 110.895 25.6723 110.237 25.6179C110.331 24.9918 110.472 24.2976 110.566 23.6578C110.707 22.95 110.848 22.3783 111.272 22.0244C111.742 21.6569 112.636 21.7522 113.295 21.7522C114.095 21.7522 114.895 21.7522 115.648 21.7522C116.213 21.7522 117.436 21.8475 117.812 21.6025C118.377 21.2622 118.33 20.6633 118.471 19.9146C118.612 19.0979 118.707 18.6351 117.812 18.4718C117.154 18.3493 116.448 18.254 115.742 18.2132C113.719 18.0635 110.001 17.8593 108.401 19.4654C107.366 20.4727 106.943 21.4936 106.66 22.95C106.378 24.2431 106.19 25.6179 105.954 26.9246C105.719 28.2313 105.484 29.5652 105.249 30.872C105.013 32.274 104.778 33.5807 105.437 34.8465C106.613 37.1333 109.437 37.1877 112.495 36.9972C113.248 36.9563 113.907 36.8611 114.566 36.7522C115.46 36.6161 115.554 36.4527 115.742 35.5816C115.836 34.969 116.118 34.0571 115.695 33.6487C115.366 33.322 114.142 33.4445 113.53 33.4445C112.778 33.4445 112.025 33.4445 111.225 33.4445C109.013 33.4445 108.872 33.5807 109.295 31.0625C109.342 30.627 109.531 29.4019 109.625 29.0752Z" fill="white"/>
<path fill-rule="evenodd" clip-rule="evenodd" d="M73.8627 18.3494C73.251 18.4855 73.1098 18.8258 73.0157 19.4792C72.9216 20.0373 72.8275 20.5953 72.7334 21.1534C72.5452 22.256 72.357 23.3721 72.1688 24.4746C71.7452 26.7206 71.3688 28.9529 70.9924 31.1852C70.1924 35.8131 72.7334 37.1743 76.5449 37.0518C77.6742 37.0109 79.18 36.9429 80.1681 36.6979C80.8269 36.5481 80.921 36.2623 81.0152 35.5817C81.1093 35.1733 81.2975 34.2614 81.1563 33.9075C80.9681 33.3494 80.3564 33.4447 79.6976 33.4447C78.7565 33.4447 76.4978 33.4855 75.745 33.4447C74.9921 33.3902 74.8509 33.1588 74.898 32.3694C74.945 31.6343 76.5449 22.8413 76.639 22.2832C76.7331 21.7659 77.2037 19.275 77.1566 18.9347C77.0154 18.3222 76.4508 18.3222 75.792 18.3222C75.3685 18.3222 74.1921 18.2814 73.8627 18.3494Z" fill="#FFCC28"/>
<path fill-rule="evenodd" clip-rule="evenodd" d="M86.3795 18.3494C85.5325 18.5128 85.5795 19.4792 85.3913 20.5409L82.9915 34.1253C82.8973 34.5744 82.8503 35.0236 82.7562 35.4864C82.4739 37.0381 83.1797 36.8748 84.4032 36.8748C86.7559 36.8748 86.5677 37.0245 86.9912 34.6425C87.1324 33.7441 87.3206 32.8322 87.4618 31.9338L89.6263 19.7106C89.7204 19.1933 89.7675 18.7578 89.391 18.4855C89.1087 18.2542 88.4499 18.3222 87.9794 18.3222C87.6029 18.3222 86.7559 18.2814 86.3795 18.3494Z" fill="white"/>
<path fill-rule="evenodd" clip-rule="evenodd" d="M119.13 26.5162C118.706 26.5979 118.706 26.8973 118.612 27.3193C118.518 27.8093 118.471 28.0679 119.036 28.0679L121.718 28.0543C122.142 27.9862 122.189 27.6868 122.236 27.2512C122.424 26.3392 122.142 26.5162 120.448 26.5162C120.165 26.5162 119.365 26.4754 119.13 26.5162Z" fill="white"/>
<path fill-rule="evenodd" clip-rule="evenodd" d="M66.8985 26.5301C66.5221 26.5981 66.475 26.9112 66.3809 27.3059C66.1927 28.2315 66.3809 28.0682 68.122 28.0682C69.6278 28.0682 69.7689 28.2587 69.9571 27.2651C70.0512 26.7479 70.0512 26.5165 69.4395 26.5165C68.9219 26.5165 67.3221 26.4348 66.8985 26.5301Z" fill="white"/>
<path fill-rule="evenodd" clip-rule="evenodd" d="M28.8761 16.3271C36.3123 16.3271 42.3405 22.3525 42.3405 29.7851C42.3405 37.2177 36.3123 43.243 28.8761 43.243C21.4399 43.243 15.4117 37.2177 15.4117 29.7851C15.4117 22.3525 21.4399 16.3271 28.8761 16.3271ZM28.8761 21.0759C33.6884 21.0759 37.5895 24.9751 37.5895 29.7851C37.5895 34.5951 33.6884 38.4944 28.8761 38.4944C24.0639 38.4944 20.1627 34.5951 20.1627 29.7851C20.1627 24.9751 24.0639 21.0759 28.8761 21.0759Z" fill="white"/>
<path fill-rule="evenodd" clip-rule="evenodd" d="M38.158 14.6889L31.2254 14.6777L19.8715 44.2025C19.4303 45.3424 20.1201 46.5451 21.7426 46.663L31.4373 46.6518L34.8869 41.8308L27.7151 41.8312L38.158 14.6889Z" fill="#FFCC28"/>
<path fill-rule="evenodd" clip-rule="evenodd" d="M28.8761 26.6905C30.5861 26.6905 31.9723 28.076 31.9723 29.7852C31.9723 31.4943 30.5861 32.8799 28.8761 32.8799C27.1661 32.8799 25.7799 31.4943 25.7799 29.7852C25.7799 28.076 27.1661 26.6905 28.8761 26.6905ZM28.8761 22.0591C33.1451 22.0591 36.6059 25.5182 36.6059 29.7852C36.6059 34.0522 33.1451 37.5113 28.8761 37.5113C24.6071 37.5113 21.1462 34.0522 21.1462 29.7852C21.1462 25.5182 24.6071 22.0591 28.8761 22.0591Z" fill="white"/>
</g>
<defs>
<clipPath id="clip0_192_2094">
<rect width="154" height="60" fill="white"/>
</clipPath>
</defs>
</svg>
