<svg width="32" height="32" viewBox="0 0 32 32" fill="none" xmlns="http://www.w3.org/2000/svg">
<path d="M25.2265 10.7666H25.4004L25.3129 10.6163C24.0211 8.39598 21.9621 6.6733 19.4856 5.82535L19.2436 5.74249L19.3652 5.96751C20.161 7.43983 20.7715 9.03212 21.1963 10.6914L21.2155 10.7666H21.2932H25.2265ZM16.0821 5.32974L15.9998 5.21083L15.9176 5.32974C14.8051 6.9381 13.9338 8.72088 13.3574 10.6378L13.3187 10.7666H13.4532H18.5465H18.681L18.6423 10.6378C18.0658 8.72088 17.1945 6.9381 16.0821 5.32974ZM5.58282 18.6909L5.60176 18.7666H5.67984H10.1865H10.2994L10.2858 18.6546C10.1793 17.7764 10.0998 16.9009 10.0998 16C10.0998 15.099 10.1793 14.2235 10.2858 13.3453L10.2994 13.2333H10.1865H5.67984H5.60176L5.58282 13.309C5.3679 14.1687 5.23317 15.0703 5.23317 16C5.23317 16.9296 5.3679 17.8312 5.58282 18.6909ZM10.8034 21.3085L10.7841 21.2333H10.7065H6.77317V21.3333L6.6866 21.3834C7.97861 23.6174 10.0378 25.3267 12.5141 26.1746L12.7561 26.2574L12.6345 26.0324C11.8386 24.5601 11.2282 22.9678 10.8034 21.3085ZM6.6866 10.6166L6.59982 10.7666H6.77317H10.7065V10.6666L10.8034 10.6914C11.2282 9.03212 11.8386 7.43983 12.6345 5.96751L12.7561 5.74249L12.5141 5.82535C10.0378 6.67323 7.97861 8.38247 6.6866 10.6166ZM15.9176 26.6702L15.9998 26.7891L16.0821 26.6702C17.1945 25.0618 18.0658 23.279 18.6423 21.3621L18.681 21.2333H18.5465H13.4532H13.3187L13.3574 21.3621C13.9338 23.279 14.8051 25.0618 15.9176 26.6702ZM19.1198 18.7666H19.2071L19.2189 18.6801C19.3392 17.7984 19.4332 16.9133 19.4332 16C19.4332 15.0867 19.3392 14.1882 19.2189 13.3196L19.2069 13.2333H19.1198H12.8798H12.7927L12.7808 13.3196C12.6605 14.1882 12.5665 15.0867 12.5665 16C12.5665 16.9133 12.6605 17.7984 12.7808 18.6801L12.7925 18.7666H12.8798H19.1198ZM21.2932 21.2333H21.2155L21.1963 21.3085C20.7715 22.9678 20.161 24.5601 19.3652 26.0324L19.4532 26.08L19.4856 26.1746C21.9621 25.3266 24.0211 23.6039 25.3129 21.3836L25.4004 21.2333H25.2265H21.2932ZM21.7139 18.6546L21.7003 18.7666H21.8132H26.3198H26.3979L26.4169 18.6909C26.6318 17.8312 26.7665 16.9296 26.7665 16C26.7665 15.0703 26.6318 14.1687 26.4169 13.309L26.3979 13.2333H26.3198H21.8132H21.7003L21.7139 13.3453C21.8203 14.2235 21.8998 15.099 21.8998 16C21.8998 16.9009 21.8203 17.7764 21.7139 18.6546ZM2.7665 16C2.7665 8.69506 8.68186 2.76663 15.9865 2.76663C23.3047 2.76663 29.2332 8.69525 29.2332 16C29.2332 23.3047 23.3047 29.2333 15.9865 29.2333C8.68186 29.2333 2.7665 23.3049 2.7665 16Z" fill="#1B325E" stroke="white" stroke-width="0.2"/>
</svg>
