<svg width="28" height="28" viewBox="0 0 28 28" fill="none" xmlns="http://www.w3.org/2000/svg">
<path d="M23.3333 20.9H4.66667C4.08023 20.9 3.6 20.4198 3.6 19.8333C3.6 19.2469 4.08023 18.7667 4.66667 18.7667H23.3333C23.9198 18.7667 24.4 19.2469 24.4 19.8333C24.4 20.4198 23.9198 20.9 23.3333 20.9ZM23.3333 15.0667H4.66667C4.08023 15.0667 3.6 14.5864 3.6 14C3.6 13.4136 4.08023 12.9333 4.66667 12.9333H23.3333C23.9198 12.9333 24.4 13.4136 24.4 14C24.4 14.5864 23.9198 15.0667 23.3333 15.0667ZM4.66667 9.23333C4.08023 9.23333 3.6 8.7531 3.6 8.16667C3.6 7.58023 4.08023 7.1 4.66667 7.1H23.3333C23.9198 7.1 24.4 7.58023 24.4 8.16667C24.4 8.7531 23.9198 9.23333 23.3333 9.23333H4.66667Z" fill="#F8F9FA" stroke="#1B325E" stroke-width="0.2"/>
</svg>
