<svg width="36" height="36" viewBox="0 0 36 36" fill="none" xmlns="http://www.w3.org/2000/svg">
<circle cx="18" cy="18" r="17.5" stroke="#1B325E" stroke-dasharray="2 2"/>
<circle cx="18" cy="18" r="14" fill="#FFE389"/>
<path d="M14.9403 10.3709C13.6617 10.228 12.3383 10.228 11.0597 10.3709C10.7052 10.4106 10.4245 10.691 10.3843 11.0349C10.2316 12.3405 10.2316 13.6595 10.3843 14.9652C10.4245 15.3091 10.7052 15.5895 11.0597 15.6291C12.3383 15.772 13.6617 15.772 14.9403 15.6291C15.2948 15.5895 15.5755 15.3091 15.6157 14.9652C15.7684 13.6595 15.7684 12.3405 15.6157 11.0349C15.5755 10.691 15.2948 10.4106 14.9403 10.3709ZM10.9153 9.07899C12.2899 8.92536 13.7101 8.92536 15.0847 9.07899C16.0301 9.18466 16.7953 9.929 16.9069 10.8839C17.0714 12.2899 17.0714 13.7102 16.9069 15.1162C16.7953 16.0711 16.0301 16.8154 15.0847 16.9211C13.7101 17.0747 12.2899 17.0747 10.9153 16.9211C9.9699 16.8154 9.20476 16.0711 9.09308 15.1162C8.92864 13.7102 8.92864 12.2899 9.09308 10.8839C9.20476 9.929 9.9699 9.18466 10.9153 9.07899ZM14.9403 20.3709C13.6617 20.228 12.3383 20.228 11.0597 20.3709C10.7052 20.4106 10.4245 20.691 10.3843 21.0349C10.2316 22.3405 10.2316 23.6595 10.3843 24.9652C10.4245 25.3091 10.7052 25.5895 11.0597 25.6291C12.3383 25.772 13.6617 25.772 14.9403 25.6291C15.2948 25.5895 15.5755 25.3091 15.6157 24.9652C15.7684 23.6595 15.7684 22.3405 15.6157 21.0349C15.5755 20.691 15.2948 20.4106 14.9403 20.3709ZM10.9153 19.079C12.2899 18.9254 13.7101 18.9254 15.0847 19.079C16.0301 19.1847 16.7953 19.929 16.9069 20.8839C17.0714 22.2899 17.0714 23.7102 16.9069 25.1162C16.7953 26.0711 16.0301 26.8154 15.0847 26.9211C13.7101 27.0747 12.2899 27.0747 10.9153 26.9211C9.9699 26.8154 9.20476 26.0711 9.09308 25.1162C8.92864 23.7102 8.92864 22.2899 9.09308 20.8839C9.20476 19.929 9.9699 19.1847 10.9153 19.079ZM24.9403 10.3709C23.6617 10.228 22.3383 10.228 21.0597 10.3709C20.7052 10.4106 20.4245 10.691 20.3843 11.0349C20.2316 12.3405 20.2316 13.6595 20.3843 14.9652C20.4245 15.3091 20.7052 15.5895 21.0597 15.6291C22.3383 15.772 23.6617 15.772 24.9403 15.6291C25.2948 15.5895 25.5755 15.3091 25.6157 14.9652C25.7684 13.6595 25.7684 12.3405 25.6157 11.0349C25.5755 10.691 25.2948 10.4106 24.9403 10.3709ZM20.9153 9.07899C22.2899 8.92536 23.7101 8.92536 25.0847 9.07899C26.0301 9.18466 26.7953 9.929 26.9069 10.8839C27.0714 12.2899 27.0714 13.7102 26.9069 15.1162C26.7953 16.0711 26.0301 16.8154 25.0847 16.9211C23.7101 17.0747 22.2899 17.0747 20.9153 16.9211C19.9699 16.8154 19.2048 16.0711 19.0931 15.1162C18.9286 13.7102 18.9286 12.2899 19.0931 10.8839C19.2048 9.929 19.9699 9.18466 20.9153 9.07899ZM24.9403 20.3709C23.6617 20.228 22.3383 20.228 21.0597 20.3709C20.7052 20.4106 20.4245 20.691 20.3843 21.0349C20.2316 22.3405 20.2316 23.6595 20.3843 24.9652C20.4245 25.3091 20.7052 25.5895 21.0597 25.6291C22.3383 25.772 23.6617 25.772 24.9403 25.6291C25.2948 25.5895 25.5755 25.3091 25.6157 24.9652C25.7684 23.6595 25.7684 22.3405 25.6157 21.0349C25.5755 20.691 25.2948 20.4106 24.9403 20.3709ZM20.9153 19.079C22.2899 18.9254 23.7101 18.9254 25.0847 19.079C26.0301 19.1847 26.7953 19.929 26.9069 20.8839C27.0714 22.2899 27.0714 23.7102 26.9069 25.1162C26.7953 26.0711 26.0301 26.8154 25.0847 26.9211C23.7101 27.0747 22.2899 27.0747 20.9153 26.9211C19.9699 26.8154 19.2048 26.0711 19.0931 25.1162C18.9286 23.7102 18.9286 22.2899 19.0931 20.8839C19.2048 19.929 19.9699 19.1847 20.9153 19.079Z" fill="#1B325E" stroke="#FFE389" stroke-width="0.2"/>
</svg>
