<svg width="24" height="24" viewBox="0 0 24 24" fill="none" xmlns="http://www.w3.org/2000/svg">
<path fill-rule="evenodd" clip-rule="evenodd" d="M19.53 20.5036C21.07 20.5036 22.03 18.8336 21.26 17.5036L13.73 4.49359C12.96 3.16359 11.04 3.16359 10.27 4.49359L2.74 17.5036C1.97 18.8336 2.93 20.5036 4.47 20.5036H19.53ZM12 13.5036C11.45 13.5036 11 13.0536 11 12.5036V10.5036C11 9.95359 11.45 9.50359 12 9.50359C12.55 9.50359 13 9.95359 13 10.5036V12.5036C13 13.0536 12.55 13.5036 12 13.5036ZM11 15.5036V17.5036H13V15.5036H11Z" fill="#FFCC28"/>
</svg>
