<svg width="20" height="20" viewBox="0 0 20 20" fill="none" xmlns="http://www.w3.org/2000/svg">
<g clip-path="url(#clip0_192_2124)">
<path d="M10 1.6665C6.50004 1.6665 3.33337 4.34984 3.33337 8.49984C3.33337 11.1498 5.37504 14.2665 9.45004 17.8582C9.76671 18.1332 10.2417 18.1332 10.5584 17.8582C14.625 14.2665 16.6667 11.1498 16.6667 8.49984C16.6667 4.34984 13.5 1.6665 10 1.6665ZM10 9.99984C9.08337 9.99984 8.33337 9.24984 8.33337 8.33317C8.33337 7.4165 9.08337 6.6665 10 6.6665C10.9167 6.6665 11.6667 7.4165 11.6667 8.33317C11.6667 9.24984 10.9167 9.99984 10 9.99984Z" fill="#08090A"/>
</g>
<defs>
<clipPath id="clip0_192_2124">
<rect width="20" height="20" fill="white"/>
</clipPath>
</defs>
</svg>
