<svg width="20" height="20" viewBox="0 0 20 20" fill="none" xmlns="http://www.w3.org/2000/svg">
<path d="M16.6666 3.3335H3.33329C2.41663 3.3335 1.66663 4.0835 1.66663 5.00016V15.0002C1.66663 15.9168 2.41663 16.6668 3.33329 16.6668H16.6666C17.5833 16.6668 18.3333 15.9168 18.3333 15.0002V5.00016C18.3333 4.0835 17.5833 3.3335 16.6666 3.3335ZM16.3333 6.87516L10.8833 10.2835C10.3416 10.6252 9.65829 10.6252 9.11663 10.2835L3.66663 6.87516C3.45829 6.74183 3.33329 6.51683 3.33329 6.27516C3.33329 5.71683 3.94163 5.3835 4.41663 5.67516L9.99996 9.16683L15.5833 5.67516C16.0583 5.3835 16.6666 5.71683 16.6666 6.27516C16.6666 6.51683 16.5416 6.74183 16.3333 6.87516Z" fill="#08090A"/>
</svg>
