<svg width="37" height="36" viewBox="0 0 37 36" fill="none" xmlns="http://www.w3.org/2000/svg">
<circle cx="18.5" cy="18" r="17.5" stroke="#1B325E" stroke-dasharray="2 2"/>
<circle cx="18.5" cy="18" r="14" fill="#F0D2F8"/>
<path d="M23 7.875H14C13.5035 7.87746 13.028 8.0758 12.6769 8.4269C12.3258 8.778 12.1275 9.25348 12.125 9.75V26.25C12.1275 26.7465 12.3258 27.222 12.6769 27.5731C13.028 27.9242 13.5035 28.1225 14 28.125H23C23.4965 28.1225 23.972 27.9242 24.3231 27.5731C24.6742 27.222 24.8725 26.7465 24.875 26.25V9.75C24.8725 9.25348 24.6742 8.778 24.3231 8.4269C23.972 8.0758 23.4965 7.87746 23 7.875ZM12.875 11.625H24.125V24.375H12.875V11.625ZM14 8.625H23C23.2984 8.625 23.5845 8.74353 23.7955 8.9545C24.0065 9.16548 24.125 9.45163 24.125 9.75V10.875H12.875V9.75C12.875 9.45163 12.9935 9.16548 13.2045 8.9545C13.4155 8.74353 13.7016 8.625 14 8.625ZM23 27.375H14C13.7016 27.375 13.4155 27.2565 13.2045 27.0455C12.9935 26.8345 12.875 26.5484 12.875 26.25V25.125H24.125V26.25C24.125 26.5484 24.0065 26.8345 23.7955 27.0455C23.5845 27.2565 23.2984 27.375 23 27.375Z" fill="#1B325E" stroke="#1B325E" stroke-width="0.2"/>
</svg>
