<svg width="26" height="30" viewBox="0 0 26 30" fill="none" xmlns="http://www.w3.org/2000/svg">
<g clip-path="url(#clip0_192_2220)">
<path fill-rule="evenodd" clip-rule="evenodd" d="M-13.2064 -56.262H127.77V86.3923H-13.2064V-56.262Z" fill="#1B325E"/>
<path fill-rule="evenodd" clip-rule="evenodd" d="M-10.0482 -52.0682V82.1979H124.613V-52.0682H-10.0482ZM-9.43601 -51.2551V81.3848H124V-51.2551H-9.43601Z" fill="#1B325E"/>
<path fill-rule="evenodd" clip-rule="evenodd" d="M13.2072 1.78381C20.0092 1.78381 25.5234 7.36285 25.5234 14.2449C25.5234 21.1269 20.0092 26.7059 13.2072 26.7059C6.40511 26.7059 0.89093 21.1269 0.89093 14.2449C0.89093 7.36285 6.40511 1.78381 13.2072 1.78381ZM13.2072 6.18078C17.6091 6.18078 21.1776 9.79122 21.1776 14.2449C21.1776 18.6986 17.6091 22.309 13.2072 22.309C8.8053 22.309 5.23678 18.6986 5.23678 14.2449C5.23678 9.79122 8.8053 6.18078 13.2072 6.18078Z" fill="white"/>
<path fill-rule="evenodd" clip-rule="evenodd" d="M21.6974 0.267426L15.3559 0.25708L4.97024 27.5949C4.56662 28.6503 5.19765 29.7639 6.68176 29.873L15.5498 29.8627L18.7052 25.3988L12.1449 25.3992L21.6974 0.267426Z" fill="#FFCC28"/>
<path fill-rule="evenodd" clip-rule="evenodd" d="M13.2074 11.3802C14.7716 11.3802 16.0396 12.6631 16.0396 14.2457C16.0396 15.8283 14.7716 17.1112 13.2074 17.1112C11.6432 17.1112 10.3752 15.8283 10.3752 14.2457C10.3752 12.6631 11.6432 11.3802 13.2074 11.3802ZM13.2074 7.09192C17.1124 7.09192 20.2781 10.2948 20.2781 14.2458C20.2781 18.1967 17.1124 21.3995 13.2074 21.3995C9.30243 21.3995 6.13672 18.1967 6.13672 14.2458C6.13672 10.2948 9.30243 7.09192 13.2074 7.09192Z" fill="white"/>
</g>
<defs>
<clipPath id="clip0_192_2220">
<rect width="26" height="30" fill="white"/>
</clipPath>
</defs>
</svg>
