<svg width="157" height="44" viewBox="0 0 157 44" fill="none" xmlns="http://www.w3.org/2000/svg">
<g clip-path="url(#clip0_239_996)">
<path fill-rule="evenodd" clip-rule="evenodd" d="M-16.9231 -73.3321H173.846V117.868H-16.9231V-73.3321Z" fill="#1B325E"/>
<path fill-rule="evenodd" clip-rule="evenodd" d="M-12.6499 -67.7108V112.247H169.572V-67.7108H-12.6499ZM-11.8215 -66.621V111.157H168.744V-66.621H-11.8215Z" fill="#1B325E"/>
<path fill-rule="evenodd" clip-rule="evenodd" d="M44.83 36.9401L45.4996 33.1449C45.5273 33.0056 45.599 32.9297 45.7395 32.9067C45.8412 32.8901 45.9494 32.8817 46.0523 32.8735C46.2028 32.8615 46.3538 32.8526 46.5047 32.8464C46.6273 32.8413 46.7502 32.8379 46.873 32.8379C47.7862 32.8379 48.4506 33.2991 48.4506 34.2612C48.4506 34.3939 48.4379 34.5275 48.4157 34.6583L48.2749 35.488C48.0691 36.7012 47.3444 37.2817 46.1239 37.2817C46.009 37.2817 45.8939 37.2787 45.779 37.274C45.6269 37.2681 45.4746 37.2589 45.3229 37.2467C45.2212 37.2384 45.1128 37.2301 45.0145 37.2131C44.8987 37.1965 44.8223 37.1256 44.8223 37.0042C44.8223 36.9806 44.8234 36.9622 44.83 36.9401ZM50.5213 32.8831H51.0788C51.2061 32.8831 51.2717 32.9535 51.2535 33.0815L51.2531 33.0845L50.5548 37.0579C50.5334 37.1795 50.4695 37.2369 50.3411 37.2369H49.7837C49.6596 37.2369 49.5918 37.1467 49.615 37.0303L50.3133 33.0567C50.3328 32.9461 50.408 32.8835 50.5213 32.8835V32.8831ZM54.2824 36.4373L54.5248 35.0601C54.5452 34.9444 54.6105 34.8812 54.7328 34.8812H55.2904C55.417 34.8812 55.4824 34.9624 55.459 35.0877L55.127 36.9825C55.1102 37.0919 55.0434 37.1608 54.9354 37.1839L54.9337 37.1843C54.5213 37.2637 54.0932 37.2817 53.6742 37.2817C53.3747 37.2817 53.0593 37.1701 52.8265 36.9817C52.4859 36.706 52.3499 36.3049 52.3499 35.8754C52.3499 35.7338 52.3641 35.5929 52.3905 35.4554L52.5313 34.6425C52.7208 33.5484 53.2873 32.8379 54.44 32.8379C54.6869 32.8379 54.9346 32.8515 55.1802 32.8764C55.3357 32.8922 55.4948 32.912 55.6486 32.9409C55.7699 32.9637 55.8231 33.0282 55.8024 33.152L55.7346 33.5318C55.7074 33.6681 55.6417 33.7276 55.4971 33.7141C55.1492 33.682 54.8006 33.6694 54.4513 33.6694C54.2442 33.6694 54.0238 33.6997 53.8554 33.8304C53.6138 34.0178 53.5262 34.3841 53.4767 34.6699L53.3361 35.4816C53.3175 35.5983 53.3033 35.7176 53.3033 35.8358C53.3033 36.1709 53.4209 36.4502 53.7924 36.4502C53.9561 36.4502 54.1192 36.4466 54.2824 36.4373ZM57.6942 32.8831H58.2517C58.379 32.8831 58.4446 32.9535 58.4263 33.0815L58.426 33.0845L57.7276 37.0579C57.7063 37.1795 57.6423 37.2369 57.514 37.2369H56.9565C56.8325 37.2369 56.7647 37.1467 56.7879 37.0303L57.4862 33.0567C57.5057 32.9461 57.5808 32.8835 57.6942 32.8835V32.8831ZM61.8037 33.6975L61.2127 37.0576C61.1918 37.1765 61.1234 37.2365 60.9991 37.2365H60.4415C60.3231 37.2365 60.2537 37.1455 60.273 37.0299L60.8591 33.6975H59.9685C59.8511 33.6975 59.7764 33.627 59.7939 33.5048L59.7943 33.5018L59.8733 33.0551C59.895 32.939 59.9665 32.8827 60.0811 32.8827H62.8349C62.965 32.8827 63.0317 32.9562 63.0091 33.0838L62.93 33.5314C62.9073 33.6448 62.8334 33.6972 62.7223 33.6972L61.8037 33.6975ZM65.9861 36.0681H64.8186L64.388 37.0931C64.3494 37.1802 64.2932 37.2365 64.1913 37.2365H63.5719C63.4817 37.2365 63.4077 37.177 63.4077 37.0832C63.4077 37.0561 63.4143 37.0326 63.423 37.0072L63.4245 37.0035L64.969 33.4613C65.0639 33.2437 65.2021 33.0468 65.4178 32.9371C65.5786 32.8552 65.7486 32.8376 65.9261 32.8376C66.3477 32.8376 66.6487 33.0415 66.6869 33.4863L66.9913 37.0287V37.0324C66.9913 37.0361 66.9913 37.0399 66.9913 37.0437C66.9913 37.1668 66.9174 37.2364 66.7934 37.2364H66.219C66.1051 37.2364 66.0612 37.1731 66.0497 37.0694L66.0495 37.0672L65.9861 36.0681ZM70.6898 37.2007C70.6104 37.2187 70.5242 37.2285 70.4433 37.2375C70.3325 37.2498 70.2212 37.259 70.11 37.2662C69.9752 37.2751 69.8388 37.2817 69.7037 37.2817C69.0794 37.2817 68.509 37.0298 68.509 36.31C68.509 36.2156 68.5104 36.1244 68.5271 36.031L69.0452 33.0621C69.0654 32.9459 69.1384 32.8831 69.2588 32.8831H69.8163C69.9397 32.8831 70.0024 32.9672 69.9854 33.0871L69.9849 33.0893L69.4671 36.0566C69.458 36.1158 69.4512 36.1763 69.4512 36.2363C69.4512 36.2853 69.4563 36.3496 69.491 36.3879C69.5434 36.4462 69.6718 36.4499 69.7431 36.4499H70.7793C70.8771 36.4499 70.9491 36.5226 70.9491 36.6201C70.9491 36.6276 70.9491 36.6352 70.9491 36.6427V36.6493L70.8863 37.0151C70.8693 37.1346 70.7988 37.1784 70.6898 37.2002V37.2007ZM75.7286 32.8831H76.2861C76.4133 32.8831 76.4789 32.9535 76.4607 33.0815L76.4603 33.0845L75.762 37.0579C75.7406 37.1795 75.6766 37.2369 75.5483 37.2369H74.9908C74.8669 37.2369 74.799 37.1467 74.8223 37.0303L75.5205 33.0567C75.54 32.9461 75.6152 32.8835 75.7286 32.8835V32.8831ZM78.7559 34.3868L78.2898 37.0575C78.2691 37.1759 78.2081 37.2365 78.0817 37.2365H77.603C77.4818 37.2365 77.4107 37.1489 77.4345 37.0299L78.1102 33.1749C78.1384 33.0138 78.2894 32.8831 78.4534 32.8831H79.0221C79.1943 32.8831 79.2631 32.9597 79.3126 33.1212L80.1068 35.8485L80.5994 33.0563C80.6183 32.9489 80.6904 32.8831 80.8017 32.8831H81.286C81.4093 32.8831 81.4792 32.9608 81.4546 33.0841L80.7731 36.9448C80.7448 37.1057 80.594 37.2365 80.43 37.2365H79.9007C79.8319 37.2365 79.7627 37.2364 79.6977 37.2103C79.5946 37.1688 79.5427 37.0777 79.5145 36.9759L78.7559 34.3868ZM82.4409 36.9401L83.1105 33.1449C83.1382 33.0056 83.2099 32.9297 83.3504 32.9067C83.4521 32.8901 83.5603 32.8817 83.6631 32.8735C83.8137 32.8615 83.9647 32.8526 84.1156 32.8464C84.2382 32.8413 84.3611 32.8379 84.4839 32.8379C85.3971 32.8379 86.0615 33.2991 86.0615 34.2612C86.0615 34.3939 86.0488 34.5275 86.0266 34.6583L85.8858 35.488C85.68 36.7012 84.9553 37.2817 83.7349 37.2817C83.6199 37.2817 83.5048 37.2787 83.3899 37.274C83.2378 37.2681 83.0855 37.2589 82.9338 37.2467C82.8321 37.2384 82.7237 37.2301 82.6255 37.2131C82.5096 37.1965 82.4332 37.1256 82.4332 37.0042C82.4332 36.9806 82.4346 36.9622 82.4409 36.9401ZM88.0759 32.8831H88.6334C88.7607 32.8831 88.8263 32.9535 88.8081 33.0815L88.8076 33.0845L88.1093 37.0579C88.088 37.1795 88.024 37.2369 87.8957 37.2369H87.3382C87.2142 37.2369 87.1464 37.1467 87.1696 37.0303L87.8679 33.0567C87.8874 32.9461 87.9626 32.8835 88.0759 32.8835V32.8831ZM92.0944 36.0681H90.9269L90.4963 37.0931C90.4577 37.1802 90.4014 37.2365 90.2996 37.2365H89.6801C89.5899 37.2365 89.516 37.177 89.516 37.0832C89.516 37.0561 89.5226 37.0326 89.5313 37.0072L89.5328 37.0035L91.0772 33.4613C91.172 33.2437 91.3102 33.0468 91.526 32.9371C91.6868 32.8552 91.8569 32.8376 92.0344 32.8376C92.4559 32.8376 92.7569 33.0415 92.7952 33.4863L93.0996 37.0287V37.0324C93.0996 37.0361 93.0996 37.0399 93.0996 37.0437C93.0996 37.1668 93.0255 37.2364 92.9016 37.2364H92.3272C92.2132 37.2364 92.1694 37.1731 92.1579 37.0694L92.1577 37.0672L92.0944 36.0681ZM99.0352 35.0086L100.101 37.0013L100.101 37.0021C100.116 37.0315 100.127 37.0609 100.127 37.0942C100.127 37.1935 100.039 37.2362 99.9511 37.2362H99.2416C99.154 37.2362 99.0918 37.2105 99.0519 37.1297L98.2082 35.4235L97.9234 37.0572C97.9025 37.1773 97.8276 37.2362 97.7098 37.2362H97.1522C97.0337 37.2362 96.9636 37.1448 96.9837 37.0297L97.6763 33.0562C97.6968 32.9388 97.7722 32.8828 97.89 32.8828H98.4475C98.5767 32.8828 98.6403 32.9543 98.6161 33.0837L98.359 34.5533L99.823 32.9558C99.8768 32.893 99.946 32.8828 100.024 32.8828H100.711C100.798 32.8828 100.887 32.92 100.887 33.0191C100.887 33.0782 100.847 33.1368 100.808 33.1763L99.0352 35.0086ZM102.552 32.8831H103.11C103.237 32.8831 103.302 32.9535 103.284 33.0815L103.284 33.0845L102.585 37.0579C102.564 37.1795 102.5 37.2369 102.372 37.2369H101.814C101.69 37.2369 101.622 37.1467 101.646 37.0303L102.344 33.0567C102.363 32.9461 102.439 32.8835 102.552 32.8835V32.8831ZM109.093 36.0681H107.926L107.495 37.0931C107.457 37.1802 107.4 37.2365 107.299 37.2365H106.679C106.589 37.2365 106.515 37.177 106.515 37.0832C106.515 37.0561 106.522 37.0326 106.53 37.0072L106.532 37.0035L108.076 33.4613C108.171 33.2437 108.309 33.0468 108.525 32.9371C108.686 32.8552 108.856 32.8376 109.033 32.8376C109.455 32.8376 109.756 33.0415 109.794 33.4863L110.099 37.0287V37.0324C110.099 37.0361 110.099 37.0399 110.099 37.0437C110.099 37.1668 110.025 37.2364 109.901 37.2364H109.326C109.212 37.2364 109.168 37.1731 109.157 37.0694L109.157 37.0672L109.093 36.0681ZM112.646 35.6595L112.399 37.0576C112.38 37.1706 112.31 37.2365 112.191 37.2365H111.628C111.501 37.2365 111.436 37.1491 111.46 37.0299L112.142 33.1449C112.172 32.9925 112.271 32.9338 112.416 32.9122C112.783 32.8575 113.172 32.8379 113.543 32.8379C114.382 32.8379 115.036 33.1283 115.036 34.0655C115.036 34.3476 114.978 34.6266 114.837 34.8731C114.481 35.4996 113.747 35.6787 113.076 35.6787C112.933 35.6787 112.789 35.6673 112.646 35.6595ZM117.291 34.3868L116.825 37.0575C116.804 37.1759 116.744 37.2365 116.617 37.2365H116.138C116.017 37.2365 115.946 37.1489 115.97 37.0299L116.646 33.1749C116.674 33.0138 116.825 32.8831 116.989 32.8831H117.557C117.73 32.8831 117.798 32.9597 117.848 33.1212L118.642 35.8485L119.135 33.0563C119.154 32.9489 119.226 32.8831 119.337 32.8831H119.821C119.945 32.8831 120.015 32.9608 119.99 33.0841L119.309 36.9448C119.28 37.1057 119.129 37.2365 118.965 37.2365H118.436C118.367 37.2365 118.298 37.2364 118.233 37.2103C118.13 37.1688 118.078 37.0777 118.05 36.9759L117.291 34.3868ZM121.87 32.8831H122.428C122.555 32.8831 122.621 32.9535 122.603 33.0815L122.602 33.0845L121.904 37.0579C121.882 37.1795 121.818 37.2369 121.69 37.2369H121.133C121.009 37.2369 120.941 37.1467 120.964 37.0303L121.662 33.0567C121.682 32.9461 121.757 32.8835 121.87 32.8835V32.8831ZM126.168 36.9401L126.837 33.1449C126.865 33.0056 126.937 32.9297 127.077 32.9067C127.179 32.8901 127.287 32.8817 127.39 32.8735C127.54 32.8615 127.691 32.8526 127.842 32.8464C127.965 32.8413 128.088 32.8379 128.211 32.8379C129.124 32.8379 129.788 33.2991 129.788 34.2612C129.788 34.3939 129.776 34.5275 129.753 34.6583L129.613 35.488C129.407 36.7012 128.682 37.2817 127.462 37.2817C127.347 37.2817 127.232 37.2787 127.117 37.274C126.964 37.2681 126.812 37.2589 126.66 37.2467C126.559 37.2384 126.45 37.2301 126.352 37.2131C126.236 37.1965 126.16 37.1256 126.16 37.0042C126.16 36.9806 126.161 36.9622 126.168 36.9401ZM134.089 32.8831H134.652C134.775 32.8831 134.84 32.9611 134.821 33.0823L134.37 35.6185C134.271 36.1786 134.058 36.7459 133.542 37.0455C133.222 37.2321 132.844 37.2817 132.478 37.2817C131.654 37.2817 131.081 36.8906 131.081 36.0165C131.081 35.8729 131.089 35.7307 131.116 35.5904L131.566 33.0562C131.584 32.9563 131.674 32.8831 131.774 32.8831H132.332C132.456 32.8831 132.524 32.9561 132.507 33.0815L132.506 33.0845L132.056 35.6187C132.032 35.7517 132.012 35.8926 132.012 36.028C132.012 36.132 132.025 36.2555 132.095 36.3378C132.202 36.4616 132.43 36.473 132.58 36.473C132.765 36.473 132.967 36.4477 133.115 36.3259C133.316 36.161 133.387 35.8334 133.431 35.5907L133.881 33.0564C133.901 32.9459 133.976 32.8833 134.089 32.8833V32.8831ZM137.818 35.0086L138.884 37.0013L138.884 37.0021C138.899 37.0315 138.91 37.0609 138.91 37.0942C138.91 37.1935 138.823 37.2362 138.734 37.2362H138.025C137.937 37.2362 137.875 37.2105 137.835 37.1297L136.991 35.4235L136.707 37.0572C136.686 37.1773 136.611 37.2362 136.493 37.2362H135.935C135.817 37.2362 135.747 37.1448 135.767 37.0297L136.459 33.0562C136.48 32.9388 136.555 32.8828 136.673 32.8828H137.231C137.36 32.8828 137.423 32.9543 137.399 33.0837L137.142 34.5533L138.606 32.9558C138.66 32.893 138.729 32.8828 138.807 32.8828H139.494C139.581 32.8828 139.67 32.92 139.67 33.0191C139.67 33.0782 139.63 33.1368 139.591 33.1763L137.818 35.0086ZM142.572 36.0681H141.405L140.974 37.0931C140.936 37.1802 140.88 37.2365 140.778 37.2365H140.158C140.068 37.2365 139.994 37.177 139.994 37.0832C139.994 37.0561 140.001 37.0326 140.009 37.0072L140.01 37.0035L141.555 33.4613C141.649 33.2437 141.788 33.0468 142.003 32.9371C142.164 32.8552 142.334 32.8376 142.512 32.8376C142.933 32.8376 143.234 33.0415 143.272 33.4863L143.577 37.0287V37.0324C143.577 37.0361 143.577 37.0399 143.577 37.0437C143.577 37.1668 143.503 37.2364 143.379 37.2364H142.805C142.691 37.2364 142.647 37.1731 142.635 37.0694L142.635 37.0672L142.572 36.0681ZM147.195 36.0681H146.028L145.597 37.0931C145.558 37.1802 145.502 37.2365 145.4 37.2365H144.781C144.691 37.2365 144.617 37.177 144.617 37.0832C144.617 37.0561 144.623 37.0326 144.632 37.0072L144.633 37.0035L146.177 33.4613C146.272 33.2437 146.41 33.0468 146.626 32.9371C146.787 32.8552 146.957 32.8376 147.134 32.8376C147.556 32.8376 147.857 33.0415 147.895 33.4863L148.2 37.0287V37.0324C148.2 37.0361 148.2 37.0399 148.2 37.0437C148.2 37.1668 148.126 37.2364 148.002 37.2364H147.427C147.313 37.2364 147.269 37.1731 147.258 37.0694L147.258 37.0672L147.195 36.0681ZM150.883 34.3868L150.417 37.0575C150.396 37.1759 150.335 37.2365 150.209 37.2365H149.73C149.609 37.2365 149.538 37.1489 149.561 37.0299L150.237 33.1749C150.265 33.0138 150.416 32.8831 150.58 32.8831H151.149C151.321 32.8831 151.39 32.9597 151.44 33.1212L152.234 35.8485L152.726 33.0563C152.745 32.9489 152.817 32.8831 152.929 32.8831H153.413C153.536 32.8831 153.606 32.9608 153.582 33.0841L152.9 36.9448C152.872 37.1057 152.721 37.2365 152.557 37.2365H152.028C151.959 37.2365 151.89 37.2364 151.825 37.2103C151.722 37.1688 151.67 37.0777 151.641 36.9759L150.883 34.3868ZM46.3492 33.6718L45.8633 36.4491C45.9877 36.455 46.1107 36.4615 46.2366 36.4615C46.8908 36.4615 47.2317 36.1033 47.3406 35.4613L47.4814 34.6316C47.5005 34.5194 47.5141 34.4033 47.5141 34.2894C47.5141 33.77 47.2288 33.6581 46.7604 33.6581C46.6219 33.6581 46.4864 33.6647 46.3492 33.6718ZM65.9363 35.265L65.8295 33.6751C65.8291 33.6714 65.8288 33.6647 65.828 33.6583C65.8266 33.6584 65.8244 33.6587 65.8229 33.659C65.8163 33.6663 65.8053 33.6913 65.8019 33.6992L65.1497 35.265H65.9363ZM83.96 33.6718L83.4741 36.4491C83.5986 36.455 83.7216 36.4615 83.8475 36.4615C84.5017 36.4615 84.8426 36.1033 84.9516 35.4613L85.0924 34.6316C85.1114 34.5194 85.125 34.4033 85.125 34.2894C85.125 33.77 84.8397 33.6581 84.3713 33.6581C84.2328 33.6581 84.0973 33.6647 83.96 33.6718ZM92.0445 35.265L91.9377 33.6751C91.9375 33.6714 91.937 33.6647 91.9363 33.6583C91.9348 33.6584 91.9326 33.6587 91.9319 33.659C91.9252 33.6663 91.9143 33.6913 91.911 33.6992L91.2587 35.265H92.0445ZM109.044 35.265L108.937 33.6751C108.936 33.6714 108.936 33.6647 108.935 33.6583C108.934 33.6584 108.932 33.6587 108.931 33.659C108.924 33.6663 108.913 33.6913 108.91 33.6992L108.258 35.265H109.044ZM112.992 33.6633L112.781 34.8634C112.835 34.8656 112.889 34.8678 112.942 34.8693C113.024 34.8722 113.107 34.8752 113.188 34.8752C113.722 34.8752 114.105 34.628 114.105 34.0652C114.105 33.9737 114.091 33.8738 114.031 33.801C113.909 33.6535 113.603 33.6465 113.43 33.6465C113.35 33.6465 113.268 33.6494 113.188 33.6531C113.123 33.6561 113.057 33.6583 112.992 33.6632V33.6633ZM127.687 33.6718L127.201 36.4491C127.325 36.455 127.448 36.4615 127.574 36.4615C128.228 36.4615 128.569 36.1033 128.678 35.4613L128.819 34.6316C128.838 34.5194 128.852 34.4033 128.852 34.2894C128.852 33.77 128.566 33.6581 128.098 33.6581C127.96 33.6581 127.824 33.6647 127.687 33.6718ZM142.523 35.265L142.416 33.6751C142.415 33.6714 142.415 33.6647 142.414 33.6583C142.413 33.6584 142.411 33.6587 142.41 33.659C142.403 33.6663 142.392 33.6913 142.389 33.6992L141.737 35.265H142.523ZM147.145 35.265L147.038 33.6751C147.038 33.6714 147.038 33.6647 147.037 33.6583C147.035 33.6584 147.033 33.6587 147.032 33.659C147.025 33.6663 147.014 33.6913 147.011 33.6992L146.359 35.265H147.145Z" fill="white"/>
<path fill-rule="evenodd" clip-rule="evenodd" d="M99.6079 15.2887C99.7826 15.559 100.482 18.2786 100.656 18.853C101.355 21.201 102.054 23.7349 102.753 26.0491C103.044 26.9782 103.452 28.9377 103.976 29.4783C104.5 29.9681 104.966 29.9681 105.84 29.9681C106.597 29.9681 107.354 29.9681 108.17 29.9681C109.976 29.9681 110.15 28.6674 110.325 27.5188C110.849 24.8667 111.257 22.2483 111.723 19.5963C111.898 18.6334 113.82 8.17703 113.761 7.70405C113.645 6.96079 113.004 6.94389 112.189 6.94389C108.985 6.94389 109.451 6.55537 108.752 10.4406C108.519 11.7075 106.772 22.0287 106.656 22.299C106.248 21.1166 105.957 19.9003 105.607 18.7179C104.675 15.7448 103.86 12.7211 102.986 9.74802C102.578 8.43042 102.52 7.06214 101.18 6.96079C100.482 6.91011 99.6079 6.94389 98.8507 6.94389C97.511 6.94389 96.4043 7.01146 96.1132 8.81894L93.3174 24.5964C93.0844 25.8971 92.9096 27.1978 92.6767 28.5154C92.3272 30.4073 94.0163 29.9681 95.7054 29.9681C96.4626 29.9681 96.9286 29.7654 97.1615 29.1404C97.278 28.8026 98.6759 20.3057 98.9089 19.2415C98.9671 18.6165 99.4332 15.6097 99.6079 15.2887Z" fill="white"/>
<path fill-rule="evenodd" clip-rule="evenodd" d="M146.262 11.2683C148.243 11.1332 149.466 11.6568 149.699 13.5825C149.815 15.1873 149.349 17.1975 149.116 18.7516C148.534 22.1638 148.126 25.4072 144.457 25.6437C142.418 25.7788 141.195 25.272 141.02 23.3294C140.904 21.7415 141.37 19.7145 141.603 18.1773C142.185 14.6974 142.535 11.5217 146.262 11.2683ZM145.913 6.77493C142.593 7.07899 140.38 8.53173 139.04 10.4406C137.409 12.8224 137.001 15.1873 136.477 18.4644C135.895 21.7246 135.371 24.6132 137.118 27.2822C138.516 29.4275 141.195 30.458 144.806 30.137C147.835 29.8667 149.932 28.7519 151.679 26.4714C153.252 24.343 153.718 21.505 154.242 18.4475C154.824 15.2211 155.29 12.2649 153.543 9.66352C152.087 7.51819 149.641 6.43708 145.913 6.77493Z" fill="white"/>
<path fill-rule="evenodd" clip-rule="evenodd" d="M54.9921 11.2857C56.9724 11.1168 58.2539 11.5729 58.4868 13.4649C58.6615 15.0189 58.1956 17.1305 57.9626 18.6508C57.3802 22.0462 56.9724 25.3233 53.4195 25.6442C51.3809 25.8131 50.0995 25.3402 49.8665 23.4313C49.6918 21.8435 50.1578 19.8333 50.3908 18.2792C50.9732 14.85 51.3227 11.5898 54.9921 11.2857ZM54.8174 6.77549C51.3809 7.07955 49.3424 8.44783 47.8862 10.4073C46.2553 12.6202 45.8477 15.2217 45.3234 18.4143C44.7409 21.6745 44.2168 24.5631 45.9641 27.2659C47.3037 29.3943 50.0413 30.4585 53.5942 30.1376C56.9724 29.8335 59.1276 28.3977 60.4671 26.4888C62.1563 24.1915 62.5058 21.7083 63.0882 18.4819C63.6124 15.2892 64.1366 12.2824 62.3893 9.71476C60.6419 7.18091 57.9044 6.48832 54.8174 6.77549Z" fill="white"/>
<path fill-rule="evenodd" clip-rule="evenodd" d="M118.771 20.2888C120.576 20.2888 122.382 20.2888 124.246 20.2888C124.77 20.2888 126.401 20.3733 126.867 20.1706C127.566 19.8327 127.566 19.2246 127.741 18.3293C127.857 17.5185 128.148 16.6739 127.508 16.2009C127.1 15.8799 125.644 16.0151 125.003 16.0151C123.896 16.0151 120.343 16.0657 119.528 15.9982C119.644 15.2211 119.819 14.3596 119.936 13.5657C120.11 12.6873 120.285 11.9778 120.809 11.5386C121.392 11.0825 122.498 11.2007 123.314 11.2007C124.304 11.2007 125.294 11.2007 126.226 11.2007C126.925 11.2007 128.439 11.319 128.905 11.0149C129.604 10.5926 129.546 9.84936 129.721 8.92028C129.896 7.90674 130.012 7.3324 128.905 7.12969C128.09 6.97766 127.216 6.85942 126.343 6.80874C123.838 6.62293 119.237 6.36954 117.256 8.36283C115.975 9.61287 115.451 10.8798 115.101 12.6873C114.752 14.292 114.519 15.9982 114.228 17.6198C113.936 19.2415 113.645 20.8969 113.354 22.5186C113.063 24.2585 112.772 25.8802 113.587 27.4512C115.043 30.2891 118.538 30.3567 122.324 30.1202C123.256 30.0695 124.071 29.9512 124.886 29.8161C125.993 29.6472 126.11 29.4445 126.343 28.3634C126.459 27.6032 126.809 26.4714 126.284 25.9646C125.877 25.5592 124.362 25.7113 123.605 25.7113C122.673 25.7113 121.741 25.7113 120.751 25.7113C118.014 25.7113 117.839 25.8802 118.363 22.7551C118.421 22.2145 118.654 20.6942 118.771 20.2888Z" fill="white"/>
<path fill-rule="evenodd" clip-rule="evenodd" d="M74.5042 6.97769C73.747 7.14662 73.5723 7.56893 73.4558 8.37976C73.3394 9.07235 73.2228 9.76493 73.1063 10.4575C72.8734 11.8258 72.6404 13.211 72.4074 14.5792C71.8832 17.3665 71.4172 20.1368 70.9513 22.9072C69.9611 28.6506 73.1063 30.3398 77.8242 30.1878C79.2221 30.1371 81.0859 30.0526 82.3091 29.7486C83.1245 29.5627 83.241 29.208 83.3575 28.3634C83.474 27.8566 83.707 26.7248 83.5322 26.2856C83.2993 25.593 82.5421 25.7113 81.7266 25.7113C80.5618 25.7113 77.766 25.762 76.8341 25.7113C75.9021 25.6437 75.7274 25.3566 75.7856 24.3768C75.8439 23.4646 77.8242 12.5522 77.9407 11.8596C78.0572 11.2177 78.6397 8.12638 78.5814 7.70407C78.4066 6.94391 77.7077 6.94391 76.8923 6.94391C76.3681 6.94391 74.9119 6.89323 74.5042 6.97769Z" fill="#FFCC28"/>
<path fill-rule="evenodd" clip-rule="evenodd" d="M89.9976 6.97769C88.9492 7.1804 89.0074 8.37976 88.7745 9.69736L85.8039 26.5559C85.6874 27.1133 85.6292 27.6708 85.5127 28.2451C85.1633 30.1709 86.037 29.9682 87.5513 29.9682C90.4636 29.9682 90.2306 30.154 90.7548 27.1978C90.9295 26.0829 91.1625 24.9511 91.3373 23.8362L94.0166 8.66693C94.133 8.02502 94.1913 7.48447 93.7253 7.14662C93.3758 6.85945 92.5604 6.94391 91.978 6.94391C91.512 6.94391 90.4636 6.89323 89.9976 6.97769Z" fill="white"/>
<path fill-rule="evenodd" clip-rule="evenodd" d="M130.536 17.113C130.012 17.2144 130.012 17.586 129.895 18.1097C129.779 18.7178 129.721 19.0388 130.42 19.0388L133.74 19.0219C134.264 18.9374 134.322 18.5658 134.38 18.0252C134.613 16.8934 134.264 17.113 132.167 17.113C131.818 17.113 130.827 17.0624 130.536 17.113Z" fill="white"/>
<path fill-rule="evenodd" clip-rule="evenodd" d="M65.8839 17.13C65.418 17.2144 65.3598 17.6029 65.2432 18.0928C65.0103 19.2415 65.2432 19.0388 67.3983 19.0388C69.2622 19.0388 69.4369 19.2753 69.6699 18.0421C69.7864 17.4002 69.7864 17.1131 69.0292 17.1131C68.3885 17.1131 66.4082 17.0117 65.8839 17.13Z" fill="white"/>
<path fill-rule="evenodd" clip-rule="evenodd" d="M18.8198 4.46771C28.0244 4.46771 35.4861 11.9453 35.4861 21.1694C35.4861 30.3935 28.0244 37.871 18.8198 37.871C9.61533 37.871 2.15356 30.3935 2.15356 21.1694C2.15356 11.9453 9.61533 4.46771 18.8198 4.46771ZM18.8198 10.361C24.7765 10.361 29.6053 15.2001 29.6053 21.1694C29.6053 27.1387 24.7765 31.9778 18.8198 31.9778C12.8633 31.9778 8.03435 27.1387 8.03435 21.1694C8.03435 15.2001 12.8633 10.361 18.8198 10.361Z" fill="white"/>
<path fill-rule="evenodd" clip-rule="evenodd" d="M30.309 2.4347L21.7277 2.42084L7.67388 39.0619C7.1277 40.4765 7.9816 41.969 9.9899 42.1153L21.9901 42.1014L26.26 36.1185L17.3826 36.119L30.309 2.4347Z" fill="#FFCC28"/>
<path fill-rule="evenodd" clip-rule="evenodd" d="M18.8197 17.3287C20.9364 17.3287 22.6523 19.0482 22.6523 21.1693C22.6523 23.2905 20.9364 25.0099 18.8197 25.0099C16.7031 25.0099 14.9872 23.2905 14.9872 21.1693C14.9872 19.0482 16.7031 17.3287 18.8197 17.3287ZM18.8197 11.5811C24.1039 11.5811 28.3878 15.8739 28.3878 21.1694C28.3878 26.4648 24.1039 30.7576 18.8197 30.7576C13.5355 30.7576 9.25171 26.4648 9.25171 21.1694C9.25171 15.8739 13.5355 11.5811 18.8197 11.5811Z" fill="white"/>
</g>
<defs>
<clipPath id="clip0_239_996">
<rect width="156.821" height="44" fill="white"/>
</clipPath>
</defs>
</svg>
