<svg width="128" height="50" viewBox="0 0 128 50" fill="none" xmlns="http://www.w3.org/2000/svg">
<g clip-path="url(#clip0_10_141)">
<path fill-rule="evenodd" clip-rule="evenodd" d="M0 -38.6355H128.099V89.7533H0V-38.6355Z" fill="#1B325E"/>
<path fill-rule="evenodd" clip-rule="evenodd" d="M2.86943 -34.8608V85.9787H125.229V-34.8608H2.86943ZM3.42571 -34.129V85.2469H124.673V-34.129H3.42571Z" fill="#1B325E"/>
<path fill-rule="evenodd" clip-rule="evenodd" d="M41.4664 35.411L41.916 32.8625C41.9346 32.769 41.9827 32.718 42.0771 32.7026C42.1454 32.6914 42.218 32.6858 42.2871 32.6803C42.3882 32.6722 42.4896 32.6662 42.5909 32.6621C42.6732 32.6586 42.7558 32.6564 42.8382 32.6564C43.4514 32.6564 43.8976 32.966 43.8976 33.6121C43.8976 33.7012 43.889 33.7909 43.8741 33.8788L43.7796 34.4359C43.6414 35.2505 43.1548 35.6403 42.3352 35.6403C42.258 35.6403 42.1808 35.6383 42.1036 35.6351C42.0015 35.6312 41.8992 35.625 41.7973 35.6168C41.729 35.6113 41.6562 35.6057 41.5903 35.5943C41.5125 35.5831 41.4612 35.5355 41.4612 35.454C41.4612 35.4381 41.462 35.4258 41.4664 35.411ZM45.288 32.6867H45.6624C45.7478 32.6867 45.7919 32.734 45.7797 32.8199L45.7794 32.8219L45.3105 35.4901C45.2961 35.5717 45.2532 35.6102 45.167 35.6102H44.7927C44.7094 35.6102 44.6639 35.5497 44.6795 35.4715L45.1484 32.8033C45.1614 32.729 45.2119 32.687 45.288 32.687V32.6867ZM47.8135 35.0733L47.9763 34.1485C47.99 34.0708 48.0339 34.0284 48.116 34.0284H48.4904C48.5754 34.0284 48.6193 34.0829 48.6036 34.1671L48.3807 35.4394C48.3694 35.5129 48.3246 35.5591 48.252 35.5747L48.2509 35.5749C47.974 35.6283 47.6865 35.6403 47.4051 35.6403C47.204 35.6403 46.9922 35.5654 46.8359 35.4389C46.6072 35.2537 46.5159 34.9844 46.5159 34.696C46.5159 34.6009 46.5254 34.5063 46.5431 34.414L46.6377 33.8682C46.765 33.1334 47.1453 32.6564 47.9194 32.6564C48.0852 32.6564 48.2515 32.6655 48.4164 32.6822C48.5209 32.6928 48.6277 32.7061 48.7309 32.7255C48.8124 32.7408 48.8481 32.7841 48.8342 32.8673L48.7887 33.1223C48.7704 33.2138 48.7263 33.2538 48.6292 33.2447C48.3956 33.2231 48.1615 33.2147 47.927 33.2147C47.7879 33.2147 47.6399 33.235 47.5268 33.3228C47.3646 33.4486 47.3058 33.6946 47.2725 33.8865L47.1781 34.4316C47.1656 34.5099 47.1561 34.59 47.1561 34.6694C47.1561 34.8944 47.2351 35.082 47.4845 35.082C47.5944 35.082 47.7039 35.0795 47.8135 35.0733ZM50.1045 32.6867H50.4789C50.5644 32.6867 50.6084 32.734 50.5961 32.8199L50.5959 32.8219L50.127 35.4901C50.1127 35.5717 50.0697 35.6102 49.9835 35.6102H49.6091C49.5259 35.6102 49.4804 35.5497 49.496 35.4715L49.9649 32.8033C49.9779 32.729 50.0284 32.687 50.1045 32.687V32.6867ZM52.864 33.2336L52.4672 35.4899C52.4531 35.5697 52.4072 35.61 52.3237 35.61H51.9493C51.8698 35.61 51.8232 35.5488 51.8362 35.4712L52.2297 33.2336H51.6317C51.5528 33.2336 51.5027 33.1862 51.5144 33.1042L51.5147 33.1022L51.5677 32.8022C51.5823 32.7242 51.6304 32.6865 51.7073 32.6865H53.5564C53.6438 32.6865 53.6886 32.7358 53.6734 32.8215L53.6203 33.122C53.6051 33.1982 53.5555 33.2333 53.4808 33.2333L52.864 33.2336ZM55.6724 34.8254H54.8885L54.5993 35.5137C54.5734 35.5721 54.5357 35.61 54.4672 35.61H54.0513C53.9908 35.61 53.941 35.57 53.941 35.507C53.941 35.4888 53.9455 35.473 53.9514 35.456L53.9524 35.4535L54.9895 33.0749C55.0532 32.9288 55.146 32.7967 55.2908 32.723C55.3988 32.668 55.513 32.6562 55.6322 32.6562C55.9153 32.6562 56.1174 32.7931 56.143 33.0918L56.3474 35.4704V35.4729C56.3474 35.4754 56.3474 35.478 56.3474 35.4805C56.3474 35.5632 56.2978 35.6099 56.2145 35.6099H55.8288C55.7523 35.6099 55.7229 35.5674 55.7151 35.4978L55.715 35.4963L55.6724 34.8254ZM58.8309 35.5859C58.7776 35.598 58.7197 35.6046 58.6654 35.6107C58.591 35.6189 58.5163 35.6251 58.4416 35.6299C58.3511 35.6359 58.2595 35.6403 58.1687 35.6403C57.7496 35.6403 57.3665 35.4712 57.3665 34.9878C57.3665 34.9244 57.3675 34.8632 57.3787 34.8005L57.7266 32.8069C57.7402 32.7289 57.7891 32.6867 57.87 32.6867H58.2444C58.3272 32.6867 58.3693 32.7432 58.3579 32.8237L58.3576 32.8252L58.0099 34.8177C58.0038 34.8574 57.9992 34.898 57.9992 34.9384C57.9992 34.9713 58.0026 35.0144 58.0259 35.0401C58.0611 35.0793 58.1473 35.0818 58.1952 35.0818H58.891C58.9567 35.0818 59.005 35.1306 59.005 35.1961C59.005 35.2011 59.005 35.2062 59.005 35.2112V35.2157L58.9629 35.4613C58.9515 35.5416 58.9041 35.5709 58.8309 35.5856V35.5859ZM62.2144 32.6867H62.5887C62.6742 32.6867 62.7182 32.734 62.706 32.8199L62.7057 32.8219L62.2368 35.4901C62.2225 35.5717 62.1795 35.6102 62.0934 35.6102H61.719C61.6358 35.6102 61.5902 35.5497 61.6058 35.4715L62.0747 32.8033C62.0878 32.729 62.1382 32.687 62.2144 32.687V32.6867ZM64.2472 33.6964L63.9342 35.4898C63.9203 35.5693 63.8794 35.61 63.7945 35.61H63.473C63.3916 35.61 63.3439 35.5512 63.3599 35.4712L63.8136 32.8827C63.8326 32.7745 63.9339 32.6867 64.044 32.6867H64.426C64.5416 32.6867 64.5878 32.7382 64.621 32.8466L65.1543 34.678L65.4851 32.803C65.4978 32.7309 65.5462 32.6867 65.6209 32.6867H65.9461C66.0289 32.6867 66.0759 32.7389 66.0593 32.8217L65.6017 35.4141C65.5827 35.5222 65.4814 35.61 65.3713 35.61H65.0159C64.9697 35.61 64.9232 35.6099 64.8796 35.5923C64.8104 35.5645 64.7755 35.5033 64.7566 35.435L64.2472 33.6964ZM66.7216 35.411L67.1712 32.8625C67.1899 32.769 67.238 32.718 67.3323 32.7026C67.4007 32.6914 67.4733 32.6858 67.5423 32.6803C67.6434 32.6722 67.7448 32.6662 67.8461 32.6621C67.9285 32.6586 68.011 32.6564 68.0934 32.6564C68.7067 32.6564 69.1528 32.966 69.1528 33.6121C69.1528 33.7012 69.1443 33.7909 69.1294 33.8788L69.0349 34.4359C68.8966 35.2505 68.41 35.6403 67.5905 35.6403C67.5133 35.6403 67.436 35.6383 67.3589 35.6351C67.2567 35.6312 67.1545 35.625 67.0526 35.6168C66.9843 35.6113 66.9115 35.6057 66.8456 35.5943C66.7678 35.5831 66.7164 35.5355 66.7164 35.454C66.7164 35.4381 66.7174 35.4258 66.7216 35.411ZM70.5055 32.6867H70.8798C70.9653 32.6867 71.0093 32.734 70.9971 32.8199L70.9968 32.8219L70.5279 35.4901C70.5136 35.5717 70.4706 35.6102 70.3844 35.6102H70.0101C69.9269 35.6102 69.8813 35.5497 69.8969 35.4715L70.3658 32.8033C70.3789 32.729 70.4294 32.687 70.5055 32.687V32.6867ZM73.2039 34.8254H72.4198L72.1307 35.5137C72.1048 35.5721 72.067 35.61 71.9986 35.61H71.5827C71.5221 35.61 71.4724 35.57 71.4724 35.507C71.4724 35.4888 71.4769 35.473 71.4827 35.456L71.4837 35.4535L72.5208 33.0749C72.5845 32.9288 72.6773 32.7967 72.8221 32.723C72.9301 32.668 73.0443 32.6562 73.1635 32.6562C73.4466 32.6562 73.6487 32.7931 73.6744 33.0918L73.8788 35.4704V35.4729C73.8788 35.4754 73.8788 35.478 73.8788 35.4805C73.8788 35.5632 73.8291 35.6099 73.7458 35.6099H73.3601C73.2836 35.6099 73.2542 35.5674 73.2465 35.4978L73.2463 35.4963L73.2039 34.8254ZM77.8645 34.1139L78.58 35.4521L78.5803 35.4526C78.5901 35.4723 78.5973 35.492 78.5973 35.5144C78.5973 35.5811 78.5388 35.6098 78.4795 35.6098H78.0031C77.9443 35.6098 77.9025 35.5925 77.8757 35.5382L77.3091 34.3926L77.1179 35.4896C77.1039 35.5702 77.0536 35.6098 76.9745 35.6098H76.6001C76.5205 35.6098 76.4734 35.5484 76.4869 35.4711L76.952 32.803C76.9658 32.7241 77.0164 32.6865 77.0955 32.6865H77.4699C77.5566 32.6865 77.5993 32.7345 77.5831 32.8214L77.4105 33.8082L78.3935 32.7355C78.4296 32.6933 78.4761 32.6865 78.5287 32.6865H78.99C79.0479 32.6865 79.1078 32.7115 79.1078 32.778C79.1078 32.8177 79.0813 32.8571 79.0549 32.8836L77.8645 34.1139ZM80.226 32.6867H80.6004C80.6858 32.6867 80.7299 32.734 80.7176 32.8199L80.7174 32.8219L80.2485 35.4901C80.2341 35.5717 80.1911 35.6102 80.105 35.6102H79.7306C79.6474 35.6102 79.6018 35.5497 79.6174 35.4715L80.0863 32.8033C80.0994 32.729 80.1499 32.687 80.226 32.687V32.6867ZM84.6184 34.8254H83.8345L83.5453 35.5137C83.5194 35.5721 83.4817 35.61 83.4132 35.61H82.9973C82.9367 35.61 82.887 35.57 82.887 35.507C82.887 35.4888 82.8915 35.473 82.8974 35.456L82.8983 35.4535L83.9354 33.0749C83.9991 32.9288 84.092 32.7967 84.2368 32.723C84.3448 32.668 84.459 32.6562 84.5782 32.6562C84.8612 32.6562 85.0634 32.7931 85.089 33.0918L85.2934 35.4704V35.4729C85.2934 35.4754 85.2934 35.478 85.2934 35.4805C85.2934 35.5632 85.2438 35.6099 85.1605 35.6099H84.7748C84.6983 35.6099 84.6688 35.5674 84.6611 35.4978L84.661 35.4963L84.6184 34.8254ZM87.0042 34.551L86.8384 35.4899C86.825 35.5657 86.7783 35.61 86.6988 35.61H86.3206C86.2349 35.61 86.1915 35.5513 86.2074 35.4712L86.6652 32.8625C86.6856 32.7602 86.7523 32.7208 86.8497 32.7063C87.0962 32.6695 87.3573 32.6564 87.6063 32.6564C88.1699 32.6564 88.609 32.8514 88.609 33.4807C88.609 33.6701 88.5697 33.8575 88.4754 34.0229C88.2359 34.4436 87.7433 34.5639 87.2925 34.5639C87.1965 34.5639 87.1002 34.5563 87.0042 34.551ZM90.1232 33.6964L89.8102 35.4898C89.7963 35.5693 89.7554 35.61 89.6704 35.61H89.3491C89.2676 35.61 89.2199 35.5512 89.2358 35.4712L89.6896 32.8827C89.7085 32.7745 89.8099 32.6867 89.92 32.6867H90.3019C90.4175 32.6867 90.4637 32.7382 90.497 32.8466L91.0303 34.678L91.361 32.803C91.3737 32.7309 91.4222 32.6867 91.4969 32.6867H91.8221C91.9049 32.6867 91.9519 32.7389 91.9353 32.8217L91.4778 35.4141C91.4587 35.5222 91.3574 35.61 91.2473 35.61H90.8919C90.8457 35.61 90.7992 35.6099 90.7556 35.5923C90.6863 35.5645 90.6515 35.5033 90.6326 35.435L90.1232 33.6964ZM93.198 32.6867H93.5724C93.6578 32.6867 93.7019 32.734 93.6896 32.8199L93.6893 32.8219L93.2204 35.4901C93.2061 35.5717 93.1632 35.6102 93.077 35.6102H92.7027C92.6194 35.6102 92.5738 35.5497 92.5894 35.4715L93.0583 32.8033C93.0714 32.729 93.1219 32.687 93.198 32.687V32.6867ZM96.0836 35.411L96.5332 32.8625C96.5518 32.769 96.5999 32.718 96.6943 32.7026C96.7626 32.6914 96.8352 32.6858 96.9043 32.6803C97.0054 32.6722 97.1068 32.6662 97.2081 32.6621C97.2904 32.6586 97.373 32.6564 97.4554 32.6564C98.0686 32.6564 98.5148 32.966 98.5148 33.6121C98.5148 33.7012 98.5062 33.7909 98.4913 33.8788L98.3968 34.4359C98.2585 35.2505 97.772 35.6403 96.9524 35.6403C96.8753 35.6403 96.798 35.6383 96.7208 35.6351C96.6187 35.6312 96.5164 35.625 96.4145 35.6168C96.3463 35.6113 96.2735 35.6057 96.2075 35.5943C96.1297 35.5831 96.0784 35.5355 96.0784 35.454C96.0784 35.4381 96.0794 35.4258 96.0836 35.411ZM101.403 32.6867H101.781C101.863 32.6867 101.907 32.7391 101.894 32.8205L101.591 34.5235C101.525 34.8996 101.382 35.2805 101.036 35.4817C100.82 35.607 100.566 35.6403 100.321 35.6403C99.7676 35.6403 99.3828 35.3777 99.3828 34.7908C99.3828 34.6943 99.3883 34.5988 99.4063 34.5046L99.7088 32.803C99.7208 32.7358 99.7808 32.6867 99.8485 32.6867H100.223C100.306 32.6867 100.352 32.7357 100.34 32.8199L100.34 32.8219L100.037 34.5236C100.021 34.6129 100.008 34.7076 100.008 34.7985C100.008 34.8683 100.017 34.9512 100.064 35.0065C100.135 35.0896 100.289 35.0973 100.389 35.0973C100.514 35.0973 100.649 35.0803 100.749 34.9985C100.883 34.8878 100.932 34.6678 100.961 34.5048L101.263 32.8031C101.276 32.7289 101.327 32.6869 101.403 32.6869V32.6867ZM103.907 34.1139L104.622 35.4521L104.623 35.4526C104.633 35.4723 104.64 35.492 104.64 35.5144C104.64 35.5811 104.581 35.6098 104.522 35.6098H104.045C103.987 35.6098 103.945 35.5925 103.918 35.5382L103.352 34.3926L103.16 35.4896C103.146 35.5702 103.096 35.6098 103.017 35.6098H102.642C102.563 35.6098 102.516 35.5484 102.529 35.4711L102.994 32.803C103.008 32.7241 103.059 32.6865 103.138 32.6865H103.512C103.599 32.6865 103.642 32.7345 103.625 32.8214L103.453 33.8082L104.436 32.7355C104.472 32.6933 104.518 32.6865 104.571 32.6865H105.032C105.09 32.6865 105.15 32.7115 105.15 32.778C105.15 32.8177 105.124 32.8571 105.097 32.8836L103.907 34.1139ZM107.099 34.8254H106.315L106.026 35.5137C106 35.5721 105.962 35.61 105.894 35.61H105.478C105.418 35.61 105.368 35.57 105.368 35.507C105.368 35.4888 105.372 35.473 105.378 35.456L105.379 35.4535L106.416 33.0749C106.479 32.9288 106.572 32.7967 106.717 32.723C106.825 32.668 106.939 32.6562 107.058 32.6562C107.342 32.6562 107.544 32.7931 107.569 33.0918L107.774 35.4704V35.4729C107.774 35.4754 107.774 35.478 107.774 35.4805C107.774 35.5632 107.724 35.6099 107.641 35.6099H107.255C107.179 35.6099 107.149 35.5674 107.141 35.4978L107.141 35.4963L107.099 34.8254ZM110.203 34.8254H109.419L109.13 35.5137C109.104 35.5721 109.066 35.61 108.998 35.61H108.582C108.522 35.61 108.472 35.57 108.472 35.507C108.472 35.4888 108.476 35.473 108.482 35.456L108.483 35.4535L109.52 33.0749C109.583 32.9288 109.676 32.7967 109.821 32.723C109.929 32.668 110.043 32.6562 110.162 32.6562C110.446 32.6562 110.648 32.7931 110.673 33.0918L110.878 35.4704V35.4729C110.878 35.4754 110.878 35.478 110.878 35.4805C110.878 35.5632 110.828 35.6099 110.745 35.6099H110.359C110.283 35.6099 110.253 35.5674 110.245 35.4978L110.245 35.4963L110.203 34.8254ZM112.68 33.6964L112.367 35.4898C112.353 35.5693 112.312 35.61 112.227 35.61H111.905C111.824 35.61 111.776 35.5512 111.792 35.4712L112.246 32.8827C112.265 32.7745 112.366 32.6867 112.476 32.6867H112.858C112.974 32.6867 113.02 32.7382 113.053 32.8466L113.587 34.678L113.917 32.803C113.93 32.7309 113.979 32.6867 114.053 32.6867H114.378C114.461 32.6867 114.508 32.7389 114.492 32.8217L114.034 35.4141C114.015 35.5222 113.914 35.61 113.804 35.61H113.448C113.402 35.61 113.356 35.6099 113.312 35.5923C113.243 35.5645 113.208 35.5033 113.189 35.435L112.68 33.6964ZM42.4865 33.2163L42.1602 35.0813C42.2438 35.0852 42.3263 35.0896 42.4109 35.0896C42.8502 35.0896 43.0791 34.8491 43.1522 34.4179L43.2468 33.8608C43.2596 33.7854 43.2687 33.7075 43.2687 33.631C43.2687 33.2822 43.0771 33.2071 42.7626 33.2071C42.6696 33.2071 42.5786 33.2115 42.4865 33.2163ZM55.639 34.2861L55.5673 33.2185C55.567 33.2161 55.5668 33.2116 55.5663 33.2072C55.5653 33.2073 55.5638 33.2075 55.5628 33.2077C55.5584 33.2126 55.551 33.2294 55.5487 33.2347L55.1108 34.2861H55.639ZM67.7417 33.2163L67.4154 35.0813C67.499 35.0852 67.5816 35.0896 67.6661 35.0896C68.1054 35.0896 68.3343 34.8491 68.4075 34.4179L68.5021 33.8608C68.5148 33.7854 68.5239 33.7075 68.5239 33.631C68.5239 33.2822 68.3324 33.2071 68.0178 33.2071C67.9249 33.2071 67.8339 33.2115 67.7417 33.2163ZM73.1703 34.2861L73.0986 33.2185C73.0984 33.2161 73.0981 33.2116 73.0976 33.2072C73.0967 33.2073 73.0952 33.2075 73.0947 33.2077C73.0902 33.2126 73.0829 33.2294 73.0806 33.2347L72.6427 34.2861H73.1703ZM84.585 34.2861L84.5133 33.2185C84.513 33.2161 84.5128 33.2116 84.5123 33.2072C84.5113 33.2073 84.5098 33.2075 84.5093 33.2077C84.5049 33.2126 84.4975 33.2294 84.4952 33.2347L84.0573 34.2861H84.585ZM87.236 33.2106L87.0947 34.0165C87.1307 34.0179 87.1669 34.0194 87.2028 34.0204C87.2576 34.0224 87.3132 34.0244 87.3681 34.0244C87.7266 34.0244 87.9839 33.8584 87.9839 33.4805C87.9839 33.419 87.9746 33.3519 87.9342 33.3031C87.8523 33.204 87.6469 33.1993 87.5307 33.1993C87.4765 33.1993 87.4218 33.2013 87.3677 33.2038C87.3246 33.2058 87.2798 33.2072 87.236 33.2106V33.2106ZM97.1036 33.2163L96.7774 35.0813C96.861 35.0852 96.9436 35.0896 97.0281 35.0896C97.4674 35.0896 97.6963 34.8491 97.7694 34.4179L97.864 33.8608C97.8768 33.7854 97.8859 33.7075 97.8859 33.631C97.8859 33.2822 97.6943 33.2071 97.3797 33.2071C97.2868 33.2071 97.1958 33.2115 97.1036 33.2163ZM107.066 34.2861L106.994 33.2185C106.994 33.2161 106.994 33.2116 106.993 33.2072C106.992 33.2073 106.991 33.2075 106.99 33.2077C106.986 33.2126 106.978 33.2294 106.976 33.2347L106.538 34.2861H107.066ZM110.17 34.2861L110.098 33.2185C110.098 33.2161 110.098 33.2116 110.097 33.2072C110.096 33.2073 110.095 33.2075 110.094 33.2077C110.089 33.2126 110.082 33.2294 110.08 33.2347L109.642 34.2861H110.17Z" fill="white"/>
<path fill-rule="evenodd" clip-rule="evenodd" d="M78.2493 20.8723C78.3666 21.0537 78.8359 22.88 78.9533 23.2656C79.4226 24.8423 79.8919 26.5438 80.3613 28.0977C80.5568 28.7216 80.8306 30.0374 81.1826 30.4004C81.5346 30.7293 81.8475 30.7293 82.4341 30.7293C82.9426 30.7293 83.451 30.7293 83.9986 30.7293C85.211 30.7293 85.3283 29.8559 85.4457 29.0846C85.7977 27.3037 86.0715 25.5456 86.3843 23.7647C86.5017 23.1182 87.7923 16.0969 87.7532 15.7793C87.675 15.2802 87.2448 15.2688 86.6972 15.2688C84.5461 15.2688 84.859 15.0079 84.3897 17.6168C84.2333 18.4675 83.0599 25.3981 82.9817 25.5796C82.7079 24.7856 82.5124 23.9689 82.2777 23.1749C81.6519 21.1785 81.1044 19.1481 80.5177 17.1518C80.2439 16.267 80.2048 15.3482 79.3052 15.2802C78.8359 15.2461 78.2493 15.2688 77.7408 15.2688C76.8413 15.2688 76.0981 15.3142 75.9026 16.5279L74.0253 27.1222C73.8688 27.9957 73.7515 28.8691 73.5951 29.7538C73.3604 31.0242 74.4946 30.7293 75.6288 30.7293C76.1373 30.7293 76.4502 30.5932 76.6066 30.1735C76.6848 29.9467 77.6235 24.2411 77.7799 23.5265C77.819 23.1068 78.132 21.0878 78.2493 20.8723Z" fill="white"/>
<path fill-rule="evenodd" clip-rule="evenodd" d="M109.577 18.1726C110.907 18.0819 111.728 18.4335 111.885 19.7266C111.963 20.8042 111.65 22.154 111.494 23.1975C111.102 25.4888 110.829 27.6667 108.365 27.8255C106.996 27.9162 106.174 27.5759 106.057 26.2715C105.979 25.2052 106.292 23.8441 106.448 22.8119C106.839 20.4752 107.074 18.3427 109.577 18.1726ZM109.342 15.1554C107.113 15.3595 105.627 16.335 104.727 17.6168C103.632 19.2162 103.358 20.8042 103.006 23.0047C102.615 25.1939 102.263 27.1336 103.437 28.9257C104.375 30.3663 106.174 31.0582 108.599 30.8427C110.633 30.6612 112.041 29.9126 113.214 28.3813C114.27 26.9521 114.583 25.0465 114.935 22.9934C115.326 20.8269 115.639 18.8418 114.466 17.095C113.488 15.6545 111.846 14.9285 109.342 15.1554Z" fill="white"/>
<path fill-rule="evenodd" clip-rule="evenodd" d="M48.2903 18.1843C49.62 18.0709 50.4805 18.3771 50.6369 19.6475C50.7542 20.6911 50.4413 22.109 50.2849 23.1298C49.8938 25.4098 49.62 27.6103 47.2343 27.8258C45.8654 27.9393 45.005 27.6217 44.8485 26.3399C44.7312 25.2737 45.0441 23.9238 45.2005 22.8803C45.5916 20.5777 45.8263 18.3885 48.2903 18.1843ZM48.1729 15.1557C45.8654 15.3599 44.4965 16.2787 43.5187 17.5945C42.4236 19.0804 42.1499 20.8272 41.7978 22.971C41.4067 25.1602 41.0547 27.0999 42.228 28.9148C43.1276 30.344 44.9658 31.0586 47.3516 30.8431C49.62 30.6389 51.0672 29.6747 51.9667 28.393C53.1009 26.8503 53.3356 25.1829 53.7267 23.0164C54.0787 20.8726 54.4307 18.8535 53.2574 17.1294C52.0841 15.4279 50.2458 14.9629 48.1729 15.1557Z" fill="white"/>
<path fill-rule="evenodd" clip-rule="evenodd" d="M91.1168 24.2298C92.3292 24.2298 93.5417 24.2298 94.7932 24.2298C95.1452 24.2298 96.2403 24.2865 96.5532 24.1504C97.0225 23.9235 97.0225 23.5152 97.1398 22.914C97.2181 22.3695 97.4136 21.8024 96.9834 21.4848C96.7096 21.2692 95.7318 21.36 95.3016 21.36C94.5585 21.36 92.1728 21.394 91.6252 21.3486C91.7034 20.8269 91.8208 20.2484 91.899 19.7153C92.0163 19.1254 92.1337 18.649 92.4856 18.3541C92.8768 18.0478 93.6198 18.1272 94.1674 18.1272C94.8323 18.1272 95.4972 18.1272 96.123 18.1272C96.5923 18.1272 97.6092 18.2066 97.9221 18.0025C98.3914 17.7189 98.3523 17.2198 98.4696 16.5959C98.5869 15.9154 98.6652 15.5297 97.9221 15.3936C97.3745 15.2915 96.7879 15.2121 96.2012 15.1781C94.5194 15.0533 91.4297 14.8831 90.0999 16.2216C89.2394 17.061 88.8875 17.9117 88.6528 19.1254C88.4181 20.203 88.2616 21.3486 88.0661 22.4376C87.8706 23.5265 87.675 24.6381 87.4795 25.727C87.2839 26.8954 87.0883 27.9843 87.6359 29.0392C88.6137 30.9448 90.9603 30.9902 93.5025 30.8314C94.1283 30.7974 94.6759 30.718 95.2234 30.6272C95.9665 30.5138 96.0447 30.3777 96.2012 29.6517C96.2794 29.1413 96.5141 28.3813 96.1621 28.041C95.8883 27.7688 94.8714 27.8709 94.363 27.8709C93.7372 27.8709 93.1114 27.8709 92.4465 27.8709C90.6083 27.8709 90.491 27.9843 90.843 25.8858C90.8821 25.5229 91.0385 24.502 91.1168 24.2298Z" fill="white"/>
<path fill-rule="evenodd" clip-rule="evenodd" d="M61.3924 15.2915C60.884 15.4049 60.7667 15.6885 60.6884 16.2329C60.6102 16.698 60.532 17.1631 60.4538 17.6281C60.2974 18.5469 60.1409 19.477 59.9845 20.3958C59.6324 22.2674 59.3196 24.1277 59.0067 25.9879C58.3418 29.8445 60.4538 30.9788 63.6217 30.8767C64.5604 30.8427 65.812 30.786 66.6333 30.5818C67.1808 30.4571 67.2591 30.2189 67.3373 29.6517C67.4155 29.3114 67.572 28.5514 67.4546 28.2565C67.2982 27.7915 66.7898 27.8708 66.2422 27.8708C65.46 27.8708 63.5826 27.9049 62.9569 27.8708C62.3311 27.8255 62.2138 27.6326 62.2529 26.9748C62.292 26.3622 63.6217 19.0347 63.7 18.5696C63.7782 18.1386 64.1693 16.0628 64.1302 15.7792C64.0129 15.2688 63.5436 15.2688 62.996 15.2688C62.644 15.2688 61.6662 15.2348 61.3924 15.2915Z" fill="#FFCC28"/>
<path fill-rule="evenodd" clip-rule="evenodd" d="M71.7959 15.2915C71.0919 15.4276 71.131 16.2329 70.9746 17.1177L68.9799 28.438C68.9017 28.8123 68.8626 29.1866 68.7844 29.5723C68.5497 30.8654 69.1364 30.7293 70.1533 30.7293C72.1088 30.7293 71.9524 30.8541 72.3044 28.869C72.4217 28.1204 72.5782 27.3604 72.6955 26.6118L74.4946 16.4258C74.5728 15.9947 74.6119 15.6318 74.2991 15.4049C74.0644 15.2121 73.5168 15.2688 73.1257 15.2688C72.8128 15.2688 72.1088 15.2348 71.7959 15.2915Z" fill="white"/>
<path fill-rule="evenodd" clip-rule="evenodd" d="M99.0172 22.0973C98.6652 22.1653 98.6652 22.4149 98.5869 22.7665C98.5087 23.1749 98.4696 23.3904 98.939 23.3904L101.168 23.379C101.52 23.3223 101.559 23.0728 101.598 22.7098C101.755 21.9498 101.52 22.0973 100.112 22.0973C99.8776 22.0973 99.2127 22.0632 99.0172 22.0973Z" fill="white"/>
<path fill-rule="evenodd" clip-rule="evenodd" d="M55.604 22.1086C55.2911 22.1653 55.252 22.4262 55.1738 22.7552C55.0174 23.5265 55.1738 23.3904 56.6209 23.3904C57.8725 23.3904 57.9898 23.5492 58.1462 22.7211C58.2244 22.2901 58.2244 22.0973 57.716 22.0973C57.2858 22.0973 55.956 22.0292 55.604 22.1086Z" fill="white"/>
<path fill-rule="evenodd" clip-rule="evenodd" d="M24.0009 13.6061C30.1817 13.6061 35.1921 18.6273 35.1921 24.8211C35.1921 31.015 30.1817 36.036 24.0009 36.036C17.8202 36.036 12.8097 31.015 12.8097 24.8211C12.8097 18.6273 17.8202 13.6061 24.0009 13.6061ZM24.0009 17.5634C28.0008 17.5634 31.2433 20.8128 31.2433 24.8211C31.2433 28.8294 28.0008 32.0788 24.0009 32.0788C20.0012 32.0788 16.7586 28.8294 16.7586 24.8211C16.7586 20.8128 20.0012 17.5634 24.0009 17.5634Z" fill="white"/>
<path fill-rule="evenodd" clip-rule="evenodd" d="M31.7158 12.241L25.9536 12.2317L16.5166 36.8357C16.1498 37.7856 16.7232 38.7878 18.0718 38.886L26.1297 38.8767L28.9969 34.8592L23.0359 34.8596L31.7158 12.241Z" fill="#FFCC28"/>
<path fill-rule="evenodd" clip-rule="evenodd" d="M24.0009 22.2422C25.4222 22.2422 26.5744 23.3968 26.5744 24.8211C26.5744 26.2454 25.4222 27.4 24.0009 27.4C22.5796 27.4 21.4274 26.2454 21.4274 24.8211C21.4274 23.3968 22.5796 22.2422 24.0009 22.2422ZM24.0009 18.3827C27.5492 18.3827 30.4257 21.2653 30.4257 24.8212C30.4257 28.377 27.5492 31.2595 24.0009 31.2595C20.4527 31.2595 17.5761 28.377 17.5761 24.8212C17.5761 21.2653 20.4527 18.3827 24.0009 18.3827Z" fill="white"/>
</g>
<defs>
<clipPath id="clip0_10_141">
<rect width="128" height="50" fill="white"/>
</clipPath>
</defs>
</svg>
