<svg width="93" height="24" viewBox="0 0 93 24" fill="none" xmlns="http://www.w3.org/2000/svg">
<g clip-path="url(#clip0_290_2333)">
<path fill-rule="evenodd" clip-rule="evenodd" d="M-10.667 -45.0095H103.199V69.1139H-10.667V-45.0095Z" fill="#1B325E"/>
<path fill-rule="evenodd" clip-rule="evenodd" d="M-8.11621 -41.6545V65.7584H100.648V-41.6545H-8.11621ZM-7.62174 -41.0041V65.1079H100.154V-41.0041H-7.62174Z" fill="#1B325E"/>
<path fill-rule="evenodd" clip-rule="evenodd" d="M26.1921 20.8098L26.5918 18.5445C26.6083 18.4613 26.6511 18.416 26.735 18.4023C26.7957 18.3924 26.8602 18.3874 26.9217 18.3825C27.0115 18.3753 27.1016 18.37 27.1917 18.3663C27.2649 18.3632 27.3382 18.3613 27.4115 18.3613C27.9566 18.3613 28.3532 18.6365 28.3532 19.2108C28.3532 19.29 28.3456 19.3697 28.3323 19.4478L28.2483 19.943C28.1255 20.6672 27.6929 21.0136 26.9644 21.0136C26.8958 21.0136 26.8271 21.0119 26.7585 21.009C26.6678 21.0055 26.5769 21.0001 26.4863 20.9927C26.4256 20.9878 26.3609 20.9828 26.3022 20.9727C26.2331 20.9628 26.1875 20.9205 26.1875 20.848C26.1875 20.8339 26.1882 20.8229 26.1921 20.8098ZM29.5891 18.3882H29.9219C29.9979 18.3882 30.037 18.4302 30.0262 18.5066L30.0259 18.5084L29.6091 20.8801C29.5964 20.9526 29.5582 20.9869 29.4816 20.9869H29.1488C29.0748 20.9869 29.0343 20.9331 29.0482 20.8636L29.465 18.4918C29.4766 18.4258 29.5215 18.3884 29.5891 18.3884V18.3882ZM31.834 20.5096L31.9787 19.6876C31.9909 19.6186 32.0299 19.5808 32.1029 19.5808H32.4357C32.5113 19.5808 32.5503 19.6293 32.5363 19.7041L32.3382 20.835C32.3281 20.9004 32.2883 20.9415 32.2238 20.9553L32.2228 20.9555C31.9766 21.0029 31.7211 21.0136 31.471 21.0136C31.2923 21.0136 31.104 20.947 30.9651 20.8346C30.7618 20.67 30.6806 20.4306 30.6806 20.1742C30.6806 20.0898 30.6891 20.0056 30.7048 19.9235L30.7888 19.4384C30.902 18.7853 31.2401 18.3613 31.9281 18.3613C32.0755 18.3613 32.2233 18.3694 32.3699 18.3842C32.4628 18.3937 32.5577 18.4055 32.6495 18.4227C32.7219 18.4363 32.7536 18.4748 32.7413 18.5487L32.7008 18.7754C32.6846 18.8568 32.6454 18.8923 32.5591 18.8842C32.3514 18.865 32.1434 18.8575 31.9349 18.8575C31.8112 18.8575 31.6797 18.8756 31.5792 18.9536C31.435 19.0655 31.3827 19.2842 31.3531 19.4547L31.2692 19.9392C31.2581 20.0088 31.2496 20.0801 31.2496 20.1506C31.2496 20.3506 31.3198 20.5174 31.5416 20.5174C31.6393 20.5174 31.7366 20.5152 31.834 20.5096ZM33.8705 18.3882H34.2033C34.2792 18.3882 34.3184 18.4302 34.3075 18.5066L34.3072 18.5084L33.8904 20.8801C33.8777 20.9526 33.8395 20.9869 33.7629 20.9869H33.4301C33.3562 20.9869 33.3157 20.9331 33.3295 20.8636L33.7463 18.4918C33.7579 18.4258 33.8028 18.3884 33.8705 18.3884V18.3882ZM36.3233 18.8743L35.9706 20.8799C35.9581 20.9508 35.9173 20.9867 35.8431 20.9867H35.5103C35.4396 20.9867 35.3982 20.9323 35.4097 20.8633L35.7595 18.8743H35.228C35.1579 18.8743 35.1133 18.8322 35.1237 18.7593L35.124 18.7575L35.1711 18.4909C35.1841 18.4216 35.2268 18.388 35.2952 18.388H36.9388C37.0165 18.388 37.0563 18.4318 37.0428 18.508L36.9956 18.7752C36.9821 18.8429 36.938 18.8741 36.8716 18.8741L36.3233 18.8743ZM38.8197 20.2893H38.1229L37.8658 20.9011C37.8428 20.953 37.8093 20.9867 37.7484 20.9867H37.3787C37.3249 20.9867 37.2807 20.9511 37.2807 20.8952C37.2807 20.879 37.2847 20.8649 37.2899 20.8498L37.2908 20.8476L38.2126 18.7333C38.2693 18.6034 38.3518 18.4859 38.4805 18.4204C38.5765 18.3716 38.678 18.3611 38.7839 18.3611C39.0356 18.3611 39.2152 18.4827 39.238 18.7483L39.4197 20.8626V20.8648C39.4197 20.867 39.4197 20.8693 39.4197 20.8716C39.4197 20.9451 39.3756 20.9866 39.3016 20.9866H38.9587C38.8907 20.9866 38.8645 20.9488 38.8577 20.8869L38.8576 20.8856L38.8197 20.2893ZM41.6273 20.9653C41.5799 20.976 41.5284 20.9819 41.4801 20.9873C41.414 20.9946 41.3476 21.0001 41.2812 21.0044C41.2007 21.0097 41.1193 21.0136 41.0387 21.0136C40.6661 21.0136 40.3256 20.8633 40.3256 20.4337C40.3256 20.3773 40.3264 20.3228 40.3364 20.2671L40.6456 18.4951C40.6577 18.4257 40.7012 18.3882 40.7731 18.3882H41.1059C41.1795 18.3882 41.217 18.4384 41.2068 18.51L41.2065 18.5113L40.8974 20.2824C40.892 20.3177 40.8879 20.3538 40.8879 20.3897C40.8879 20.4189 40.891 20.4573 40.9117 20.4802C40.943 20.5149 41.0196 20.5172 41.0622 20.5172H41.6807C41.739 20.5172 41.782 20.5606 41.782 20.6188C41.782 20.6233 41.782 20.6277 41.782 20.6322V20.6362L41.7446 20.8545C41.7344 20.9259 41.6923 20.952 41.6273 20.965V20.9653ZM44.6348 18.3882H44.9676C45.0435 18.3882 45.0827 18.4302 45.0718 18.5066L45.0715 18.5084L44.6547 20.8801C44.642 20.9526 44.6038 20.9869 44.5272 20.9869H44.1944C44.1205 20.9869 44.08 20.9331 44.0938 20.8636L44.5106 18.4918C44.5222 18.4258 44.5671 18.3884 44.6348 18.3884V18.3882ZM46.4418 19.2857L46.1635 20.8798C46.1512 20.9505 46.1148 20.9867 46.0393 20.9867H45.7536C45.6812 20.9867 45.6388 20.9344 45.653 20.8633L46.0564 18.5624C46.0732 18.4662 46.1633 18.3882 46.2612 18.3882H46.6006C46.7034 18.3882 46.7445 18.434 46.774 18.5303L47.248 20.1582L47.5421 18.4916C47.5533 18.4275 47.5964 18.3882 47.6628 18.3882H47.9519C48.0255 18.3882 48.0672 18.4346 48.0525 18.5082L47.6458 20.8125C47.6289 20.9086 47.5388 20.9867 47.441 20.9867H47.125C47.084 20.9867 47.0427 20.9866 47.0039 20.971C46.9423 20.9463 46.9114 20.8919 46.8945 20.8311L46.4418 19.2857ZM48.6412 20.8098L49.0409 18.5445C49.0575 18.4613 49.1002 18.416 49.1841 18.4023C49.2448 18.3924 49.3094 18.3874 49.3708 18.3825C49.4606 18.3753 49.5507 18.37 49.6408 18.3663C49.714 18.3632 49.7873 18.3613 49.8606 18.3613C50.4057 18.3613 50.8023 18.6365 50.8023 19.2108C50.8023 19.29 50.7947 19.3697 50.7815 19.4478L50.6974 19.943C50.5746 20.6672 50.142 21.0136 49.4136 21.0136C49.3449 21.0136 49.2762 21.0119 49.2077 21.009C49.1169 21.0055 49.026 21.0001 48.9354 20.9927C48.8747 20.9878 48.81 20.9828 48.7514 20.9727C48.6823 20.9628 48.6366 20.9205 48.6366 20.848C48.6366 20.8339 48.6375 20.8229 48.6412 20.8098ZM52.0047 18.3882H52.3374C52.4134 18.3882 52.4525 18.4302 52.4417 18.5066L52.4414 18.5084L52.0246 20.8801C52.0119 20.9526 51.9737 20.9869 51.8971 20.9869H51.5643C51.4903 20.9869 51.4498 20.9331 51.4637 20.8636L51.8805 18.4918C51.8921 18.4258 51.937 18.3884 52.0047 18.3884V18.3882ZM54.4032 20.2893H53.7063L53.4493 20.9011C53.4263 20.953 53.3927 20.9867 53.3319 20.9867H52.9621C52.9083 20.9867 52.8642 20.9511 52.8642 20.8952C52.8642 20.879 52.8681 20.8649 52.8733 20.8498L52.8742 20.8476L53.7961 18.7333C53.8526 18.6034 53.9351 18.4859 54.0639 18.4204C54.1599 18.3716 54.2614 18.3611 54.3674 18.3611C54.6189 18.3611 54.7986 18.4827 54.8215 18.7483L55.0032 20.8626V20.8648C55.0032 20.867 55.0032 20.8693 55.0032 20.8716C55.0032 20.9451 54.959 20.9866 54.885 20.9866H54.5421C54.4741 20.9866 54.4479 20.9488 54.4411 20.8869L54.4409 20.8856L54.4032 20.2893ZM58.546 19.6569L59.182 20.8463L59.1823 20.8467C59.191 20.8643 59.1974 20.8818 59.1974 20.9017C59.1974 20.961 59.1454 20.9865 59.0927 20.9865H58.6692C58.6169 20.9865 58.5798 20.9711 58.556 20.9229L58.0524 19.9045L57.8824 20.8796C57.8699 20.9513 57.8252 20.9865 57.7549 20.9865H57.4221C57.3514 20.9865 57.3095 20.9319 57.3215 20.8632L57.7349 18.4915C57.7471 18.4214 57.7921 18.388 57.8624 18.388H58.1952C58.2724 18.388 58.3103 18.4307 58.2959 18.508L58.1424 19.3851L59.0162 18.4316C59.0483 18.3941 59.0896 18.388 59.1364 18.388H59.5465C59.5979 18.388 59.6511 18.4102 59.6511 18.4694C59.6511 18.5047 59.6276 18.5397 59.6041 18.5632L58.546 19.6569ZM60.6451 18.3882H60.9779C61.0539 18.3882 61.093 18.4302 61.0821 18.5066L61.0819 18.5084L60.6651 20.8801C60.6523 20.9526 60.6141 20.9869 60.5375 20.9869H60.2048C60.1308 20.9869 60.0903 20.9331 60.1042 20.8636L60.5209 18.4918C60.5326 18.4258 60.5774 18.3884 60.6451 18.3884V18.3882ZM64.5495 20.2893H63.8527L63.5956 20.9011C63.5726 20.953 63.539 20.9867 63.4782 20.9867H63.1085C63.0547 20.9867 63.0105 20.9511 63.0105 20.8952C63.0105 20.879 63.0144 20.8649 63.0197 20.8498L63.0205 20.8476L63.9424 18.7333C63.999 18.6034 64.0815 18.4859 64.2103 18.4204C64.3063 18.3716 64.4077 18.3611 64.5137 18.3611C64.7653 18.3611 64.945 18.4827 64.9678 18.7483L65.1495 20.8626V20.8648C65.1495 20.867 65.1495 20.8693 65.1495 20.8716C65.1495 20.9451 65.1054 20.9866 65.0313 20.9866H64.6885C64.6205 20.9866 64.5943 20.9488 64.5875 20.8869L64.5873 20.8856L64.5495 20.2893ZM66.6702 20.0454L66.5228 20.8799C66.5109 20.9473 66.4694 20.9867 66.3987 20.9867H66.0626C65.9864 20.9867 65.9478 20.9345 65.9619 20.8633L66.3689 18.5445C66.387 18.4535 66.4463 18.4185 66.5329 18.4056C66.752 18.3729 66.9841 18.3613 67.2054 18.3613C67.7064 18.3613 68.0967 18.5346 68.0967 19.094C68.0967 19.2623 68.0617 19.4289 67.978 19.576C67.765 19.9499 67.3272 20.0568 66.9264 20.0568C66.8411 20.0568 66.7555 20.05 66.6702 20.0454ZM69.4426 19.2857L69.1644 20.8798C69.152 20.9505 69.1157 20.9867 69.0402 20.9867H68.7545C68.6821 20.9867 68.6397 20.9344 68.6539 20.8633L69.0572 18.5624C69.074 18.4662 69.1641 18.3882 69.262 18.3882H69.6015C69.7043 18.3882 69.7453 18.434 69.7749 18.5303L70.2489 20.1582L70.5429 18.4916C70.5542 18.4275 70.5973 18.3882 70.6637 18.3882H70.9528C71.0263 18.3882 71.0681 18.4346 71.0534 18.5082L70.6467 20.8125C70.6297 20.9086 70.5397 20.9867 70.4418 20.9867H70.1259C70.0848 20.9867 70.0435 20.9866 70.0047 20.971C69.9432 20.9463 69.9122 20.8919 69.8954 20.8311L69.4426 19.2857ZM72.1758 18.3882H72.5086C72.5845 18.3882 72.6237 18.4302 72.6128 18.5066L72.6125 18.5084L72.1957 20.8801C72.183 20.9526 72.1448 20.9869 72.0682 20.9869H71.7355C71.6615 20.9869 71.621 20.9331 71.6348 20.8636L72.0516 18.4918C72.0632 18.4258 72.1081 18.3884 72.1758 18.3884V18.3882ZM74.7407 20.8098L75.1404 18.5445C75.157 18.4613 75.1997 18.416 75.2836 18.4023C75.3443 18.3924 75.4089 18.3874 75.4703 18.3825C75.5601 18.3753 75.6503 18.37 75.7403 18.3663C75.8135 18.3632 75.8869 18.3613 75.9602 18.3613C76.5052 18.3613 76.9018 18.6365 76.9018 19.2108C76.9018 19.29 76.8942 19.3697 76.881 19.4478L76.7969 19.943C76.6741 20.6672 76.2416 21.0136 75.5131 21.0136C75.4445 21.0136 75.3758 21.0119 75.3072 21.009C75.2164 21.0055 75.1255 21.0001 75.0349 20.9927C74.9742 20.9878 74.9095 20.9828 74.8509 20.9727C74.7817 20.9628 74.7361 20.9205 74.7361 20.848C74.7361 20.8339 74.737 20.8229 74.7407 20.8098ZM79.4689 18.3882H79.805C79.8785 18.3882 79.9169 18.4348 79.9058 18.5071L79.6367 20.0209C79.5772 20.3553 79.4502 20.6938 79.1426 20.8727C78.9511 20.984 78.7255 21.0136 78.5075 21.0136C78.0154 21.0136 77.6734 20.7802 77.6734 20.2585C77.6734 20.1727 77.6782 20.0879 77.6943 20.0042L77.9632 18.4915C77.9738 18.4319 78.0272 18.3882 78.0874 18.3882H78.4201C78.4944 18.3882 78.535 18.4318 78.5244 18.5066L78.5241 18.5084L78.2552 20.021C78.2411 20.1004 78.229 20.1845 78.229 20.2653C78.229 20.3274 78.2368 20.4011 78.2789 20.4502C78.3424 20.5241 78.4788 20.531 78.568 20.531C78.6786 20.531 78.7992 20.5159 78.8876 20.4431C79.0072 20.3447 79.05 20.1492 79.0758 20.0043L79.3447 18.4917C79.3564 18.4257 79.4012 18.3883 79.4689 18.3883V18.3882ZM81.6948 19.6569L82.3307 20.8463L82.3311 20.8467C82.3398 20.8643 82.3462 20.8818 82.3462 20.9017C82.3462 20.961 82.2942 20.9865 82.2414 20.9865H81.8179C81.7657 20.9865 81.7286 20.9711 81.7047 20.9229L81.2011 19.9045L81.0312 20.8796C81.0187 20.9513 80.974 20.9865 80.9036 20.9865H80.5709C80.5001 20.9865 80.4583 20.9319 80.4702 20.8632L80.8837 18.4915C80.8959 18.4214 80.9409 18.388 81.0112 18.388H81.344C81.4211 18.388 81.459 18.4307 81.4446 18.508L81.2912 19.3851L82.165 18.4316C82.1971 18.3941 82.2384 18.388 82.2851 18.388H82.6952C82.7467 18.388 82.7999 18.4102 82.7999 18.4694C82.7999 18.5047 82.7764 18.5397 82.7529 18.5632L81.6948 19.6569ZM84.5324 20.2893H83.8355L83.5785 20.9011C83.5555 20.953 83.5219 20.9867 83.4611 20.9867H83.0914C83.0376 20.9867 82.9934 20.9511 82.9934 20.8952C82.9934 20.879 82.9973 20.8649 83.0026 20.8498L83.003 20.8476L83.9249 18.7333C83.9815 18.6034 84.064 18.4859 84.1927 18.4204C84.2887 18.3716 84.3902 18.3611 84.4962 18.3611C84.7478 18.3611 84.9275 18.4827 84.9503 18.7483L85.132 20.8626V20.8648C85.132 20.867 85.132 20.8693 85.132 20.8716C85.132 20.9451 85.0878 20.9866 85.0138 20.9866H84.671C84.603 20.9866 84.5768 20.9488 84.5699 20.8869L84.5698 20.8856L84.5324 20.2893ZM87.2915 20.2893H86.5947L86.3377 20.9011C86.3146 20.953 86.2811 20.9867 86.2203 20.9867H85.8505C85.7967 20.9867 85.7525 20.9511 85.7525 20.8952C85.7525 20.879 85.7565 20.8649 85.7617 20.8498L85.7621 20.8476L86.684 18.7333C86.7406 18.6034 86.8231 18.4859 86.9519 18.4204C87.0479 18.3716 87.1494 18.3611 87.2553 18.3611C87.5069 18.3611 87.6866 18.4827 87.7094 18.7483L87.8911 20.8626V20.8648C87.8911 20.867 87.8911 20.8693 87.8911 20.8716C87.8911 20.9451 87.8469 20.9866 87.773 20.9866H87.4301C87.3621 20.9866 87.3359 20.9488 87.3291 20.8869L87.3289 20.8856L87.2915 20.2893ZM89.4927 19.2857L89.2145 20.8798C89.2021 20.9505 89.1658 20.9867 89.0903 20.9867H88.8046C88.7323 20.9867 88.6898 20.9344 88.704 20.8633L89.1073 18.5624C89.1242 18.4662 89.2143 18.3882 89.3122 18.3882H89.6517C89.7544 18.3882 89.7954 18.434 89.8251 18.5303L90.2991 20.1582L90.593 18.4916C90.6044 18.4275 90.6474 18.3882 90.7138 18.3882H91.0029C91.0765 18.3882 91.1182 18.4346 91.1035 18.5082L90.6968 20.8125C90.6798 20.9086 90.5899 20.9867 90.492 20.9867H90.176C90.135 20.9867 90.0936 20.9866 90.0549 20.971C89.9933 20.9463 89.9623 20.8919 89.9455 20.8311L89.4927 19.2857ZM27.0989 18.859L26.8088 20.5167C26.8831 20.5202 26.9565 20.5241 27.0317 20.5241C27.4222 20.5241 27.6256 20.3103 27.6906 19.9271L27.7747 19.4318C27.7861 19.3649 27.7942 19.2956 27.7942 19.2276C27.7942 18.9176 27.6239 18.8508 27.3443 18.8508C27.2617 18.8508 27.1808 18.8547 27.0989 18.859ZM38.79 19.8099L38.7263 18.8609C38.726 18.8587 38.7258 18.8547 38.7254 18.8509C38.7245 18.851 38.7232 18.8511 38.7223 18.8513C38.7183 18.8557 38.7118 18.8706 38.7098 18.8753L38.3205 19.8099H38.79ZM49.548 18.859L49.258 20.5167C49.3322 20.5202 49.4056 20.5241 49.4808 20.5241C49.8713 20.5241 50.0747 20.3103 50.1398 19.9271L50.2238 19.4318C50.2352 19.3649 50.2433 19.2956 50.2433 19.2276C50.2433 18.9176 50.073 18.8508 49.7934 18.8508C49.7108 18.8508 49.6299 18.8547 49.548 18.859ZM54.3734 19.8099L54.3097 18.8609C54.3095 18.8587 54.3092 18.8547 54.3088 18.8509C54.3079 18.851 54.3066 18.8511 54.3062 18.8513C54.3022 18.8557 54.2957 18.8706 54.2937 18.8753L53.9044 19.8099H54.3734ZM64.5198 19.8099L64.456 18.8609C64.4558 18.8587 64.4556 18.8547 64.4551 18.8509C64.4543 18.851 64.453 18.8511 64.4525 18.8513C64.4486 18.8557 64.442 18.8706 64.44 18.8753L64.0507 19.8099H64.5198ZM66.8762 18.8539L66.7506 19.5702C66.7827 19.5715 66.8148 19.5729 66.8467 19.5737C66.8954 19.5755 66.9449 19.5773 66.9936 19.5773C67.3123 19.5773 67.541 19.4297 67.541 19.0938C67.541 19.0392 67.5327 18.9795 67.4968 18.9361C67.4241 18.848 67.2414 18.8439 67.1382 18.8439C67.09 18.8439 67.0414 18.8456 66.9933 18.8478C66.955 18.8496 66.9151 18.8509 66.8762 18.8539V18.8539ZM75.6475 18.859L75.3575 20.5167C75.4318 20.5202 75.5052 20.5241 75.5803 20.5241C75.9708 20.5241 76.1743 20.3103 76.2393 19.9271L76.3233 19.4318C76.3347 19.3649 76.3428 19.2956 76.3428 19.2276C76.3428 18.9176 76.1725 18.8508 75.8929 18.8508C75.8103 18.8508 75.7294 18.8547 75.6475 18.859ZM84.5027 19.8099L84.4389 18.8609C84.4387 18.8587 84.4385 18.8547 84.438 18.8509C84.4372 18.851 84.4358 18.8511 84.4354 18.8513C84.4315 18.8557 84.4249 18.8706 84.4229 18.8753L84.0336 19.8099H84.5027ZM87.2618 19.8099L87.1981 18.8609C87.1978 18.8587 87.1976 18.8547 87.1972 18.8509C87.1963 18.851 87.195 18.8511 87.1941 18.8513C87.1902 18.8557 87.1836 18.8706 87.1816 18.8753L86.7923 19.8099H87.2618Z" fill="white"/>
<path fill-rule="evenodd" clip-rule="evenodd" d="M58.8884 7.88585C58.9926 8.04718 59.4098 9.67049 59.5141 10.0133C59.9313 11.4148 60.3485 12.9272 60.7657 14.3085C60.9395 14.8631 61.1828 16.0326 61.4958 16.3553C61.8086 16.6477 62.0867 16.6477 62.6082 16.6477C63.0602 16.6477 63.5121 16.6477 63.9988 16.6477C65.0765 16.6477 65.1808 15.8713 65.2852 15.1857C65.598 13.6027 65.8414 12.0399 66.1195 10.4569C66.2238 9.88222 67.3711 3.64106 67.3363 3.35874C67.2668 2.9151 66.8843 2.90502 66.3976 2.90502C64.4856 2.90502 64.7637 2.67312 64.3465 4.99213C64.2074 5.74833 63.1645 11.9088 63.0949 12.0702C62.8516 11.3644 62.6778 10.6384 62.4691 9.93264C61.9129 8.15809 61.4262 6.35329 60.9047 4.57874C60.6614 3.79229 60.6266 2.9756 59.827 2.91511C59.4098 2.88486 58.8884 2.90502 58.4364 2.90502C57.6368 2.90502 56.9762 2.94535 56.8024 4.0242L55.1337 13.4414C54.9946 14.2178 54.8903 14.9941 54.7513 15.7806C54.5427 16.9098 55.5509 16.6477 56.5591 16.6477C57.011 16.6477 57.2891 16.5267 57.4282 16.1536C57.4977 15.952 58.3321 10.8804 58.4712 10.2452C58.5059 9.87214 58.7841 8.07742 58.8884 7.88585Z" fill="white"/>
<path fill-rule="evenodd" clip-rule="evenodd" d="M86.7347 5.48655C87.9167 5.40589 88.6467 5.71845 88.7858 6.86787C88.8553 7.82573 88.5772 9.02556 88.4382 9.95317C88.0905 11.9899 87.8471 13.9257 85.6569 14.0669C84.4401 14.1476 83.7101 13.8451 83.6058 12.6856C83.5362 11.7378 83.8143 10.5279 83.9534 9.61036C84.3011 7.53333 84.5097 5.63779 86.7347 5.48655ZM86.526 2.80456C84.5444 2.98605 83.2234 3.85316 82.4238 4.9925C81.4503 6.41416 81.2069 7.82573 80.8941 9.78176C80.5464 11.7277 80.2335 13.4518 81.2765 15.0449C82.1108 16.3254 83.7101 16.9404 85.8655 16.7489C87.6733 16.5876 88.9249 15.9221 89.9678 14.5609C90.9065 13.2905 91.1846 11.5966 91.4975 9.77168C91.8451 7.84589 92.1233 6.08143 91.0803 4.5287C90.2112 3.2482 88.751 2.60291 86.526 2.80456Z" fill="white"/>
<path fill-rule="evenodd" clip-rule="evenodd" d="M32.2579 5.49646C33.4399 5.39563 34.2048 5.66786 34.3438 6.79712C34.4481 7.72473 34.17 8.98506 34.0309 9.8925C33.6833 11.9191 33.4399 13.8751 31.3192 14.0667C30.1024 14.1675 29.3376 13.8852 29.1985 12.7459C29.0942 11.7981 29.3724 10.5983 29.5114 9.67068C29.8591 7.6239 30.0677 5.67794 32.2579 5.49646ZM32.1536 2.80439C30.1024 2.98588 28.8857 3.80257 28.0165 4.97216C27.0431 6.29299 26.7998 7.84572 26.4868 9.75134C26.1392 11.6973 25.8263 13.4214 26.8693 15.0347C27.6689 16.3051 29.3028 16.9403 31.4235 16.7487C33.4399 16.5672 34.7262 15.7102 35.5258 14.5709C36.534 13.1996 36.7426 11.7175 37.0903 9.79167C37.4031 7.88605 37.7161 6.09133 36.6731 4.55877C35.6301 3.04637 33.9961 2.63298 32.1536 2.80439Z" fill="white"/>
<path fill-rule="evenodd" clip-rule="evenodd" d="M70.3256 10.8705C71.4033 10.8705 72.481 10.8705 73.5935 10.8705C73.9064 10.8705 74.8798 10.9209 75.1579 10.7999C75.5751 10.5982 75.5751 10.2352 75.6794 9.70087C75.749 9.2169 75.9228 8.71277 75.5403 8.43045C75.297 8.23888 74.4279 8.31954 74.0455 8.31954C73.3849 8.31954 71.2642 8.34979 70.7775 8.30946C70.847 7.84566 70.9514 7.33144 71.0209 6.85756C71.1251 6.33326 71.2295 5.90979 71.5423 5.64764C71.89 5.37541 72.5505 5.44598 73.0373 5.44598C73.6283 5.44598 74.2193 5.44598 74.7755 5.44598C75.1927 5.44598 76.0966 5.51656 76.3747 5.33508C76.7919 5.08301 76.7571 4.63937 76.8614 4.08483C76.9657 3.47987 77.0353 3.13706 76.3747 3.01607C75.888 2.92532 75.3665 2.85474 74.8451 2.8245C73.3501 2.71359 70.6037 2.56235 69.4217 3.7521C68.6568 4.49822 68.344 5.25442 68.1353 6.33326C67.9268 7.29111 67.7877 8.30946 67.6139 9.27739C67.4401 10.2453 67.2662 11.2334 67.0924 12.2014C66.9186 13.2399 66.7448 14.2078 67.2314 15.1455C68.1006 16.8394 70.1865 16.8797 72.4462 16.7386C73.0025 16.7083 73.4892 16.6377 73.9759 16.5571C74.6364 16.4562 74.706 16.3353 74.8451 15.69C74.9146 15.2362 75.1232 14.5607 74.8103 14.2582C74.5669 14.0162 73.663 14.107 73.2111 14.107C72.6548 14.107 72.0986 14.107 71.5076 14.107C69.8736 14.107 69.7693 14.2078 70.0822 12.3425C70.117 12.0199 70.256 11.1124 70.3256 10.8705Z" fill="white"/>
<path fill-rule="evenodd" clip-rule="evenodd" d="M43.9044 2.92504C43.4524 3.02587 43.3481 3.27793 43.2786 3.7619C43.2091 4.17529 43.1396 4.58868 43.07 5.00207C42.931 5.81876 42.7919 6.64554 42.6529 7.46223C42.34 9.12587 42.0618 10.7794 41.7837 12.433C41.1927 15.8611 43.07 16.8694 45.886 16.7786C46.7204 16.7484 47.8329 16.6979 48.5629 16.5165C49.0496 16.4056 49.1192 16.1938 49.1887 15.6897C49.2583 15.3872 49.3973 14.7117 49.293 14.4495C49.154 14.0361 48.702 14.1067 48.2153 14.1067C47.52 14.1067 45.8513 14.1369 45.295 14.1067C44.7388 14.0664 44.6345 13.895 44.6692 13.3102C44.704 12.7657 45.886 6.25232 45.9555 5.83893C46.0251 5.45579 46.3727 3.61066 46.338 3.35859C46.2337 2.90487 45.8165 2.90487 45.3298 2.90487C45.0169 2.90487 44.1478 2.87463 43.9044 2.92504Z" fill="#FFCC28"/>
<path fill-rule="evenodd" clip-rule="evenodd" d="M53.1524 2.92504C52.5266 3.04603 52.5614 3.7619 52.4223 4.54835L50.6493 14.6108C50.5797 14.9436 50.545 15.2763 50.4754 15.6191C50.2669 16.7685 50.7884 16.6475 51.6923 16.6475C53.4305 16.6475 53.2915 16.7584 53.6043 14.994C53.7086 14.3285 53.8477 13.653 53.952 12.9875L55.5512 3.9333C55.6207 3.55016 55.6555 3.22752 55.3774 3.02587C55.1688 2.85446 54.6821 2.90487 54.3344 2.90487C54.0563 2.90487 53.4305 2.87463 53.1524 2.92504Z" fill="white"/>
<path fill-rule="evenodd" clip-rule="evenodd" d="M77.3488 8.97524C77.0359 9.03573 77.0359 9.25755 76.9663 9.57011C76.8968 9.93309 76.862 10.1247 77.2792 10.1247L79.2608 10.1146C79.5737 10.0642 79.6085 9.84234 79.6432 9.5197C79.7823 8.84416 79.5737 8.97524 78.3222 8.97524C78.1136 8.97524 77.5226 8.94499 77.3488 8.97524Z" fill="white"/>
<path fill-rule="evenodd" clip-rule="evenodd" d="M38.7586 8.98478C38.4805 9.03519 38.4457 9.26709 38.3762 9.55949C38.2372 10.2451 38.3762 10.1241 39.6625 10.1241C40.775 10.1241 40.8793 10.2653 41.0183 9.52924C41.0879 9.1461 41.0879 8.97469 40.6359 8.97469C40.2535 8.97469 39.0715 8.9142 38.7586 8.98478Z" fill="white"/>
<path fill-rule="evenodd" clip-rule="evenodd" d="M10.6675 1.427C16.1614 1.427 20.6152 5.89023 20.6152 11.3959C20.6152 16.9015 16.1614 21.3647 10.6675 21.3647C5.17349 21.3647 0.719727 16.9015 0.719727 11.3959C0.719727 5.89023 5.17349 1.427 10.6675 1.427ZM10.6675 4.94457C14.2229 4.94457 17.1051 7.83293 17.1051 11.3959C17.1051 14.9588 14.2229 17.8472 10.6675 17.8472C7.1121 17.8472 4.22984 14.9588 4.22984 11.3959C4.22984 7.83293 7.1121 4.94457 10.6675 4.94457Z" fill="white"/>
<path fill-rule="evenodd" clip-rule="evenodd" d="M17.5249 0.213965L12.4029 0.205688L4.01447 22.0759C3.68847 22.9203 4.19814 23.8111 5.39685 23.8984L12.5595 23.8902L15.1081 20.3191L9.8094 20.3194L17.5249 0.213965Z" fill="#FFCC28"/>
<path fill-rule="evenodd" clip-rule="evenodd" d="M10.668 9.10424C11.9313 9.10424 12.9555 10.1306 12.9555 11.3966C12.9555 12.6627 11.9313 13.689 10.668 13.689C9.4046 13.689 8.38042 12.6627 8.38042 11.3966C8.38042 10.1306 9.4046 9.10424 10.668 9.10424ZM10.668 5.67358C13.822 5.67358 16.3789 8.2359 16.3789 11.3967C16.3789 14.5574 13.822 17.1196 10.668 17.1196C7.51396 17.1196 4.95703 14.5574 4.95703 11.3967C4.95703 8.2359 7.51396 5.67358 10.668 5.67358Z" fill="white"/>
</g>
<defs>
<clipPath id="clip0_290_2333">
<rect width="92.4445" height="24" fill="white"/>
</clipPath>
</defs>
</svg>
