<svg width="18" height="18" viewBox="0 0 18 18" fill="none" xmlns="http://www.w3.org/2000/svg">
<path d="M9 6.1875C7.4467 6.1875 6.1875 7.4467 6.1875 9C6.1875 10.5533 7.4467 11.8125 9 11.8125C10.5533 11.8125 11.8125 10.5533 11.8125 9C11.8125 7.4467 10.5533 6.1875 9 6.1875Z" fill="#1B325E"/>
<path fill-rule="evenodd" clip-rule="evenodd" d="M9 0.9375C9.31066 0.9375 9.5625 1.18934 9.5625 1.5V2.46127C12.7381 2.73085 15.2692 5.26186 15.5387 8.4375H16.5C16.8107 8.4375 17.0625 8.68934 17.0625 9C17.0625 9.31066 16.8107 9.5625 16.5 9.5625H15.5387C15.2692 12.7381 12.7381 15.2692 9.5625 15.5387V16.5C9.5625 16.8107 9.31066 17.0625 9 17.0625C8.68934 17.0625 8.4375 16.8107 8.4375 16.5V15.5387C5.26186 15.2692 2.73085 12.7381 2.46127 9.5625H1.5C1.18934 9.5625 0.9375 9.31066 0.9375 9C0.9375 8.68934 1.18934 8.4375 1.5 8.4375H2.46127C2.73085 5.26186 5.26186 2.73085 8.4375 2.46127V1.5C8.4375 1.18934 8.68934 0.9375 9 0.9375ZM3.5625 9C3.5625 12.003 5.99695 14.4375 9 14.4375C12.003 14.4375 14.4375 12.003 14.4375 9C14.4375 5.99695 12.003 3.5625 9 3.5625C5.99695 3.5625 3.5625 5.99695 3.5625 9Z" fill="#1B325E"/>
</svg>
