<svg width="24" height="24" viewBox="0 0 24 24" fill="none" xmlns="http://www.w3.org/2000/svg">
<path d="M11.2617 0.326103C11.6579 -0.108701 12.3421 -0.108701 12.7383 0.326103L14.1537 1.87965C14.4165 2.16809 14.8232 2.27707 15.195 2.15867L17.1976 1.52097C17.7581 1.3425 18.3506 1.68462 18.4763 2.25924L18.9253 4.31237C19.0087 4.69357 19.3064 4.9913 19.6876 5.07467L21.7408 5.52369C22.3154 5.64937 22.6575 6.24193 22.479 6.80241L21.8413 8.80499C21.7229 9.17679 21.8319 9.5835 22.1203 9.8463L23.6739 11.2617C24.1087 11.6579 24.1087 12.3421 23.6739 12.7383L22.1203 14.1537C21.8319 14.4165 21.7229 14.8232 21.8413 15.195L22.479 17.1976C22.6575 17.7581 22.3154 18.3506 21.7408 18.4763L19.6876 18.9253C19.3064 19.0087 19.0087 19.3064 18.9253 19.6876L18.4763 21.7408C18.3506 22.3154 17.7581 22.6575 17.1976 22.479L15.195 21.8413C14.8232 21.7229 14.4165 21.8319 14.1537 22.1203L12.7383 23.6739C12.3421 24.1087 11.6579 24.1087 11.2617 23.6739L9.8463 22.1203C9.5835 21.8319 9.17679 21.7229 8.80499 21.8413L6.80241 22.479C6.24193 22.6575 5.64937 22.3154 5.52369 21.7408L5.07467 19.6876C4.9913 19.3064 4.69357 19.0087 4.31237 18.9253L2.25924 18.4763C1.68462 18.3506 1.3425 17.7581 1.52097 17.1976L2.15867 15.195C2.27707 14.8232 2.16809 14.4165 1.87965 14.1537L0.326103 12.7383C-0.108701 12.3421 -0.108701 11.6579 0.326103 11.2617L1.87965 9.8463C2.16809 9.5835 2.27707 9.17679 2.15867 8.80499L1.52097 6.80241C1.3425 6.24193 1.68462 5.64937 2.25924 5.52369L4.31237 5.07467C4.69357 4.9913 4.9913 4.69357 5.07467 4.31237L5.52369 2.25924C5.64937 1.68462 6.24193 1.3425 6.80241 1.52097L8.80499 2.15867C9.1768 2.27707 9.5835 2.16809 9.8463 1.87965L11.2617 0.326103Z" fill="#FFCC28"/>
<path d="M8.505 12.51C7.755 12.51 7.15 12.245 6.69 11.715C6.23 11.185 6 10.49 6 9.63C6 8.77 6.23 8.075 6.69 7.545C7.15 7.015 7.755 6.75 8.505 6.75C9.255 6.75 9.86 7.015 10.32 7.545C10.79 8.065 11.025 8.76 11.025 9.63C11.025 10.5 10.79 11.2 10.32 11.73C9.86 12.25 9.255 12.51 8.505 12.51ZM14.805 6.855H16.275L9.105 17.355H7.635L14.805 6.855ZM8.505 11.46C8.915 11.46 9.23 11.3 9.45 10.98C9.68 10.66 9.795 10.21 9.795 9.63C9.795 9.05 9.68 8.6 9.45 8.28C9.23 7.96 8.915 7.8 8.505 7.8C8.115 7.8 7.8 7.965 7.56 8.295C7.33 8.615 7.215 9.06 7.215 9.63C7.215 10.2 7.33 10.65 7.56 10.98C7.8 11.3 8.115 11.46 8.505 11.46ZM15.39 17.46C14.64 17.46 14.035 17.195 13.575 16.665C13.115 16.135 12.885 15.44 12.885 14.58C12.885 13.72 13.115 13.025 13.575 12.495C14.035 11.965 14.64 11.7 15.39 11.7C16.14 11.7 16.745 11.965 17.205 12.495C17.675 13.025 17.91 13.72 17.91 14.58C17.91 15.44 17.675 16.135 17.205 16.665C16.745 17.195 16.14 17.46 15.39 17.46ZM15.39 16.41C15.79 16.41 16.105 16.25 16.335 15.93C16.565 15.6 16.68 15.15 16.68 14.58C16.68 14.01 16.565 13.565 16.335 13.245C16.105 12.915 15.79 12.75 15.39 12.75C14.99 12.75 14.675 12.91 14.445 13.23C14.215 13.55 14.1 14 14.1 14.58C14.1 15.16 14.215 15.61 14.445 15.93C14.675 16.25 14.99 16.41 15.39 16.41Z" fill="#1B325E"/>
</svg>
