<svg width="36" height="41" viewBox="0 0 36 41" fill="none" xmlns="http://www.w3.org/2000/svg">
<g clip-path="url(#clip0_2696_13290)">
<path fill-rule="evenodd" clip-rule="evenodd" d="M-16.7812 -73.9277H172.691V115.974H-16.7812V-73.9277Z" fill="#1B325E"/>
<path fill-rule="evenodd" clip-rule="evenodd" d="M-12.5391 -68.3452V110.39H168.445V-68.3452H-12.5391ZM-11.7163 -67.2628V109.307H167.622V-67.2628H-11.7163Z" fill="#1B325E"/>
<path fill-rule="evenodd" clip-rule="evenodd" d="M18.4085 3.54114C27.5505 3.54114 34.9615 10.9679 34.9615 20.1294C34.9615 29.2907 27.5505 36.7174 18.4085 36.7174C9.26653 36.7174 1.85547 29.2907 1.85547 20.1294C1.85547 10.9679 9.26653 3.54114 18.4085 3.54114ZM18.4085 9.39437C24.3247 9.39437 29.1207 14.2006 29.1207 20.1294C29.1207 26.0581 24.3247 30.8643 18.4085 30.8643C12.4924 30.8643 7.69629 26.0581 7.69629 20.1294C7.69629 14.2006 12.4924 9.39437 18.4085 9.39437Z" fill="white"/>
<path fill-rule="evenodd" clip-rule="evenodd" d="M29.8176 1.52256L21.2947 1.50879L7.33636 37.9008C6.79389 39.3058 7.64198 40.7882 9.63663 40.9335L21.5553 40.9197L25.7962 34.9774L16.9791 34.9779L29.8176 1.52256Z" fill="#FFCC28"/>
<path fill-rule="evenodd" clip-rule="evenodd" d="M18.4053 16.316C20.5076 16.316 22.2118 18.0238 22.2118 20.1305C22.2118 22.2373 20.5076 23.945 18.4053 23.945C16.3031 23.945 14.5989 22.2373 14.5989 20.1305C14.5989 18.0238 16.3031 16.316 18.4053 16.316ZM18.4053 10.6074C23.6536 10.6074 27.9084 14.8711 27.9084 20.1306C27.9084 25.39 23.6536 29.6537 18.4053 29.6537C13.1571 29.6537 8.90234 25.39 8.90234 20.1306C8.90234 14.8711 13.1571 10.6074 18.4053 10.6074Z" fill="white"/>
</g>
<defs>
<clipPath id="clip0_2696_13290">
<rect width="34.944" height="39.936" fill="white" transform="translate(0.96875 0.967896)"/>
</clipPath>
</defs>
</svg>
