<svg width="24" height="24" viewBox="0 0 24 24" fill="none" xmlns="http://www.w3.org/2000/svg">
<g clip-path="url(#clip0_691_2931)">
<path d="M1.41 1.13086L0 2.54086L4.39 6.93086L6.6 11.5909L5.25 14.0409C5.09 14.3209 5 14.6509 5 15.0009C5 16.1009 5.9 17.0009 7 17.0009H14.46L15.84 18.3809C15.34 18.7409 15.01 19.3309 15.01 20.0009C15.01 21.1009 15.9 22.0009 17 22.0009C17.67 22.0009 18.26 21.6709 18.62 21.1609L21.46 24.0009L22.87 22.5909L1.41 1.13086ZM7 15.0009L8.1 13.0009H10.46L12.46 15.0009H7ZM20 4.00086H7.12L9.12 6.00086H18.31L15.55 11.0009H14.11L16.05 12.9409C16.59 12.8009 17.04 12.4509 17.3 11.9709L20.88 5.48086C21.25 4.82086 20.76 4.00086 20 4.00086ZM7 18.0009C5.9 18.0009 5.01 18.9009 5.01 20.0009C5.01 21.1009 5.9 22.0009 7 22.0009C8.1 22.0009 9 21.1009 9 20.0009C9 18.9009 8.1 18.0009 7 18.0009Z" fill="#1B325E"/>
</g>
<defs>
<clipPath id="clip0_691_2931">
<rect width="24" height="24" fill="white"/>
</clipPath>
</defs>
</svg>
