<svg width="26" height="26" viewBox="0 0 26 26" fill="none" xmlns="http://www.w3.org/2000/svg">
<path d="M20.1488 10.5343C20.046 10.0201 19.5945 9.65004 19.0702 9.65004H6.9298C6.40545 9.65004 5.954 10.0201 5.85117 10.5343L5.60117 11.7843C5.46503 12.465 5.98565 13.1 6.67981 13.1H19.3202C20.0143 13.1 20.535 12.465 20.3988 11.7843L20.1488 10.5343ZM20.6667 4.43337C21.1637 4.43337 21.5667 4.83632 21.5667 5.33337V5.50004C21.5667 5.9971 21.1637 6.40004 20.6667 6.40004H5.33333C4.83628 6.40004 4.43333 5.9971 4.43333 5.50004V5.33337C4.43333 4.83632 4.83628 4.43337 5.33333 4.43337H20.6667ZM20.8469 7.68337C21.2759 7.68337 21.6453 7.98619 21.7294 8.40687L22.6325 12.9226C22.6441 12.9807 22.65 13.0398 22.65 13.0991V14.625C22.65 14.869 22.4523 15.0667 22.2083 15.0667C21.854 15.0667 21.5667 15.354 21.5667 15.7084V20.6667C21.5667 21.1638 21.1637 21.5667 20.6667 21.5667H20.5C20.0029 21.5667 19.6 21.1638 19.6 20.6667V16.1667C19.6 15.5592 19.1075 15.0667 18.5 15.0667H16.1667C15.5592 15.0667 15.0667 15.5592 15.0667 16.1667V20.6667C15.0667 21.1638 14.6637 21.5667 14.1667 21.5667H5.33333C4.83628 21.5667 4.43333 21.1638 4.43333 20.6667V15.7084C4.43333 15.354 4.14605 15.0667 3.79167 15.0667C3.54774 15.0667 3.35 14.869 3.35 14.625V13.0991C3.35 13.0398 3.35585 12.9807 3.36748 12.9226L4.27061 8.40687C4.35475 7.98619 4.72412 7.68337 5.15314 7.68337H20.8469ZM6.4 18.5C6.4 19.1076 6.89249 19.6 7.5 19.6H12C12.6075 19.6 13.1 19.1076 13.1 18.5V16.1667C13.1 15.5592 12.6075 15.0667 12 15.0667H7.5C6.89249 15.0667 6.4 15.5592 6.4 16.1667V18.5Z" fill="#DDE0E7" stroke="#1B325E" stroke-width="0.2"/>
</svg>
