<svg width="32" height="32" viewBox="0 0 32 32" fill="none" xmlns="http://www.w3.org/2000/svg">
<path d="M24.7388 12.7843C24.636 12.2701 24.1845 11.9 23.6602 11.9H8.3398C7.81545 11.9 7.364 12.2701 7.26117 12.7843L6.86117 14.7843C6.72503 15.465 7.24565 16.1 7.9398 16.1H24.0602C24.7543 16.1 25.275 15.465 25.1388 14.7843L24.7388 12.7843ZM25.6667 5.43337C26.1637 5.43337 26.5667 5.83632 26.5667 6.33337V7.00004C26.5667 7.4971 26.1637 7.90004 25.6667 7.90004H6.33333C5.83628 7.90004 5.43333 7.4971 5.43333 7.00004V6.33337C5.43333 5.83632 5.83628 5.43337 6.33333 5.43337H25.6667ZM25.8469 9.43337C26.2759 9.43337 26.6453 9.73619 26.7294 10.1569L27.8825 15.9226C27.8941 15.9807 27.9 16.0398 27.9 16.0991V18C27.9 18.313 27.6463 18.5667 27.3333 18.5667C26.9099 18.5667 26.5667 18.91 26.5667 19.3334V25.6667C26.5667 26.1638 26.1637 26.5667 25.6667 26.5667H25C24.5029 26.5667 24.1 26.1638 24.1 25.6667V19.6667C24.1 19.0592 23.6075 18.5667 23 18.5667H19.6667C19.0592 18.5667 18.5667 19.0592 18.5667 19.6667V25.6667C18.5667 26.1638 18.1637 26.5667 17.6667 26.5667H6.33333C5.83628 26.5667 5.43333 26.1638 5.43333 25.6667V19.3334C5.43333 18.91 5.09008 18.5667 4.66667 18.5667C4.35371 18.5667 4.1 18.313 4.1 18V16.0991C4.1 16.0398 4.10585 15.9807 4.11748 15.9226L5.27061 10.1569C5.35475 9.73619 5.72412 9.43337 6.15314 9.43337H25.8469ZM7.9 23C7.9 23.6075 8.39249 24.1 9 24.1H15C15.6075 24.1 16.1 23.6075 16.1 23V19.6667C16.1 19.0592 15.6075 18.5667 15 18.5667H9C8.39249 18.5667 7.9 19.0592 7.9 19.6667V23Z" fill="#1B325E" stroke="white" stroke-width="0.2"/>
</svg>
