<svg width="24" height="24" viewBox="0 0 24 24" fill="none" xmlns="http://www.w3.org/2000/svg">
<path d="M18.6188 9.78427C18.516 9.2701 18.0645 8.9 17.5402 8.9H6.4598C5.93545 8.9 5.484 9.2701 5.38117 9.78427L5.18117 10.7843C5.04503 11.4649 5.56565 12.1 6.2598 12.1H17.7402C18.4343 12.1 18.955 11.4649 18.8188 10.7843L18.6188 9.78427ZM19 4.1C19.4971 4.1 19.9 4.50294 19.9 5C19.9 5.49706 19.4971 5.9 19 5.9H5C4.50294 5.9 4.1 5.49706 4.1 5C4.1 4.50294 4.50294 4.1 5 4.1H19ZM19.1802 7.1C19.6092 7.1 19.9786 7.40281 20.0627 7.8235L20.8825 11.9225C20.8941 11.9806 20.9 12.0398 20.9 12.099V13.5C20.9 13.7209 20.7209 13.9 20.5 13.9C20.1686 13.9 19.9 14.1686 19.9 14.5V19C19.9 19.4971 19.4971 19.9 19 19.9C18.5029 19.9 18.1 19.4971 18.1 19V15C18.1 14.3925 17.6075 13.9 17 13.9H15C14.3925 13.9 13.9 14.3925 13.9 15V19C13.9 19.4971 13.4971 19.9 13 19.9H5C4.50294 19.9 4.1 19.4971 4.1 19V14.5C4.1 14.1686 3.83137 13.9 3.5 13.9C3.27909 13.9 3.1 13.7209 3.1 13.5V12.099C3.1 12.0398 3.10585 11.9806 3.11748 11.9225L3.93728 7.82349C4.02142 7.40281 4.39079 7.1 4.8198 7.1H19.1802ZM5.9 17C5.9 17.6075 6.39249 18.1 7 18.1H11C11.6075 18.1 12.1 17.6075 12.1 17V15C12.1 14.3925 11.6075 13.9 11 13.9H7C6.39249 13.9 5.9 14.3925 5.9 15V17Z" fill="#1B325E" stroke="white" stroke-width="0.2"/>
</svg>
