<svg width="32" height="32" viewBox="0 0 32 32" fill="none" xmlns="http://www.w3.org/2000/svg">
<path d="M27.8998 16.2933V16.3538L15.7065 6.53333L15.7036 6.43337C15.7036 6.43338 15.7036 6.43338 15.7036 6.43338C10.5373 6.5818 6.5665 11.0983 6.5665 16.2533V22.6667C6.5665 23.3448 6.01128 23.9 5.33317 23.9C3.92173 23.9 2.7665 22.7448 2.7665 21.3333V18.6667C2.7665 17.7172 3.27942 16.8965 4.04914 16.4603L4.09984 16.4316V16.3733C4.09984 8.92461 9.79898 4.1 15.9998 4.1C22.2669 4.1 27.8998 9.03078 27.8998 16.2933Z" fill="#1B325E" stroke="white" stroke-width="0.2"/>
<path d="M13.2332 17.3333C13.2332 18.0145 12.681 18.5667 11.9998 18.5667C11.3187 18.5667 10.7665 18.0145 10.7665 17.3333C10.7665 16.6522 11.3187 16.1 11.9998 16.1C12.681 16.1 13.2332 16.6522 13.2332 17.3333Z" fill="#1B325E" stroke="white" stroke-width="0.2"/>
<path d="M21.2332 17.3333C21.2332 18.0145 20.681 18.5667 19.9998 18.5667C19.3187 18.5667 18.7665 18.0145 18.7665 17.3333C18.7665 16.6522 19.3187 16.1 19.9998 16.1C20.681 16.1 21.2332 16.6522 21.2332 17.3333Z" fill="#1B325E" stroke="white" stroke-width="0.2"/>
<path d="M8.11795 16.4535C7.86126 11.348 12.11 8.1 16.0663 8.1C19.9617 8.1 23.2 10.9102 23.8801 14.6048C19.8106 14.5203 16.3096 12.1427 14.5958 8.70208L14.4651 8.43963L14.4082 8.72727C13.7175 12.22 11.3162 15.096 8.11795 16.4535Z" fill="#1B325E" stroke="white" stroke-width="0.2"/>
</svg>
