<svg width="24" height="24" viewBox="0 0 24 24" fill="none" xmlns="http://www.w3.org/2000/svg">
<path d="M20.9 12.22V12.2804L20.9535 12.3085C21.5134 12.6027 21.9 13.1803 21.9 13.84V16.14C21.9 16.8203 21.5129 17.3976 20.9535 17.6915L20.9 17.7196V17.78V19C20.9 20.0448 20.0448 20.9 19 20.9H12C11.5052 20.9 11.1 20.4948 11.1 20C11.1 19.5052 11.5052 19.1 12 19.1H19H19.1V19V11.9C19.1 7.90373 15.7935 4.67838 11.7771 4.80004C7.88746 4.9118 4.9 8.31163 4.9 12.19V17C4.9 17.4948 4.49477 17.9 4 17.9C2.95523 17.9 2.1 17.0448 2.1 16V14C2.1 13.2972 2.47958 12.6898 3.0493 12.367L3.1 12.3383V12.28C3.1 6.70794 7.36248 3.1 12 3.1C16.687 3.1 20.9 6.78745 20.9 12.22Z" fill="#1B325E" stroke="white" stroke-width="0.2"/>
<path d="M9.9 13C9.9 13.4971 9.49706 13.9 9 13.9C8.50294 13.9 8.1 13.4971 8.1 13C8.1 12.5029 8.50294 12.1 9 12.1C9.49706 12.1 9.9 12.5029 9.9 13Z" fill="#1B325E" stroke="white" stroke-width="0.2"/>
<path d="M15.9 13C15.9 13.4971 15.4971 13.9 15 13.9C14.5029 13.9 14.1 13.4971 14.1 13C14.1 12.5029 14.5029 12.1 15 12.1C15.4971 12.1 15.9 12.5029 15.9 13Z" fill="#1B325E" stroke="white" stroke-width="0.2"/>
<path d="M6.112 12.303C5.94198 8.51117 9.10384 6.1 12.05 6.1C14.9486 6.1 17.3602 8.1835 17.8802 10.9279C14.8508 10.8534 12.2465 9.07921 10.9695 6.51541L10.8388 6.25296L10.7819 6.5406C10.2679 9.13985 8.4867 11.2823 6.112 12.303Z" fill="#1B325E" stroke="white" stroke-width="0.2"/>
</svg>
