<svg width="24" height="24" viewBox="0 0 24 24" fill="none" xmlns="http://www.w3.org/2000/svg">
<path d="M16.85 8V8.15H17H19C19.5823 8.15 20.1306 8.42416 20.48 8.89L22.48 11.5567C22.7202 11.8769 22.85 12.2664 22.85 12.6667V16C22.85 16.4694 22.4694 16.85 22 16.85H21H20.85V17C20.85 18.5772 19.5772 19.85 18 19.85C16.4228 19.85 15.15 18.5772 15.15 17V16.85H15H9H8.85V17C8.85 18.5772 7.57716 19.85 6 19.85C4.42284 19.85 3.15 18.5772 3.15 17V16.85H3C1.97827 16.85 1.15 16.0217 1.15 15V6C1.15 4.98284 1.98284 4.15 3 4.15H15C16.0217 4.15 16.85 4.97827 16.85 6V8ZM19.618 9.40745L19.573 9.35H19.5H17H16.85V9.5V12V12.15H17H21.46H21.7682L21.578 11.9075L19.618 9.40745ZM8.1086 15.1004L8.15328 15.15H8.22H14C14.6351 15.15 15.15 14.6351 15.15 14V7C15.15 6.36487 14.6351 5.85 14 5.85H4C3.36487 5.85 2.85 6.36487 2.85 7V14.22C2.85 14.7336 3.26638 15.15 3.78 15.15H3.84672L3.8914 15.1004C4.41525 14.5195 5.15578 14.15 6 14.15C6.84422 14.15 7.58475 14.5195 8.1086 15.1004ZM4.85 17C4.85 17.6328 5.36716 18.15 6 18.15C6.63284 18.15 7.15 17.6328 7.15 17C7.15 16.3672 6.63284 15.85 6 15.85C5.36716 15.85 4.85 16.3672 4.85 17ZM16.85 17C16.85 17.6328 17.3672 18.15 18 18.15C18.6328 18.15 19.15 17.6328 19.15 17C19.15 16.3672 18.6328 15.85 18 15.85C17.3672 15.85 16.85 16.3672 16.85 17Z" fill="#1B325E" stroke="white" stroke-width="0.3"/>
</svg>
