<svg width="32" height="32" viewBox="0 0 32 32" fill="none" xmlns="http://www.w3.org/2000/svg">
<path d="M22.5168 10.6667V10.8167H22.6668H25.6668C26.2491 10.8167 26.7974 11.0909 27.1468 11.5567L30.1468 15.5567C30.387 15.8769 30.5168 16.2664 30.5168 16.6667V21.6667C30.5168 22.1361 30.1363 22.5167 29.6668 22.5167H28.0002H27.8502V22.6667C27.8502 24.7972 26.1307 26.5167 24.0002 26.5167C21.8697 26.5167 20.1502 24.7972 20.1502 22.6667V22.5167H20.0002H12.0002H11.8502V22.6667C11.8502 24.7972 10.1307 26.5167 8.00016 26.5167C5.86967 26.5167 4.15016 24.7972 4.15016 22.6667V22.5167H4.00016H3.3335C2.31177 22.5167 1.4835 21.6884 1.4835 20.6667V8.00004C1.4835 6.61622 2.61634 5.48337 4.00016 5.48337H20.6668C21.6886 5.48337 22.5168 6.31165 22.5168 7.33337V10.6667ZM26.1182 12.5742L26.0732 12.5167H26.0002H22.6668H22.5168V12.6667V16V16.15H22.6668H28.6135H28.9217L28.7315 15.9075L26.1182 12.5742ZM10.8488 20.1005L10.8934 20.15H10.9602H19.0002C19.6353 20.15 20.1502 19.6352 20.1502 19V9.00004C20.1502 8.36491 19.6353 7.85004 19.0002 7.85004H5.00016C4.36504 7.85004 3.85016 8.36491 3.85016 9.00004V19C3.85016 19.6352 4.36504 20.15 5.00016 20.15H5.04016H5.10689L5.15157 20.1005C5.85874 19.3162 6.85927 18.8167 8.00016 18.8167C9.14105 18.8167 10.1416 19.3162 10.8488 20.1005ZM6.51683 22.6667C6.51683 23.4829 7.18399 24.15 8.00016 24.15C8.81634 24.15 9.4835 23.4829 9.4835 22.6667C9.4835 21.8505 8.81634 21.1834 8.00016 21.1834C7.18399 21.1834 6.51683 21.8505 6.51683 22.6667ZM22.5168 22.6667C22.5168 23.4829 23.184 24.15 24.0002 24.15C24.8163 24.15 25.4835 23.4829 25.4835 22.6667C25.4835 21.8505 24.8163 21.1834 24.0002 21.1834C23.184 21.1834 22.5168 21.8505 22.5168 22.6667Z" fill="#1B325E" stroke="white" stroke-width="0.3"/>
</svg>
