<svg width="32" height="32" viewBox="0 0 32 32" fill="none" xmlns="http://www.w3.org/2000/svg">
<path d="M31.5241 6.58293C30.4107 7.07626 29.2147 7.4096 27.9574 7.56027C29.2547 6.78399 30.2253 5.56222 30.6881 4.12293C29.4692 4.84692 28.1352 5.35653 26.7441 5.6296C25.8086 4.63075 24.5695 3.9687 23.2192 3.74623C21.8688 3.52376 20.4829 3.75332 19.2764 4.39927C18.0699 5.04522 17.1104 6.07141 16.5469 7.31854C15.9834 8.56566 15.8474 9.96393 16.1601 11.2963C13.6903 11.1723 11.2742 10.5303 9.06862 9.41214C6.86302 8.29395 4.91718 6.72448 3.35739 4.8056C2.82406 5.7256 2.51739 6.79227 2.51739 7.92827C2.51679 8.95093 2.76863 9.95792 3.25056 10.8599C3.73249 11.7619 4.4296 12.531 5.28006 13.0989C4.29376 13.0675 3.32922 12.801 2.46672 12.3216V12.4016C2.46662 13.8359 2.96277 15.2261 3.87097 16.3363C4.77917 17.4464 6.04349 18.2082 7.44939 18.4923C6.53443 18.7399 5.57517 18.7764 4.64406 18.5989C5.04072 19.8331 5.81338 20.9123 6.85388 21.6855C7.89438 22.4587 9.15061 22.8872 10.4467 22.9109C8.2465 24.6381 5.52924 25.5751 2.73206 25.5709C2.23656 25.5711 1.74149 25.5421 1.24939 25.4843C4.08869 27.3098 7.39384 28.2787 10.7694 28.2749C22.1961 28.2749 28.4427 18.8109 28.4427 10.6029C28.4427 10.3363 28.4361 10.0669 28.4241 9.80026C29.6391 8.92156 30.6879 7.83346 31.5214 6.58693L31.5241 6.58293Z" fill="#EBEDF0"/>
</svg>
