<svg width="32" height="32" viewBox="0 0 32 32" fill="none" xmlns="http://www.w3.org/2000/svg">
<path d="M5.72969 22.5843L5.46568 22.7666H5.7865H18.2132H18.534L18.27 22.5843C17.6975 22.189 16.7293 21.7687 15.6091 21.4472C14.4874 21.1253 13.2046 20.9 11.9998 20.9C10.795 20.9 9.51224 21.1253 8.39058 21.4472C7.27042 21.7687 6.30222 22.189 5.72969 22.5843ZM21.7428 18.5572C23.2973 18.763 25.0981 19.219 26.5462 19.9216C28.1187 20.6846 29.2332 21.7165 29.2332 23V25.2333H24.0998V23C24.0998 21.1151 23.1452 19.6633 21.7428 18.5572ZM2.7665 23C2.7665 22.26 3.1357 21.6047 3.75394 21.0336C4.37288 20.4619 5.2348 19.9812 6.20035 19.5945C8.13161 18.821 10.4523 18.4333 11.9998 18.4333C13.5474 18.4333 15.8681 18.821 17.7993 19.5945C18.7649 19.9812 19.6268 20.4619 20.2457 21.0336C20.864 21.6047 21.2332 22.26 21.2332 23V25.2333H2.7665V23ZM16.5665 11.3333C16.5665 13.8514 14.5179 15.9 11.9998 15.9C9.48173 15.9 7.43317 13.8514 7.43317 11.3333C7.43317 8.81519 9.48173 6.76663 11.9998 6.76663C14.5179 6.76663 16.5665 8.81519 16.5665 11.3333ZM14.0998 11.3333C14.0998 10.1714 13.1617 9.23329 11.9998 9.23329C10.8379 9.23329 9.89984 10.1714 9.89984 11.3333C9.89984 12.4952 10.8379 13.4333 11.9998 13.4333C13.1617 13.4333 14.0998 12.4952 14.0998 11.3333ZM24.5665 11.3333C24.5665 13.8514 22.5179 15.9 19.9998 15.9C19.3379 15.9 18.7215 15.7501 18.1499 15.4927C18.9598 14.3081 19.4332 12.8718 19.4332 11.3333C19.4332 9.7948 18.9598 8.35846 18.1499 7.17388C18.7215 6.91649 19.3379 6.76663 19.9998 6.76663C22.5179 6.76663 24.5665 8.81519 24.5665 11.3333Z" fill="#1B325E" stroke="white" stroke-width="0.2"/>
</svg>
