<svg width="24" height="24" viewBox="0 0 24 24" fill="none" xmlns="http://www.w3.org/2000/svg">
<path d="M4.28318 16.9177L4.01918 17.1H4.34H13.66H13.9808L13.7168 16.9177C13.2843 16.6191 12.5552 16.3029 11.7138 16.0614C10.8709 15.8195 9.90647 15.65 9 15.65C8.09353 15.65 7.12907 15.8195 6.28616 16.0614C5.44475 16.3029 4.71572 16.6191 4.28318 16.9177ZM2.1 17.25C2.1 16.7042 2.37212 16.2189 2.83254 15.7936C3.29366 15.3676 3.93705 15.0085 4.65968 14.7191C6.10511 14.1402 7.84246 13.85 9 13.85C10.1575 13.85 11.8949 14.1402 13.3403 14.7191C14.063 15.0085 14.7063 15.3676 15.1675 15.7936C15.6279 16.2189 15.9 16.7042 15.9 17.25V18.9H2.1V17.25ZM12.4 8.5C12.4 10.3748 10.8748 11.9 9 11.9C7.12523 11.9 5.6 10.3748 5.6 8.5C5.6 6.62523 7.12523 5.1 9 5.1C10.8748 5.1 12.4 6.62523 12.4 8.5ZM10.6 8.5C10.6 7.61477 9.88523 6.9 9 6.9C8.11477 6.9 7.4 7.61477 7.4 8.5C7.4 9.38523 8.11477 10.1 9 10.1C9.88523 10.1 10.6 9.38523 10.6 8.5ZM18.1 17.25C18.1 15.8585 17.4107 14.7806 16.3934 13.9549C17.5365 14.1144 18.8434 14.4516 19.8988 14.9637C21.0772 15.5354 21.9 16.3032 21.9 17.25V18.9H18.1V17.25ZM18.4 8.5C18.4 10.3748 16.8748 11.9 15 11.9C14.5179 11.9 14.0682 11.7932 13.65 11.6089C14.2499 10.7212 14.6 9.64835 14.6 8.5C14.6 7.35165 14.2499 6.2788 13.65 5.39111C14.0682 5.2068 14.5179 5.1 15 5.1C16.8748 5.1 18.4 6.62523 18.4 8.5Z" fill="#1B325E" stroke="white" stroke-width="0.2"/>
</svg>
