<svg width="24" height="24" viewBox="0 0 24 24" fill="none" xmlns="http://www.w3.org/2000/svg">
<path d="M20.9 7.28V7.33695L20.949 7.36601C21.5117 7.69981 21.9 8.29872 21.9 9V15C21.9 15.7013 21.5117 16.3002 20.949 16.634L20.9 16.663V16.72V19C20.9 20.0448 20.0448 20.9 19 20.9H5C3.94555 20.9 3.1 20.0451 3.1 19V5C3.1 3.9549 3.94555 3.1 5 3.1H19C20.0448 3.1 20.9 3.95523 20.9 5V7.28ZM20.1 9V8.9H20H13H12.9V9V15V15.1H13H20H20.1V15V9ZM4.9 19V19.1H5H19H19.1V19V17V16.9H19H13C11.9552 16.9 11.1 16.0448 11.1 15V9C11.1 7.95523 11.9552 7.1 13 7.1H19H19.1V7V5V4.9H19H5H4.9V5V19Z" fill="#1B325E" stroke="white" stroke-width="0.2"/>
<path d="M16 13.5C16.8284 13.5 17.5 12.8284 17.5 12C17.5 11.1716 16.8284 10.5 16 10.5C15.1716 10.5 14.5 11.1716 14.5 12C14.5 12.8284 15.1716 13.5 16 13.5Z" fill="#1B325E"/>
</svg>
